<?xml version="1.0" encoding="UTF-8"?>
<!-- Generator: visioncortex VTracer 0.6.4 -->
<svg version="1.1" xmlns="http://www.w3.org/2000/svg" width="200" height="200">
<path d="M0,0 L1,0 L1,1 L26,1 L26,29 L23,29 L23,30 L16,30 L16,29 L12,29 L12,30 L10,30 L10,31 L9,31 L9,32 L8,32 L8,33 L7,33 L7,34 L6,34 L6,35 L5,35 L5,36 L4,36 L4,37 L3,37 L3,38 L2,38 L2,39 L1,39 L1,40 L0,40 L0,41 L-1,41 L-1,42 L-2,42 L-2,43 L-3,43 L-3,44 L-4,44 L-4,45 L-5,45 L-5,46 L-6,46 L-6,47 L-7,47 L-7,48 L-8,48 L-8,49 L-9,49 L-9,50 L-10,50 L-10,53 L-9,53 L-9,54 L-8,54 L-8,55 L-7,55 L-7,56 L-6,56 L-6,57 L-5,57 L-5,58 L-4,58 L-4,59 L-3,59 L-3,60 L-2,60 L-2,61 L-1,61 L-1,62 L0,62 L0,63 L1,63 L1,64 L2,64 L2,65 L3,65 L3,66 L4,66 L4,67 L5,67 L5,68 L6,68 L6,69 L7,69 L7,70 L8,70 L8,74 L7,74 L7,75 L6,75 L6,76 L5,76 L5,77 L4,77 L4,78 L3,78 L3,79 L2,79 L2,80 L1,80 L1,81 L0,81 L0,82 L-4,82 L-4,81 L-5,81 L-5,80 L-6,80 L-6,79 L-7,79 L-7,78 L-8,78 L-8,77 L-9,77 L-9,76 L-10,76 L-10,75 L-11,75 L-11,74 L-12,74 L-12,73 L-15,73 L-15,74 L-16,74 L-16,75 L-17,75 L-17,76 L-18,76 L-18,77 L-19,77 L-19,78 L-20,78 L-20,79 L-21,79 L-21,80 L-22,80 L-22,81 L-23,81 L-23,82 L-24,82 L-24,83 L-25,83 L-25,84 L-26,84 L-26,85 L-27,85 L-27,86 L-28,86 L-28,87 L-29,87 L-29,88 L-30,88 L-30,89 L-31,89 L-31,90 L-32,90 L-32,91 L-33,91 L-33,92 L-34,92 L-34,93 L-35,93 L-35,94 L-36,94 L-36,95 L-37,95 L-37,96 L-38,96 L-38,97 L-39,97 L-39,98 L-40,98 L-40,99 L-41,99 L-41,100 L-42,100 L-42,101 L-43,101 L-43,102 L-44,102 L-44,103 L-45,103 L-45,104 L-46,104 L-46,105 L-47,105 L-47,106 L-48,106 L-48,107 L-49,107 L-49,108 L-50,108 L-50,109 L-51,109 L-51,110 L-52,110 L-52,111 L-53,111 L-53,112 L-54,112 L-54,113 L-55,113 L-55,114 L-56,114 L-56,115 L-57,115 L-57,116 L-58,116 L-58,117 L-59,117 L-59,118 L-60,118 L-60,119 L-61,119 L-61,120 L-62,120 L-62,121 L-63,121 L-63,122 L-64,122 L-64,123 L-65,123 L-65,124 L-66,124 L-66,125 L-67,125 L-67,126 L-68,126 L-68,127 L-69,127 L-69,128 L-70,128 L-70,129 L-71,129 L-71,130 L-72,130 L-72,131 L-73,131 L-73,132 L-74,132 L-74,133 L-75,133 L-75,134 L-76,134 L-76,135 L-77,135 L-77,136 L-78,136 L-78,137 L-79,137 L-79,138 L-80,138 L-80,139 L-81,139 L-81,140 L-82,140 L-82,141 L-83,141 L-83,142 L-84,142 L-84,143 L-85,143 L-85,144 L-86,144 L-86,145 L-87,145 L-87,146 L-88,146 L-88,147 L-89,147 L-89,148 L-90,148 L-90,149 L-91,149 L-91,151 L-93,151 L-93,152 L-94,152 L-94,153 L-95,153 L-95,154 L-97,154 L-97,155 L-102,155 L-102,156 L-112,156 L-112,157 L-130,157 L-130,139 L-129,139 L-129,131 L-128,131 L-128,123 L-127,123 L-127,122 L-126,122 L-126,121 L-125,121 L-125,120 L-124,120 L-124,119 L-123,119 L-123,118 L-122,118 L-122,117 L-121,117 L-121,116 L-120,116 L-120,115 L-119,115 L-119,114 L-118,114 L-118,113 L-117,113 L-117,112 L-116,112 L-116,111 L-115,111 L-115,110 L-114,110 L-114,109 L-113,109 L-113,108 L-112,108 L-112,107 L-111,107 L-111,106 L-110,106 L-110,105 L-109,105 L-109,104 L-108,104 L-108,103 L-107,103 L-107,102 L-106,102 L-106,101 L-105,101 L-105,100 L-104,100 L-104,99 L-103,99 L-103,98 L-102,98 L-102,97 L-101,97 L-101,96 L-100,96 L-100,95 L-99,95 L-99,94 L-98,94 L-98,93 L-97,93 L-97,92 L-96,92 L-96,90 L-95,90 L-95,89 L-94,89 L-94,88 L-93,88 L-93,87 L-92,87 L-92,86 L-91,86 L-91,85 L-90,85 L-90,84 L-89,84 L-89,83 L-88,83 L-88,82 L-87,82 L-87,81 L-86,81 L-86,80 L-85,80 L-85,79 L-84,79 L-84,78 L-83,78 L-83,77 L-82,77 L-82,76 L-81,76 L-81,75 L-80,75 L-80,74 L-79,74 L-79,73 L-78,73 L-78,72 L-77,72 L-77,71 L-76,71 L-76,70 L-75,70 L-75,69 L-74,69 L-74,68 L-73,68 L-73,67 L-72,67 L-72,66 L-71,66 L-71,65 L-70,65 L-70,64 L-69,64 L-69,63 L-68,63 L-68,62 L-67,62 L-67,61 L-66,61 L-66,60 L-65,60 L-65,59 L-64,59 L-64,58 L-63,58 L-63,57 L-62,57 L-62,56 L-61,56 L-61,55 L-60,55 L-60,54 L-59,54 L-59,53 L-58,53 L-58,52 L-57,52 L-57,51 L-56,51 L-56,50 L-55,50 L-55,49 L-54,49 L-54,48 L-53,48 L-53,47 L-52,47 L-52,46 L-51,46 L-51,45 L-50,45 L-50,44 L-49,44 L-49,43 L-48,43 L-48,42 L-47,42 L-47,41 L-46,41 L-46,39 L-47,39 L-47,38 L-48,38 L-48,37 L-49,37 L-49,36 L-50,36 L-50,35 L-51,35 L-51,34 L-52,34 L-52,33 L-53,33 L-53,32 L-54,32 L-54,31 L-55,31 L-55,27 L-54,27 L-54,26 L-53,26 L-53,25 L-52,25 L-52,24 L-51,24 L-51,23 L-50,23 L-50,22 L-49,22 L-49,21 L-48,21 L-48,20 L-47,20 L-47,19 L-46,19 L-46,18 L-45,18 L-45,19 L-43,19 L-43,20 L-42,20 L-42,21 L-41,21 L-41,22 L-40,22 L-40,23 L-39,23 L-39,24 L-38,24 L-38,25 L-37,25 L-37,26 L-36,26 L-36,27 L-35,27 L-35,28 L-34,28 L-34,29 L-33,29 L-33,30 L-32,30 L-32,31 L-31,31 L-31,32 L-30,32 L-30,33 L-29,33 L-29,34 L-28,34 L-28,36 L-27,36 L-27,37 L-24,37 L-24,36 L-23,36 L-23,35 L-22,35 L-22,34 L-21,34 L-21,33 L-20,33 L-20,32 L-19,32 L-19,31 L-18,31 L-18,30 L-17,30 L-17,29 L-16,29 L-16,28 L-15,28 L-15,27 L-14,27 L-14,26 L-13,26 L-13,25 L-12,25 L-12,24 L-11,24 L-11,23 L-10,23 L-10,22 L-9,22 L-9,21 L-8,21 L-8,20 L-7,20 L-7,19 L-6,19 L-6,18 L-5,18 L-5,17 L-4,17 L-4,16 L-3,16 L-3,2 L-2,2 L-2,1 L0,1 Z " fill="#FFFFFF" transform="translate(152,21)"/>
<path d="M0,0 L1,0 L1,1 L0,1 Z " fill="#FFFFFF" opacity="0.99607843" transform="translate(124,56)"/>
<path d="M0,0 L1,0 L1,1 L0,1 Z M-1,1 L0,1 L0,2 L-1,2 Z M-2,2 L-1,2 L-1,3 L-2,3 Z M-3,3 L-2,3 L-2,4 L-3,4 Z M-4,4 L-3,4 L-3,5 L-4,5 Z " fill="#FFFFFF" opacity="0.96862745" transform="translate(106,125)"/>
<path d="M0,0 L1,0 L1,1 L0,1 Z M-1,1 L0,1 L0,2 L-1,2 Z M-2,2 L-1,2 L-1,3 L-2,3 Z M-3,3 L-2,3 L-2,4 L-3,4 Z M-4,4 L-3,4 L-3,5 L-4,5 Z M-5,5 L-4,5 L-4,6 L-5,6 Z M-6,6 L-5,6 L-5,7 L-6,7 Z M-7,7 L-6,7 L-6,8 L-7,8 Z M-8,8 L-7,8 L-7,9 L-8,9 Z M-9,9 L-8,9 L-8,10 L-9,10 Z M-10,10 L-9,10 L-9,11 L-10,11 Z " fill="#FFFFFF" opacity="0.99215686" transform="translate(40,127)"/>
<path d="M0,0 L1,0 L1,1 L0,1 Z M-1,1 L0,1 L0,2 L-1,2 Z M-2,2 L-1,2 L-1,3 L-2,3 Z " fill="#FFFFFF" opacity="0.9647059" transform="translate(87,144)"/>
<path d="M0,0 L1,0 L1,1 L0,1 Z M-1,1 L0,1 L0,2 L-1,2 Z M-2,2 L-1,2 L-1,3 L-2,3 Z M-3,3 L-2,3 L-2,4 L-3,4 Z M-4,4 L-3,4 L-3,5 L-4,5 Z M-5,5 L-4,5 L-4,6 L-5,6 Z " fill="#FFFFFF" opacity="0.8117647" transform="translate(157,56)"/>
<path d="M0,0 L1,0 L1,1 L0,1 Z M-1,1 L0,1 L0,2 L-1,2 Z M-2,2 L-1,2 L-1,3 L-2,3 Z M-3,3 L-2,3 L-2,4 L-3,4 Z M-4,4 L-3,4 L-3,5 L-4,5 Z M-5,5 L-4,5 L-4,6 L-5,6 Z M-6,6 L-5,6 L-5,7 L-6,7 Z M-7,7 L-6,7 L-6,8 L-7,8 Z M-8,8 L-7,8 L-7,9 L-8,9 Z M-9,9 L-8,9 L-8,10 L-9,10 Z " fill="#FFFFFF" transform="translate(106,39)"/>
<path d="M0,0 L1,0 L1,1 L0,1 Z M-1,1 L0,1 L0,2 L-1,2 Z M-2,2 L-1,2 L-1,3 L-2,3 Z M-3,3 L-2,3 L-2,4 L-3,4 Z M-4,4 L-3,4 L-3,5 L-4,5 Z M-5,5 L-4,5 L-4,6 L-5,6 Z M-6,6 L-5,6 L-5,7 L-6,7 Z M-7,7 L-6,7 L-6,8 L-7,8 Z M-8,8 L-7,8 L-7,9 L-8,9 Z M-9,9 L-8,9 L-8,10 L-9,10 Z M-10,10 L-9,10 L-9,11 L-10,11 Z M-11,11 L-10,11 L-10,12 L-11,12 Z M-12,12 L-11,12 L-11,13 L-12,13 Z M-13,13 L-12,13 L-12,14 L-13,14 Z M-14,14 L-13,14 L-13,15 L-14,15 Z " fill="#FFFFFF" opacity="0.99607843" transform="translate(55,112)"/>
<path d="M0,0 L13,0 L13,1 L0,1 Z " fill="#FFFFFF" opacity="0.9098039" transform="translate(162,21)"/>
<path d="M0,0 L1,0 L1,1 L0,1 Z M-1,1 L0,1 L0,2 L-1,2 Z M-2,2 L-1,2 L-1,3 L-2,3 Z M-3,3 L-2,3 L-2,4 L-3,4 Z " fill="#FFFFFF" opacity="0.98039216" transform="translate(75,156)"/>
<path d="M0,0 L1,0 L1,1 L0,1 Z " fill="#FFFFFF" opacity="0.8235294" transform="translate(21,175)"/>
<path d="M0,0 L1,0 L1,1 L0,1 Z " fill="#FFFFFF" opacity="0.5568628" transform="translate(178,25)"/>
<path d="M0,0 L1,0 L1,1 L0,1 Z M-1,1 L0,1 L0,2 L-1,2 Z M-2,2 L-1,2 L-1,3 L-2,3 Z M-3,3 L-2,3 L-2,4 L-3,4 Z " fill="#FFFFFF" opacity="0.9647059" transform="translate(101,130)"/>
<path d="M0,0 L1,0 L1,1 L0,1 Z " fill="#FFFFFF" opacity="0.46666667" transform="translate(33,178)"/>
<path d="M0,0 L1,0 L1,1 L0,1 Z M-1,1 L0,1 L0,2 L-1,2 Z M-2,2 L-1,2 L-1,3 L-2,3 Z M-3,3 L-2,3 L-2,4 L-3,4 Z " fill="#FFFFFF" opacity="0.98039216" transform="translate(119,112)"/>
<path d="M0,0 L1,0 L1,1 L0,1 Z M-1,1 L0,1 L0,2 L-1,2 Z M-2,2 L-1,2 L-1,3 L-2,3 Z M-3,3 L-2,3 L-2,4 L-3,4 Z M-4,4 L-3,4 L-3,5 L-4,5 Z M-5,5 L-4,5 L-4,6 L-5,6 Z M-6,6 L-5,6 L-5,7 L-6,7 Z M-7,7 L-6,7 L-6,8 L-7,8 Z M-8,8 L-7,8 L-7,9 L-8,9 Z M-9,9 L-8,9 L-8,10 L-9,10 Z M-10,10 L-9,10 L-9,11 L-10,11 Z M-11,11 L-10,11 L-10,12 L-11,12 Z M-12,12 L-11,12 L-11,13 L-12,13 Z M-13,13 L-12,13 L-12,14 L-13,14 Z " fill="#FFFFFF" opacity="0.003921569" transform="translate(99,66)"/>
<path d="M0,0 L1,0 L1,1 L0,1 Z M-1,1 L0,1 L0,2 L-1,2 Z M-2,2 L-1,2 L-1,3 L-2,3 Z M-3,3 L-2,3 L-2,4 L-3,4 Z M-4,4 L-3,4 L-3,5 L-4,5 Z M-5,5 L-4,5 L-4,6 L-5,6 Z M-6,6 L-5,6 L-5,7 L-6,7 Z M-7,7 L-6,7 L-6,8 L-7,8 Z M-8,8 L-7,8 L-7,9 L-8,9 Z " fill="#FFFFFF" opacity="0.8156863" transform="translate(151,62)"/>
<path d="M0,0 L1,0 L1,1 L0,1 Z " fill="#FFFFFF" opacity="0.36862746" transform="translate(148,25)"/>
<path d="M0,0 L1,0 L1,1 L0,1 Z M-1,1 L0,1 L0,2 L-1,2 Z M-2,2 L-1,2 L-1,3 L-2,3 Z " fill="#FFFFFF" opacity="0.972549" transform="translate(81,150)"/>
<path d="M0,0 L1,0 L1,1 L0,1 Z M-1,1 L0,1 L0,2 L-1,2 Z M-2,2 L-1,2 L-1,3 L-2,3 Z M-3,3 L-2,3 L-2,4 L-3,4 Z M-4,4 L-3,4 L-3,5 L-4,5 Z M-5,5 L-4,5 L-4,6 L-5,6 Z M-6,6 L-5,6 L-5,7 L-6,7 Z M-7,7 L-6,7 L-6,8 L-7,8 Z M-8,8 L-7,8 L-7,9 L-8,9 Z M-9,9 L-8,9 L-8,10 L-9,10 Z M-10,10 L-9,10 L-9,11 L-10,11 Z M-11,11 L-10,11 L-10,12 L-11,12 Z " fill="#FFFFFF" opacity="0.41960785" transform="translate(139,45)"/>
<path d="M0,0 L1,0 L1,1 L0,1 Z M-1,1 L0,1 L0,2 L-1,2 Z M-2,2 L-1,2 L-1,3 L-2,3 Z M-3,3 L-2,3 L-2,4 L-3,4 Z " fill="#FFFFFF" opacity="0.9882353" transform="translate(29,138)"/>
<path d="M0,0 L1,0 L1,1 L0,1 Z M-1,1 L0,1 L0,2 L-1,2 Z M-2,2 L-1,2 L-1,3 L-2,3 Z M-3,3 L-2,3 L-2,4 L-3,4 Z M-4,4 L-3,4 L-3,5 L-4,5 Z M-5,5 L-4,5 L-4,6 L-5,6 Z M-6,6 L-5,6 L-5,7 L-6,7 Z M-7,7 L-6,7 L-6,8 L-7,8 Z M-8,8 L-7,8 L-7,9 L-8,9 Z M-9,9 L-8,9 L-8,10 L-9,10 Z " fill="#FFFFFF" opacity="0.07450981" transform="translate(157,57)"/>
<path d="M0,0 L1,0 L1,1 L0,1 Z M-1,1 L0,1 L0,2 L-1,2 Z M-2,2 L-1,2 L-1,3 L-2,3 Z M-3,3 L-2,3 L-2,4 L-3,4 Z M-4,4 L-3,4 L-3,5 L-4,5 Z M-5,5 L-4,5 L-4,6 L-5,6 Z " fill="#FFFFFF" opacity="0.93333334" transform="translate(104,40)"/>
<path d="M0,0 L1,0 L1,1 L0,1 Z M-1,1 L0,1 L0,2 L-1,2 Z M-2,2 L-1,2 L-1,3 L-2,3 Z M-3,3 L-2,3 L-2,4 L-3,4 Z M-4,4 L-3,4 L-3,5 L-4,5 Z " fill="#FFFFFF" opacity="0.9764706" transform="translate(115,116)"/>
<path d="M0,0 L1,0 L1,1 L0,1 Z " fill="#FFFFFF" opacity="0.5372549" transform="translate(178,33)"/>
<path d="M0,0 L1,0 L1,1 L0,1 Z " fill="#FFFFFF" opacity="0.47058824" transform="translate(21,167)"/>
<path d="M0,0 L1,0 L1,1 L0,1 Z " fill="#FFFFFF" opacity="0.9098039" transform="translate(22,159)"/>
<path d="M0,0 L1,0 L1,1 L0,1 Z M-1,1 L0,1 L0,2 L-1,2 Z M-2,2 L-1,2 L-1,3 L-2,3 Z M-3,3 L-2,3 L-2,4 L-3,4 Z " fill="#FFFFFF" opacity="0.972549" transform="translate(110,121)"/>
<path d="M0,0 L1,0 L1,1 L0,1 Z M1,1 L2,1 L2,2 L1,2 Z M2,2 L3,2 L3,3 L2,3 Z M3,3 L4,3 L4,4 L3,4 Z M4,4 L5,4 L5,5 L4,5 Z M5,5 L6,5 L6,6 L5,6 Z M6,6 L7,6 L7,7 L6,7 Z M7,7 L8,7 L8,8 L7,8 Z " fill="#FFFFFF" opacity="0.41568628" transform="translate(152,83)"/>
<path d="M0,0 L1,0 L1,1 L0,1 Z M1,1 L2,1 L2,2 L1,2 Z M2,2 L3,2 L3,3 L2,3 Z M3,3 L4,3 L4,4 L3,4 Z M4,4 L5,4 L5,5 L4,5 Z M5,5 L6,5 L6,6 L5,6 Z M6,6 L7,6 L7,7 L6,7 Z M7,7 L8,7 L8,8 L7,8 Z " fill="#FFFFFF" opacity="0.41568628" transform="translate(143,74)"/>
<path d="M0,0 L1,0 L1,1 L0,1 Z " fill="#FFFFFF" opacity="0.16862746" transform="translate(173,51)"/>
<path d="M0,0 L1,0 L1,1 L0,1 Z " fill="#FFFFFF" opacity="0.34901962" transform="translate(46,177)"/>
<path d="M0,0 L1,0 L1,1 L0,1 Z M-1,1 L0,1 L0,2 L-1,2 Z M-2,2 L-1,2 L-1,3 L-2,3 Z M-3,3 L-2,3 L-2,4 L-3,4 Z " fill="#FFFFFF" opacity="0.95686275" transform="translate(94,137)"/>
<path d="M0,0 L1,0 L1,1 L0,1 Z M-1,1 L0,1 L0,2 L-1,2 Z M-2,2 L-1,2 L-1,3 L-2,3 Z " fill="#FFFFFF" opacity="0.9607843" transform="translate(97,134)"/>
<path d="M0,0 L1,0 L1,1 L0,1 Z M-1,1 L0,1 L0,2 L-1,2 Z M-2,2 L-1,2 L-1,3 L-2,3 Z M-3,3 L-2,3 L-2,4 L-3,4 Z M-4,4 L-3,4 L-3,5 L-4,5 Z M-5,5 L-4,5 L-4,6 L-5,6 Z M-6,6 L-5,6 L-5,7 L-6,7 Z " fill="#FFFFFF" opacity="0.41960785" transform="translate(147,37)"/>
<path d="M0,0 L1,0 L1,1 L0,1 Z " fill="#FFFFFF" opacity="0.16470589" transform="translate(37,178)"/>
<path d="M0,0 L1,0 L1,1 L0,1 Z M-1,1 L0,1 L0,2 L-1,2 Z M-2,2 L-1,2 L-1,3 L-2,3 Z " fill="#FFFFFF" opacity="0.9843137" transform="translate(71,160)"/>
<path d="M0,0 L1,0 L1,1 L0,1 Z M-1,1 L0,1 L0,2 L-1,2 Z M-2,2 L-1,2 L-1,3 L-2,3 Z " fill="#FFFFFF" opacity="0.9764706" transform="translate(78,153)"/>
<path d="M0,0 L1,0 L1,1 L0,1 Z M-1,1 L0,1 L0,2 L-1,2 Z M-2,2 L-1,2 L-1,3 L-2,3 Z " fill="#FFFFFF" opacity="0.96862745" transform="translate(84,147)"/>
<path d="M0,0 L1,0 L1,1 L0,1 Z M-1,1 L0,1 L0,2 L-1,2 Z M-2,2 L-1,2 L-1,3 L-2,3 Z " fill="#FFFFFF" opacity="0.9607843" transform="translate(90,141)"/>
<path d="M0,0 L1,0 L1,1 L0,1 Z " fill="#FFFFFF" opacity="0.047058824" transform="translate(148,33)"/>
<path d="M0,0 L1,0 L1,1 L0,1 Z " fill="#FFFFFF" opacity="0.8980392" transform="translate(159,21)"/>
<path d="M0,0 L1,0 L1,1 L0,1 Z " fill="#FFFFFF" opacity="0.90588236" transform="translate(161,21)"/>
<path d="M0,0 L1,0 L1,1 L0,1 Z M-1,1 L0,1 L0,2 L-1,2 Z " fill="#FFFFFF" opacity="0.9764706" transform="translate(121,110)"/>
<path d="M0,0 L1,0 L1,1 L0,1 Z M-1,1 L0,1 L0,2 L-1,2 Z " fill="#FFFFFF" opacity="0.9647059" transform="translate(125,106)"/>
<path d="M0,0 L1,0 L1,1 L0,1 Z " fill="#FFFFFF" opacity="0.7137255" transform="translate(149,103)"/>
<path d="M0,0 L1,0 L1,1 L0,1 Z M-1,1 L0,1 L0,2 L-1,2 Z M-2,2 L-1,2 L-1,3 L-2,3 Z M-3,3 L-2,3 L-2,4 L-3,4 Z M-4,4 L-3,4 L-3,5 L-4,5 Z " fill="#FFFFFF" opacity="0.078431375" transform="translate(147,67)"/>
<path d="M0,0 L1,0 L1,1 L0,1 Z M-1,1 L0,1 L0,2 L-1,2 Z M-2,2 L-1,2 L-1,3 L-2,3 Z M-3,3 L-2,3 L-2,4 L-3,4 Z M-4,4 L-3,4 L-3,5 L-4,5 Z " fill="#FFFFFF" opacity="0.07058824" transform="translate(162,52)"/>
<path d="M0,0 L1,0 L1,1 L0,1 Z " fill="#FFFFFF" opacity="0.96862745" transform="translate(178,46)"/>
<path d="M0,0 L1,0 L1,1 L0,1 Z M-1,1 L0,1 L0,2 L-1,2 Z " fill="#FFFFFF" transform="translate(150,22)"/>
<path d="M0,0 L1,0 L1,1 L0,1 Z " fill="#FFFFFF" opacity="0.69803923" transform="translate(29,178)"/>
<path d="M0,0 L1,0 L1,1 L0,1 Z " fill="#FFFFFF" opacity="0.003921569" transform="translate(55,176)"/>
<path d="M0,0 L1,0 L1,1 L0,1 Z " fill="#FFFFFF" opacity="0.64705884" transform="translate(21,171)"/>
<path d="M0,0 L1,0 L1,1 L0,1 Z " fill="#FFFFFF" opacity="0.23529412" transform="translate(21,163)"/>
<path d="M0,0 L1,0 L1,1 L0,1 Z " fill="#FFFFFF" opacity="0.44705883" transform="translate(22,155)"/>
<path d="M0,0 L1,0 L1,1 L0,1 Z " fill="#FFFFFF" opacity="0.5803922" transform="translate(23,147)"/>
<path d="M0,0 L1,0 L1,1 L0,1 Z " fill="#FFFFFF" opacity="0.9254902" transform="translate(25,142)"/>
<path d="M0,0 L1,0 L1,1 L0,1 Z M-1,1 L0,1 L0,2 L-1,2 Z M-2,2 L-1,2 L-1,3 L-2,3 Z M-3,3 L-2,3 L-2,4 L-3,4 Z " fill="#FFFFFF" opacity="0.007843138" transform="translate(103,62)"/>
<path d="M0,0 L1,0 L1,1 L0,1 Z " fill="#FFFFFF" opacity="0.79607844" transform="translate(105,61)"/>
<path d="M0,0 L1,0 L1,1 L0,1 Z " fill="#FFFFFF" opacity="0.5529412" transform="translate(127,57)"/>
<path d="M0,0 L1,0 L1,1 L0,1 Z M-1,1 L0,1 L0,2 L-1,2 Z M-2,2 L-1,2 L-1,3 L-2,3 Z M-3,3 L-2,3 L-2,4 L-3,4 Z " fill="#FFFFFF" opacity="0.80784315" transform="translate(161,52)"/>
<path d="M0,0 L1,0 L1,1 L0,1 Z " fill="#FFFFFF" opacity="0.105882354" transform="translate(171,51)"/>
<path d="M0,0 L1,0 L1,1 L0,1 Z " fill="#FFFFFF" opacity="0.9529412" transform="translate(96,49)"/>
<path d="M0,0 L1,0 L1,1 L0,1 Z " fill="#FFFFFF" opacity="0.9411765" transform="translate(178,44)"/>
<path d="M0,0 L1,0 L1,1 L0,1 Z " fill="#FFFFFF" opacity="0.78039217" transform="translate(178,40)"/>
<path d="M0,0 L1,0 L1,1 L0,1 Z M-1,1 L0,1 L0,2 L-1,2 Z M-2,2 L-1,2 L-1,3 L-2,3 Z M-3,3 L-2,3 L-2,4 L-3,4 Z " fill="#FFFFFF" opacity="0.19607843" transform="translate(103,40)"/>
<path d="M0,0 L1,0 L1,1 L0,1 Z " fill="#FFFFFF" opacity="0.4627451" transform="translate(178,29)"/>
<path d="M0,0 L1,0 L1,1 L0,1 Z " fill="#FFFFFF" opacity="0.14117648" transform="translate(48,177)"/>
<path d="M0,0 L1,0 L1,1 L0,1 Z " fill="#FFFFFF" opacity="0.9019608" transform="translate(21,177)"/>
<path d="M0,0 L1,0 L1,1 L0,1 Z " fill="#FFFFFF" opacity="0.7176471" transform="translate(23,149)"/>
<path d="M0,0 L1,0 L1,1 L0,1 Z M-1,1 L0,1 L0,2 L-1,2 Z M-2,2 L-1,2 L-1,3 L-2,3 Z " fill="#FFFFFF" opacity="0.34117648" transform="translate(30,136)"/>
<path d="M0,0 L1,0 L1,1 L0,1 Z M-1,1 L0,1 L0,2 L-1,2 Z M-2,2 L-1,2 L-1,3 L-2,3 Z " fill="#FFFFFF" opacity="0.36078432" transform="translate(41,125)"/>
<path d="M0,0 L1,0 L1,1 L0,1 Z M-1,1 L0,1 L0,2 L-1,2 Z M-2,2 L-1,2 L-1,3 L-2,3 Z " fill="#FFFFFF" opacity="0.38431373" transform="translate(54,112)"/>
<path d="M0,0 L1,0 L1,1 L0,1 Z " fill="#FFFFFF" opacity="0.5764706" transform="translate(145,100)"/>
<path d="M0,0 L1,0 L1,1 L0,1 Z " fill="#FFFFFF" opacity="0.9137255" transform="translate(165,50)"/>
<path d="M0,0 L1,0 L1,1 L0,1 Z M-1,1 L0,1 L0,2 L-1,2 Z M-2,2 L-1,2 L-1,3 L-2,3 Z " fill="#FFFFFF" opacity="0.19215687" transform="translate(99,44)"/>
<path d="M0,0 L1,0 L1,1 L0,1 Z " fill="#FFFFFF" opacity="0.019607844" transform="translate(39,178)"/>
<path d="M0,0 L1,0 L1,1 L0,1 Z " fill="#FFFFFF" opacity="0.3137255" transform="translate(35,178)"/>
<path d="M0,0 L1,0 L1,1 L0,1 Z " fill="#FFFFFF" opacity="0.6117647" transform="translate(31,178)"/>
<path d="M0,0 L1,0 L1,1 L0,1 Z " fill="#FFFFFF" opacity="0.7882353" transform="translate(27,178)"/>
<path d="M0,0 L1,0 L1,1 L0,1 Z " fill="#FFFFFF" opacity="0.8784314" transform="translate(25,178)"/>
<path d="M0,0 L1,0 L1,1 L0,1 Z " fill="#FFFFFF" opacity="0.56078434" transform="translate(44,177)"/>
<path d="M0,0 L1,0 L1,1 L0,1 Z " fill="#FFFFFF" opacity="0.76862746" transform="translate(42,177)"/>
<path d="M0,0 L1,0 L1,1 L0,1 Z " fill="#FFFFFF" opacity="0.43137255" transform="translate(53,176)"/>
<path d="M0,0 L1,0 L1,1 L0,1 Z " fill="#FFFFFF" opacity="0.019607844" transform="translate(57,175)"/>
<path d="M0,0 L1,0 L1,1 L0,1 Z " fill="#FFFFFF" opacity="0.7372549" transform="translate(21,173)"/>
<path d="M0,0 L1,0 L1,1 L0,1 Z " fill="#FFFFFF" opacity="0.56078434" transform="translate(21,169)"/>
<path d="M0,0 L1,0 L1,1 L0,1 Z " fill="#FFFFFF" opacity="0.3647059" transform="translate(21,165)"/>
<path d="M0,0 L1,0 L1,1 L0,1 Z M-1,1 L0,1 L0,2 L-1,2 Z " fill="#FFFFFF" opacity="0.31764707" transform="translate(71,161)"/>
<path d="M0,0 L1,0 L1,1 L0,1 Z " fill="#FFFFFF" opacity="0.101960786" transform="translate(21,161)"/>
<path d="M0,0 L1,0 L1,1 L0,1 Z M-1,1 L0,1 L0,2 L-1,2 Z " fill="#FFFFFF" opacity="0.3019608" transform="translate(75,157)"/>
<path d="M0,0 L1,0 L1,1 L0,1 Z " fill="#FFFFFF" opacity="0.6784314" transform="translate(22,157)"/>
<path d="M0,0 L1,0 L1,1 L0,1 Z M-1,1 L0,1 L0,2 L-1,2 Z " fill="#FFFFFF" opacity="0.2901961" transform="translate(78,154)"/>
<path d="M0,0 L1,0 L1,1 L0,1 Z " fill="#FFFFFF" opacity="0.1764706" transform="translate(22,153)"/>
<path d="M0,0 L1,0 L1,1 L0,1 Z M-1,1 L0,1 L0,2 L-1,2 Z " fill="#FFFFFF" opacity="0.2784314" transform="translate(81,151)"/>
<path d="M0,0 L1,0 L1,1 L0,1 Z M-1,1 L0,1 L0,2 L-1,2 Z " fill="#FFFFFF" opacity="0.25882354" transform="translate(87,145)"/>
<path d="M0,0 L1,0 L1,1 L0,1 Z " fill="#FFFFFF" opacity="0.40392157" transform="translate(23,145)"/>
<path d="M0,0 L1,0 L1,1 L0,1 Z M-1,1 L0,1 L0,2 L-1,2 Z " fill="#FFFFFF" opacity="0.24705882" transform="translate(90,142)"/>
<path d="M0,0 L1,0 L1,1 L0,1 Z M-1,1 L0,1 L0,2 L-1,2 Z " fill="#FFFFFF" opacity="0.23921569" transform="translate(93,139)"/>
<path d="M0,0 L1,0 L1,1 L0,1 Z M-1,1 L0,1 L0,2 L-1,2 Z " fill="#FFFFFF" opacity="0.3372549" transform="translate(27,139)"/>
<path d="M0,0 L1,0 L1,1 L0,1 Z M-1,1 L0,1 L0,2 L-1,2 Z " fill="#FFFFFF" opacity="0.24313726" transform="translate(95,137)"/>
<path d="M0,0 L1,0 L1,1 L0,1 Z M-1,1 L0,1 L0,2 L-1,2 Z " fill="#FFFFFF" opacity="0.24705882" transform="translate(97,135)"/>
<path d="M0,0 L1,0 L1,1 L0,1 Z M-1,1 L0,1 L0,2 L-1,2 Z " fill="#FFFFFF" opacity="0.34509805" transform="translate(32,134)"/>
<path d="M0,0 L1,0 L1,1 L0,1 Z M-1,1 L0,1 L0,2 L-1,2 Z " fill="#FFFFFF" opacity="0.34901962" transform="translate(34,132)"/>
<path d="M0,0 L1,0 L1,1 L0,1 Z M-1,1 L0,1 L0,2 L-1,2 Z " fill="#FFFFFF" opacity="0.25882354" transform="translate(101,131)"/>
<path d="M0,0 L1,0 L1,1 L0,1 Z M-1,1 L0,1 L0,2 L-1,2 Z " fill="#FFFFFF" opacity="0.3529412" transform="translate(36,130)"/>
<path d="M0,0 L1,0 L1,1 L0,1 Z M-1,1 L0,1 L0,2 L-1,2 Z " fill="#FFFFFF" opacity="0.2627451" transform="translate(103,129)"/>
<path d="M0,0 L1,0 L1,1 L0,1 Z M-1,1 L0,1 L0,2 L-1,2 Z " fill="#FFFFFF" opacity="0.35686275" transform="translate(38,128)"/>
<path d="M0,0 L1,0 L1,1 L0,1 Z M-1,1 L0,1 L0,2 L-1,2 Z " fill="#FFFFFF" opacity="0.27058825" transform="translate(106,126)"/>
<path d="M0,0 L1,0 L1,1 L0,1 Z M-1,1 L0,1 L0,2 L-1,2 Z " fill="#FFFFFF" opacity="0.2784314" transform="translate(109,123)"/>
<path d="M0,0 L1,0 L1,1 L0,1 Z M-1,1 L0,1 L0,2 L-1,2 Z " fill="#FFFFFF" opacity="0.3647059" transform="translate(43,123)"/>
<path d="M0,0 L1,0 L1,1 L0,1 Z M-1,1 L0,1 L0,2 L-1,2 Z " fill="#FFFFFF" opacity="0.36862746" transform="translate(45,121)"/>
<path d="M0,0 L1,0 L1,1 L0,1 Z M-1,1 L0,1 L0,2 L-1,2 Z " fill="#FFFFFF" opacity="0.2901961" transform="translate(113,119)"/>
<path d="M0,0 L1,0 L1,1 L0,1 Z M-1,1 L0,1 L0,2 L-1,2 Z " fill="#FFFFFF" opacity="0.37254903" transform="translate(47,119)"/>
<path d="M0,0 L1,0 L1,1 L0,1 Z M-1,1 L0,1 L0,2 L-1,2 Z " fill="#FFFFFF" opacity="0.3764706" transform="translate(49,117)"/>
<path d="M0,0 L1,0 L1,1 L0,1 Z M-1,1 L0,1 L0,2 L-1,2 Z " fill="#FFFFFF" opacity="0.29803923" transform="translate(116,116)"/>
<path d="M0,0 L1,0 L1,1 L0,1 Z M-1,1 L0,1 L0,2 L-1,2 Z " fill="#FFFFFF" opacity="0.38039216" transform="translate(51,115)"/>
<path d="M0,0 L1,0 L1,1 L0,1 Z M-1,1 L0,1 L0,2 L-1,2 Z " fill="#FFFFFF" opacity="0.3019608" transform="translate(118,114)"/>
<path d="M0,0 L1,0 L1,1 L0,1 Z M-1,1 L0,1 L0,2 L-1,2 Z " fill="#FFFFFF" opacity="0.3882353" transform="translate(56,110)"/>
<path d="M0,0 L1,0 L1,1 L0,1 Z M-1,1 L0,1 L0,2 L-1,2 Z " fill="#FFFFFF" opacity="0.39215687" transform="translate(58,108)"/>
<path d="M0,0 L1,0 L1,1 L0,1 Z M-1,1 L0,1 L0,2 L-1,2 Z " fill="#FFFFFF" opacity="0.39607844" transform="translate(60,106)"/>
<path d="M0,0 L1,0 L1,1 L0,1 Z M-1,1 L0,1 L0,2 L-1,2 Z " fill="#FFFFFF" opacity="0.4" transform="translate(62,104)"/>
<path d="M0,0 L1,0 L1,1 L0,1 Z " fill="#FFFFFF" opacity="0.6156863" transform="translate(147,102)"/>
<path d="M0,0 L1,0 L1,1 L0,1 Z M-1,1 L0,1 L0,2 L-1,2 Z " fill="#FFFFFF" opacity="0.40392157" transform="translate(64,102)"/>
<path d="M0,0 L1,0 L1,1 L0,1 Z M-1,1 L0,1 L0,2 L-1,2 Z " fill="#FFFFFF" opacity="0.40784314" transform="translate(66,100)"/>
<path d="M0,0 L1,0 L1,1 L0,1 Z M-1,1 L0,1 L0,2 L-1,2 Z " fill="#FFFFFF" opacity="0.4117647" transform="translate(68,98)"/>
<path d="M0,0 L1,0 L1,1 L0,1 Z M-1,1 L0,1 L0,2 L-1,2 Z " fill="#FFFFFF" opacity="0.41568628" transform="translate(70,96)"/>
<path d="M0,0 L1,0 L1,1 L0,1 Z " fill="#FFFFFF" opacity="0.6156863" transform="translate(139,94)"/>
<path d="M0,0 L1,0 L1,1 L0,1 Z " fill="#FFFFFF" opacity="0.02745098" transform="translate(161,93)"/>
<path d="M0,0 L1,0 L1,1 L0,1 Z " fill="#FFFFFF" opacity="0.93333334" transform="translate(160,92)"/>
<path d="M0,0 L1,0 L1,1 L0,1 Z " fill="#FFFFFF" opacity="0.4745098" transform="translate(142,73)"/>
<path d="M0,0 L1,0 L1,1 L0,1 Z " fill="#FFFFFF" opacity="0.011764706" transform="translate(104,61)"/>
<path d="M0,0 L1,0 L1,1 L0,1 Z " fill="#FFFFFF" opacity="0.9843137" transform="translate(125,57)"/>
<path d="M0,0 L1,0 L1,1 L0,1 Z M1,1 L2,1 L2,2 L1,2 Z " fill="#FFFFFF" opacity="0.49803922" transform="translate(121,52)"/>
<path d="M0,0 L1,0 L1,1 L0,1 Z " fill="#FFFFFF" opacity="0.039215688" transform="translate(169,51)"/>
<path d="M0,0 L1,0 L1,1 L0,1 Z " fill="#FFFFFF" opacity="0.69803923" transform="translate(96,48)"/>
<path d="M0,0 L1,0 L1,1 L0,1 Z " fill="#FFFFFF" opacity="0.85882354" transform="translate(178,42)"/>
<path d="M0,0 L1,0 L1,1 L0,1 Z " fill="#FFFFFF" opacity="0.8117647" transform="translate(105,39)"/>
<path d="M0,0 L1,0 L1,1 L0,1 Z " fill="#FFFFFF" opacity="0.7019608" transform="translate(178,38)"/>
<path d="M0,0 L1,0 L1,1 L0,1 Z " fill="#FFFFFF" opacity="0.007843138" transform="translate(107,38)"/>
<path d="M0,0 L1,0 L1,1 L0,1 Z " fill="#FFFFFF" opacity="0.62352943" transform="translate(178,36)"/>
<path d="M0,0 L1,0 L1,1 L0,1 Z " fill="#FFFFFF" opacity="0.1254902" transform="translate(148,31)"/>
<path d="M0,0 L1,0 L1,1 L0,1 Z " fill="#FFFFFF" opacity="0.20784314" transform="translate(148,29)"/>
<path d="M0,0 L1,0 L1,1 L0,1 Z " fill="#FFFFFF" opacity="0.5058824" transform="translate(178,27)"/>
<path d="M0,0 L1,0 L1,1 L0,1 Z " fill="#FFFFFF" opacity="0.2901961" transform="translate(148,27)"/>
<path d="M0,0 L1,0 L1,1 L0,1 Z " fill="#FFFFFF" opacity="0.5254902" transform="translate(178,23)"/>
<path d="M0,0 L1,0 L1,1 L0,1 Z " fill="#FFFFFF" opacity="0.30980393" transform="translate(148,23)"/>
<path d="M0,0 L1,0 L1,1 L0,1 Z " fill="#FFFFFF" opacity="0.9019608" transform="translate(157,21)"/>
<path d="M0,0 L1,0 L1,1 L0,1 Z " fill="#FFFFFF" opacity="0.9490196" transform="translate(155,21)"/>
<path d="M0,0 L1,0 L1,1 L0,1 Z " fill="#FFFFFF" opacity="0.7176471" transform="translate(150,21)"/>
<path d="M0,0 L1,0 L1,1 L0,1 Z " fill="#FFFFFF" opacity="0.08627451" transform="translate(38,178)"/>
<path d="M0,0 L1,0 L1,1 L0,1 Z " fill="#FFFFFF" opacity="0.23921569" transform="translate(36,178)"/>
<path d="M0,0 L1,0 L1,1 L0,1 Z " fill="#FFFFFF" opacity="0.39215687" transform="translate(34,178)"/>
<path d="M0,0 L1,0 L1,1 L0,1 Z " fill="#FFFFFF" opacity="0.5411765" transform="translate(32,178)"/>
<path d="M0,0 L1,0 L1,1 L0,1 Z " fill="#FFFFFF" opacity="0.654902" transform="translate(30,178)"/>
<path d="M0,0 L1,0 L1,1 L0,1 Z " fill="#FFFFFF" opacity="0.7411765" transform="translate(28,178)"/>
<path d="M0,0 L1,0 L1,1 L0,1 Z " fill="#FFFFFF" opacity="0.83137256" transform="translate(26,178)"/>
<path d="M0,0 L1,0 L1,1 L0,1 Z " fill="#FFFFFF" opacity="0.92156863" transform="translate(24,178)"/>
<path d="M0,0 L1,0 L1,1 L0,1 Z " fill="#FFFFFF" opacity="0.96862745" transform="translate(23,178)"/>
<path d="M0,0 L1,0 L1,1 L0,1 Z " fill="#FFFFFF" opacity="0.99607843" transform="translate(22,178)"/>
<path d="M0,0 L1,0 L1,1 L0,1 Z " fill="#FFFFFF" opacity="0.6784314" transform="translate(21,178)"/>
<path d="M0,0 L1,0 L1,1 L0,1 Z " fill="#FFFFFF" opacity="0.039215688" transform="translate(49,177)"/>
<path d="M0,0 L1,0 L1,1 L0,1 Z " fill="#FFFFFF" opacity="0.24705882" transform="translate(47,177)"/>
<path d="M0,0 L1,0 L1,1 L0,1 Z " fill="#FFFFFF" opacity="0.45490196" transform="translate(45,177)"/>
<path d="M0,0 L1,0 L1,1 L0,1 Z " fill="#FFFFFF" opacity="0.6627451" transform="translate(43,177)"/>
<path d="M0,0 L1,0 L1,1 L0,1 Z " fill="#FFFFFF" opacity="0.8666667" transform="translate(41,177)"/>
<path d="M0,0 L1,0 L1,1 L0,1 Z " fill="#FFFFFF" opacity="0.9411765" transform="translate(40,177)"/>
<path d="M0,0 L1,0 L1,1 L0,1 Z " fill="#FFFFFF" opacity="0.19215687" transform="translate(54,176)"/>
<path d="M0,0 L1,0 L1,1 L0,1 Z " fill="#FFFFFF" opacity="0.64705884" transform="translate(52,176)"/>
<path d="M0,0 L1,0 L1,1 L0,1 Z " fill="#FFFFFF" opacity="0.83137256" transform="translate(51,176)"/>
<path d="M0,0 L1,0 L1,1 L0,1 Z " fill="#FFFFFF" opacity="0.93333334" transform="translate(50,176)"/>
<path d="M0,0 L1,0 L1,1 L0,1 Z " fill="#FFFFFF" opacity="0.87058824" transform="translate(21,176)"/>
<path d="M0,0 L1,0 L1,1 L0,1 Z " fill="#FFFFFF" opacity="0.38039216" transform="translate(56,175)"/>
<path d="M0,0 L1,0 L1,1 L0,1 Z " fill="#FFFFFF" opacity="0.8039216" transform="translate(55,175)"/>
<path d="M0,0 L1,0 L1,1 L0,1 Z " fill="#FFFFFF" opacity="0.16862746" transform="translate(58,174)"/>
<path d="M0,0 L1,0 L1,1 L0,1 Z " fill="#FFFFFF" opacity="0.8" transform="translate(57,174)"/>
<path d="M0,0 L1,0 L1,1 L0,1 Z " fill="#FFFFFF" opacity="0.78039217" transform="translate(21,174)"/>
<path d="M0,0 L1,0 L1,1 L0,1 Z " fill="#FFFFFF" opacity="0.34509805" transform="translate(59,173)"/>
<path d="M0,0 L1,0 L1,1 L0,1 Z " fill="#FFFFFF" opacity="0.9764706" transform="translate(58,173)"/>
<path d="M0,0 L1,0 L1,1 L0,1 Z " fill="#FFFFFF" opacity="0.38039216" transform="translate(60,172)"/>
<path d="M0,0 L1,0 L1,1 L0,1 Z " fill="#FFFFFF" opacity="0.99607843" transform="translate(59,172)"/>
<path d="M0,0 L1,0 L1,1 L0,1 Z " fill="#FFFFFF" opacity="0.69411767" transform="translate(21,172)"/>
<path d="M0,0 L1,0 L1,1 L0,1 Z " fill="#FFFFFF" opacity="0.38431373" transform="translate(61,171)"/>
<path d="M0,0 L1,0 L1,1 L0,1 Z " fill="#FFFFFF" opacity="0.34509805" transform="translate(62,170)"/>
<path d="M0,0 L1,0 L1,1 L0,1 Z " fill="#FFFFFF" opacity="0.99607843" transform="translate(61,170)"/>
<path d="M0,0 L1,0 L1,1 L0,1 Z " fill="#FFFFFF" opacity="0.6039216" transform="translate(21,170)"/>
<path d="M0,0 L1,0 L1,1 L0,1 Z " fill="#FFFFFF" opacity="0.30588236" transform="translate(63,169)"/>
<path d="M0,0 L1,0 L1,1 L0,1 Z " fill="#FFFFFF" opacity="0.9882353" transform="translate(62,169)"/>
<path d="M0,0 L1,0 L1,1 L0,1 Z " fill="#FFFFFF" opacity="0.27450982" transform="translate(64,168)"/>
<path d="M0,0 L1,0 L1,1 L0,1 Z " fill="#FFFFFF" opacity="0.9764706" transform="translate(63,168)"/>
<path d="M0,0 L1,0 L1,1 L0,1 Z " fill="#FFFFFF" opacity="0.5176471" transform="translate(21,168)"/>
<path d="M0,0 L1,0 L1,1 L0,1 Z " fill="#FFFFFF" opacity="0.24313726" transform="translate(65,167)"/>
<path d="M0,0 L1,0 L1,1 L0,1 Z " fill="#FFFFFF" opacity="0.9647059" transform="translate(64,167)"/>
<path d="M0,0 L1,0 L1,1 L0,1 Z " fill="#FFFFFF" opacity="0.24705882" transform="translate(66,166)"/>
<path d="M0,0 L1,0 L1,1 L0,1 Z " fill="#FFFFFF" opacity="0.95686275" transform="translate(65,166)"/>
<path d="M0,0 L1,0 L1,1 L0,1 Z " fill="#FFFFFF" opacity="0.42352942" transform="translate(21,166)"/>
<path d="M0,0 L1,0 L1,1 L0,1 Z " fill="#FFFFFF" opacity="0.26666668" transform="translate(67,165)"/>
<path d="M0,0 L1,0 L1,1 L0,1 Z " fill="#FFFFFF" opacity="0.9647059" transform="translate(66,165)"/>
<path d="M0,0 L1,0 L1,1 L0,1 Z " fill="#FFFFFF" opacity="0.28235295" transform="translate(68,164)"/>
<path d="M0,0 L1,0 L1,1 L0,1 Z " fill="#FFFFFF" opacity="0.972549" transform="translate(67,164)"/>
<path d="M0,0 L1,0 L1,1 L0,1 Z " fill="#FFFFFF" opacity="0.29803923" transform="translate(21,164)"/>
<path d="M0,0 L1,0 L1,1 L0,1 Z " fill="#FFFFFF" opacity="0.3019608" transform="translate(69,163)"/>
<path d="M0,0 L1,0 L1,1 L0,1 Z " fill="#FFFFFF" opacity="0.9764706" transform="translate(68,163)"/>
<path d="M0,0 L1,0 L1,1 L0,1 Z " fill="#FFFFFF" opacity="0.16862746" transform="translate(21,162)"/>
<path d="M0,0 L1,0 L1,1 L0,1 Z " fill="#FFFFFF" opacity="0.30980393" transform="translate(72,160)"/>
<path d="M0,0 L1,0 L1,1 L0,1 Z " fill="#FFFFFF" opacity="0.02745098" transform="translate(21,160)"/>
<path d="M0,0 L1,0 L1,1 L0,1 Z " fill="#FFFFFF" opacity="0.30588236" transform="translate(73,159)"/>
<path d="M0,0 L1,0 L1,1 L0,1 Z " fill="#FFFFFF" opacity="0.79607844" transform="translate(22,158)"/>
<path d="M0,0 L1,0 L1,1 L0,1 Z " fill="#FFFFFF" opacity="0.29411766" transform="translate(76,156)"/>
<path d="M0,0 L1,0 L1,1 L0,1 Z " fill="#FFFFFF" opacity="0.56078434" transform="translate(22,156)"/>
<path d="M0,0 L1,0 L1,1 L0,1 Z " fill="#FFFFFF" opacity="0.3137255" transform="translate(22,154)"/>
<path d="M0,0 L1,0 L1,1 L0,1 Z " fill="#FFFFFF" opacity="0.28627452" transform="translate(79,153)"/>
<path d="M0,0 L1,0 L1,1 L0,1 Z " fill="#FFFFFF" opacity="0.039215688" transform="translate(22,152)"/>
<path d="M0,0 L1,0 L1,1 L0,1 Z " fill="#FFFFFF" opacity="0.9019608" transform="translate(23,151)"/>
<path d="M0,0 L1,0 L1,1 L0,1 Z " fill="#FFFFFF" opacity="0.27450982" transform="translate(82,150)"/>
<path d="M0,0 L1,0 L1,1 L0,1 Z " fill="#FFFFFF" opacity="0.78431374" transform="translate(23,150)"/>
<path d="M0,0 L1,0 L1,1 L0,1 Z " fill="#FFFFFF" opacity="0.27058825" transform="translate(83,149)"/>
<path d="M0,0 L1,0 L1,1 L0,1 Z " fill="#FFFFFF" opacity="0.26666668" transform="translate(84,148)"/>
<path d="M0,0 L1,0 L1,1 L0,1 Z " fill="#FFFFFF" opacity="0.64705884" transform="translate(23,148)"/>
<path d="M0,0 L1,0 L1,1 L0,1 Z " fill="#FFFFFF" opacity="0.2627451" transform="translate(85,147)"/>
<path d="M0,0 L1,0 L1,1 L0,1 Z " fill="#FFFFFF" opacity="0.50980395" transform="translate(23,146)"/>
<path d="M0,0 L1,0 L1,1 L0,1 Z " fill="#FFFFFF" opacity="0.2509804" transform="translate(88,144)"/>
<path d="M0,0 L1,0 L1,1 L0,1 Z " fill="#FFFFFF" opacity="0.16078432" transform="translate(23,144)"/>
<path d="M0,0 L1,0 L1,1 L0,1 Z " fill="#FFFFFF" opacity="0.70980394" transform="translate(24,143)"/>
<path d="M0,0 L1,0 L1,1 L0,1 Z " fill="#FFFFFF" opacity="0.09803922" transform="translate(24,142)"/>
<path d="M0,0 L1,0 L1,1 L0,1 Z " fill="#FFFFFF" opacity="0.24313726" transform="translate(91,141)"/>
<path d="M0,0 L1,0 L1,1 L0,1 Z " fill="#FFFFFF" opacity="0.29803923" transform="translate(25,141)"/>
<path d="M0,0 L1,0 L1,1 L0,1 Z " fill="#FFFFFF" opacity="0.2509804" transform="translate(98,134)"/>
<path d="M0,0 L1,0 L1,1 L0,1 Z " fill="#FFFFFF" opacity="0.25490198" transform="translate(99,133)"/>
<path d="M0,0 L1,0 L1,1 L0,1 Z " fill="#FFFFFF" opacity="0.26666668" transform="translate(104,128)"/>
<path d="M0,0 L1,0 L1,1 L0,1 Z " fill="#FFFFFF" opacity="0.27450982" transform="translate(107,125)"/>
<path d="M0,0 L1,0 L1,1 L0,1 Z " fill="#FFFFFF" opacity="0.28235295" transform="translate(110,122)"/>
<path d="M0,0 L1,0 L1,1 L0,1 Z " fill="#FFFFFF" opacity="0.28627452" transform="translate(111,121)"/>
<path d="M0,0 L1,0 L1,1 L0,1 Z " fill="#FFFFFF" opacity="0.29411766" transform="translate(114,118)"/>
<path d="M0,0 L1,0 L1,1 L0,1 Z " fill="#FFFFFF" opacity="0.30588236" transform="translate(119,113)"/>
<path d="M0,0 L1,0 L1,1 L0,1 Z " fill="#FFFFFF" opacity="0.29803923" transform="translate(120,112)"/>
<path d="M0,0 L1,0 L1,1 L0,1 Z " fill="#FFFFFF" opacity="0.2901961" transform="translate(121,111)"/>
<path d="M0,0 L1,0 L1,1 L0,1 Z " fill="#FFFFFF" opacity="0.28235295" transform="translate(122,110)"/>
<path d="M0,0 L1,0 L1,1 L0,1 Z " fill="#FFFFFF" opacity="0.27450982" transform="translate(123,109)"/>
<path d="M0,0 L1,0 L1,1 L0,1 Z " fill="#FFFFFF" opacity="0.972549" transform="translate(122,109)"/>
<path d="M0,0 L1,0 L1,1 L0,1 Z " fill="#FFFFFF" opacity="0.2627451" transform="translate(124,108)"/>
<path d="M0,0 L1,0 L1,1 L0,1 Z " fill="#FFFFFF" opacity="0.96862745" transform="translate(123,108)"/>
<path d="M0,0 L1,0 L1,1 L0,1 Z " fill="#FFFFFF" opacity="0.25882354" transform="translate(125,107)"/>
<path d="M0,0 L1,0 L1,1 L0,1 Z " fill="#FFFFFF" opacity="0.2509804" transform="translate(126,106)"/>
<path d="M0,0 L1,0 L1,1 L0,1 Z " fill="#FFFFFF" opacity="0.24313726" transform="translate(127,105)"/>
<path d="M0,0 L1,0 L1,1 L0,1 Z " fill="#FFFFFF" opacity="0.9607843" transform="translate(126,105)"/>
<path d="M0,0 L1,0 L1,1 L0,1 Z " fill="#FFFFFF" opacity="0.23529412" transform="translate(128,104)"/>
<path d="M0,0 L1,0 L1,1 L0,1 Z " fill="#FFFFFF" opacity="0.95686275" transform="translate(127,104)"/>
<path d="M0,0 L1,0 L1,1 L0,1 Z " fill="#FFFFFF" opacity="0.015686275" transform="translate(152,103)"/>
<path d="M0,0 L1,0 L1,1 L0,1 Z " fill="#FFFFFF" opacity="0.4509804" transform="translate(151,103)"/>
<path d="M0,0 L1,0 L1,1 L0,1 Z " fill="#FFFFFF" opacity="0.7411765" transform="translate(150,103)"/>
<path d="M0,0 L1,0 L1,1 L0,1 Z " fill="#FFFFFF" opacity="0.3372549" transform="translate(148,103)"/>
<path d="M0,0 L1,0 L1,1 L0,1 Z " fill="#FFFFFF" opacity="0.22745098" transform="translate(129,103)"/>
<path d="M0,0 L1,0 L1,1 L0,1 Z " fill="#FFFFFF" opacity="0.9529412" transform="translate(128,103)"/>
<path d="M0,0 L1,0 L1,1 L0,1 Z " fill="#FFFFFF" opacity="0.078431375" transform="translate(153,102)"/>
<path d="M0,0 L1,0 L1,1 L0,1 Z " fill="#FFFFFF" opacity="0.78431374" transform="translate(152,102)"/>
<path d="M0,0 L1,0 L1,1 L0,1 Z " fill="#FFFFFF" opacity="0.019607844" transform="translate(146,102)"/>
<path d="M0,0 L1,0 L1,1 L0,1 Z " fill="#FFFFFF" opacity="0.21960784" transform="translate(130,102)"/>
<path d="M0,0 L1,0 L1,1 L0,1 Z " fill="#FFFFFF" opacity="0.9490196" transform="translate(129,102)"/>
<path d="M0,0 L1,0 L1,1 L0,1 Z " fill="#FFFFFF" opacity="0.09803922" transform="translate(154,101)"/>
<path d="M0,0 L1,0 L1,1 L0,1 Z " fill="#FFFFFF" opacity="0.8352941" transform="translate(153,101)"/>
<path d="M0,0 L1,0 L1,1 L0,1 Z " fill="#FFFFFF" opacity="0.6431373" transform="translate(146,101)"/>
<path d="M0,0 L1,0 L1,1 L0,1 Z " fill="#FFFFFF" opacity="0.007843138" transform="translate(145,101)"/>
<path d="M0,0 L1,0 L1,1 L0,1 Z " fill="#FFFFFF" opacity="0.21176471" transform="translate(131,101)"/>
<path d="M0,0 L1,0 L1,1 L0,1 Z " fill="#FFFFFF" opacity="0.94509804" transform="translate(130,101)"/>
<path d="M0,0 L1,0 L1,1 L0,1 Z " fill="#FFFFFF" opacity="0.11372549" transform="translate(155,100)"/>
<path d="M0,0 L1,0 L1,1 L0,1 Z " fill="#FFFFFF" opacity="0.85882354" transform="translate(154,100)"/>
<path d="M0,0 L1,0 L1,1 L0,1 Z " fill="#FFFFFF" opacity="0.003921569" transform="translate(144,100)"/>
<path d="M0,0 L1,0 L1,1 L0,1 Z " fill="#FFFFFF" opacity="0.20392157" transform="translate(132,100)"/>
<path d="M0,0 L1,0 L1,1 L0,1 Z " fill="#FFFFFF" opacity="0.9411765" transform="translate(131,100)"/>
<path d="M0,0 L1,0 L1,1 L0,1 Z " fill="#FFFFFF" opacity="0.13725491" transform="translate(156,99)"/>
<path d="M0,0 L1,0 L1,1 L0,1 Z " fill="#FFFFFF" opacity="0.8784314" transform="translate(155,99)"/>
<path d="M0,0 L1,0 L1,1 L0,1 Z " fill="#FFFFFF" opacity="0.5058824" transform="translate(144,99)"/>
<path d="M0,0 L1,0 L1,1 L0,1 Z " fill="#FFFFFF" opacity="0.19607843" transform="translate(133,99)"/>
<path d="M0,0 L1,0 L1,1 L0,1 Z " fill="#FFFFFF" opacity="0.9372549" transform="translate(132,99)"/>
<path d="M0,0 L1,0 L1,1 L0,1 Z " fill="#FFFFFF" opacity="0.12941177" transform="translate(157,98)"/>
<path d="M0,0 L1,0 L1,1 L0,1 Z " fill="#FFFFFF" opacity="0.8901961" transform="translate(156,98)"/>
<path d="M0,0 L1,0 L1,1 L0,1 Z " fill="#FFFFFF" opacity="0.44313726" transform="translate(143,98)"/>
<path d="M0,0 L1,0 L1,1 L0,1 Z " fill="#FFFFFF" opacity="0.19215687" transform="translate(134,98)"/>
<path d="M0,0 L1,0 L1,1 L0,1 Z " fill="#FFFFFF" opacity="0.93333334" transform="translate(133,98)"/>
<path d="M0,0 L1,0 L1,1 L0,1 Z " fill="#FFFFFF" opacity="0.10980392" transform="translate(158,97)"/>
<path d="M0,0 L1,0 L1,1 L0,1 Z " fill="#FFFFFF" opacity="0.8745098" transform="translate(157,97)"/>
<path d="M0,0 L1,0 L1,1 L0,1 Z " fill="#FFFFFF" opacity="0.42745098" transform="translate(142,97)"/>
<path d="M0,0 L1,0 L1,1 L0,1 Z " fill="#FFFFFF" opacity="0.18431373" transform="translate(135,97)"/>
<path d="M0,0 L1,0 L1,1 L0,1 Z " fill="#FFFFFF" opacity="0.92941177" transform="translate(134,97)"/>
<path d="M0,0 L1,0 L1,1 L0,1 Z " fill="#FFFFFF" opacity="0.09411765" transform="translate(159,96)"/>
<path d="M0,0 L1,0 L1,1 L0,1 Z " fill="#FFFFFF" opacity="0.8509804" transform="translate(158,96)"/>
<path d="M0,0 L1,0 L1,1 L0,1 Z " fill="#FFFFFF" opacity="0.41960785" transform="translate(141,96)"/>
<path d="M0,0 L1,0 L1,1 L0,1 Z " fill="#FFFFFF" opacity="0.1764706" transform="translate(136,96)"/>
<path d="M0,0 L1,0 L1,1 L0,1 Z " fill="#FFFFFF" opacity="0.9254902" transform="translate(135,96)"/>
<path d="M0,0 L1,0 L1,1 L0,1 Z " fill="#FFFFFF" opacity="0.078431375" transform="translate(160,95)"/>
<path d="M0,0 L1,0 L1,1 L0,1 Z " fill="#FFFFFF" opacity="0.83137256" transform="translate(159,95)"/>
<path d="M0,0 L1,0 L1,1 L0,1 Z " fill="#FFFFFF" opacity="0.40784314" transform="translate(140,95)"/>
<path d="M0,0 L1,0 L1,1 L0,1 Z " fill="#FFFFFF" opacity="0.17254902" transform="translate(137,95)"/>
<path d="M0,0 L1,0 L1,1 L0,1 Z " fill="#FFFFFF" opacity="0.92156863" transform="translate(136,95)"/>
<path d="M0,0 L1,0 L1,1 L0,1 Z " fill="#FFFFFF" opacity="0.41960785" transform="translate(71,95)"/>
<path d="M0,0 L1,0 L1,1 L0,1 Z " fill="#FFFFFF" opacity="0.67058825" transform="translate(160,94)"/>
<path d="M0,0 L1,0 L1,1 L0,1 Z " fill="#FFFFFF" opacity="0.38431373" transform="translate(138,94)"/>
<path d="M0,0 L1,0 L1,1 L0,1 Z " fill="#FFFFFF" opacity="0.9254902" transform="translate(137,94)"/>
<path d="M0,0 L1,0 L1,1 L0,1 Z " fill="#FFFFFF" opacity="0.42745098" transform="translate(72,94)"/>
<path d="M0,0 L1,0 L1,1 L0,1 Z " fill="#FFFFFF" opacity="0.9843137" transform="translate(160,93)"/>
<path d="M0,0 L1,0 L1,1 L0,1 Z " fill="#FFFFFF" opacity="0.43137255" transform="translate(73,93)"/>
<path d="M0,0 L1,0 L1,1 L0,1 Z " fill="#FFFFFF" opacity="0.003921569" transform="translate(161,92)"/>
<path d="M0,0 L1,0 L1,1 L0,1 Z " fill="#FFFFFF" opacity="0.4392157" transform="translate(74,92)"/>
<path d="M0,0 L1,0 L1,1 L0,1 Z " fill="#FFFFFF" opacity="0.38039216" transform="translate(160,91)"/>
<path d="M0,0 L1,0 L1,1 L0,1 Z " fill="#FFFFFF" opacity="0.44313726" transform="translate(75,91)"/>
<path d="M0,0 L1,0 L1,1 L0,1 Z " fill="#FFFFFF" opacity="0.44705883" transform="translate(76,90)"/>
<path d="M0,0 L1,0 L1,1 L0,1 Z " fill="#FFFFFF" opacity="0.45490196" transform="translate(77,89)"/>
<path d="M0,0 L1,0 L1,1 L0,1 Z " fill="#FFFFFF" opacity="0.45882353" transform="translate(78,88)"/>
<path d="M0,0 L1,0 L1,1 L0,1 Z " fill="#FFFFFF" opacity="0.46666667" transform="translate(79,87)"/>
<path d="M0,0 L1,0 L1,1 L0,1 Z " fill="#FFFFFF" opacity="0.47058824" transform="translate(80,86)"/>
<path d="M0,0 L1,0 L1,1 L0,1 Z " fill="#FFFFFF" opacity="0.47843137" transform="translate(81,85)"/>
<path d="M0,0 L1,0 L1,1 L0,1 Z " fill="#FFFFFF" opacity="0.48235294" transform="translate(82,84)"/>
<path d="M0,0 L1,0 L1,1 L0,1 Z " fill="#FFFFFF" opacity="0.49019608" transform="translate(83,83)"/>
<path d="M0,0 L1,0 L1,1 L0,1 Z " fill="#FFFFFF" opacity="0.4117647" transform="translate(151,82)"/>
<path d="M0,0 L1,0 L1,1 L0,1 Z " fill="#FFFFFF" opacity="0.49411765" transform="translate(84,82)"/>
<path d="M0,0 L1,0 L1,1 L0,1 Z " fill="#FFFFFF" opacity="0.49803922" transform="translate(85,81)"/>
<path d="M0,0 L1,0 L1,1 L0,1 Z " fill="#FFFFFF" opacity="0.5058824" transform="translate(86,80)"/>
<path d="M0,0 L1,0 L1,1 L0,1 Z " fill="#FFFFFF" opacity="0.50980395" transform="translate(87,79)"/>
<path d="M0,0 L1,0 L1,1 L0,1 Z " fill="#FFFFFF" opacity="0.5176471" transform="translate(88,78)"/>
<path d="M0,0 L1,0 L1,1 L0,1 Z " fill="#FFFFFF" opacity="0.52156866" transform="translate(89,77)"/>
<path d="M0,0 L1,0 L1,1 L0,1 Z " fill="#FFFFFF" opacity="0.5294118" transform="translate(90,76)"/>
<path d="M0,0 L1,0 L1,1 L0,1 Z " fill="#FFFFFF" opacity="0.5372549" transform="translate(91,75)"/>
<path d="M0,0 L1,0 L1,1 L0,1 Z " fill="#FFFFFF" opacity="0.5411765" transform="translate(92,74)"/>
<path d="M0,0 L1,0 L1,1 L0,1 Z " fill="#FFFFFF" opacity="0.54901963" transform="translate(93,73)"/>
<path d="M0,0 L1,0 L1,1 L0,1 Z " fill="#FFFFFF" opacity="0.16470589" transform="translate(142,72)"/>
<path d="M0,0 L1,0 L1,1 L0,1 Z " fill="#FFFFFF" opacity="0.5529412" transform="translate(94,72)"/>
<path d="M0,0 L1,0 L1,1 L0,1 Z " fill="#FFFFFF" opacity="0.81960785" transform="translate(142,71)"/>
<path d="M0,0 L1,0 L1,1 L0,1 Z " fill="#FFFFFF" opacity="0.56078434" transform="translate(95,71)"/>
<path d="M0,0 L1,0 L1,1 L0,1 Z " fill="#FFFFFF" opacity="0.5647059" transform="translate(96,70)"/>
<path d="M0,0 L1,0 L1,1 L0,1 Z " fill="#FFFFFF" opacity="0.5686275" transform="translate(97,69)"/>
<path d="M0,0 L1,0 L1,1 L0,1 Z " fill="#FFFFFF" opacity="0.5764706" transform="translate(98,68)"/>
<path d="M0,0 L1,0 L1,1 L0,1 Z " fill="#FFFFFF" opacity="0.5803922" transform="translate(99,67)"/>
<path d="M0,0 L1,0 L1,1 L0,1 Z " fill="#FFFFFF" opacity="0.5882353" transform="translate(100,66)"/>
<path d="M0,0 L1,0 L1,1 L0,1 Z " fill="#FFFFFF" opacity="0.5921569" transform="translate(101,65)"/>
<path d="M0,0 L1,0 L1,1 L0,1 Z " fill="#FFFFFF" opacity="0.59607846" transform="translate(102,64)"/>
<path d="M0,0 L1,0 L1,1 L0,1 Z " fill="#FFFFFF" opacity="0.6039216" transform="translate(103,63)"/>
<path d="M0,0 L1,0 L1,1 L0,1 Z " fill="#FFFFFF" opacity="0.60784316" transform="translate(104,62)"/>
<path d="M0,0 L1,0 L1,1 L0,1 Z " fill="#FFFFFF" opacity="0.8039216" transform="translate(105,60)"/>
<path d="M0,0 L1,0 L1,1 L0,1 Z " fill="#FFFFFF" opacity="0.007843138" transform="translate(104,60)"/>
<path d="M0,0 L1,0 L1,1 L0,1 Z " fill="#FFFFFF" opacity="0.50980395" transform="translate(104,59)"/>
<path d="M0,0 L1,0 L1,1 L0,1 Z " fill="#FFFFFF" opacity="0.49019608" transform="translate(103,58)"/>
<path d="M0,0 L1,0 L1,1 L0,1 Z " fill="#FFFFFF" opacity="0.44705883" transform="translate(126,57)"/>
<path d="M0,0 L1,0 L1,1 L0,1 Z " fill="#FFFFFF" opacity="0.47843137" transform="translate(102,57)"/>
<path d="M0,0 L1,0 L1,1 L0,1 Z " fill="#FFFFFF" opacity="0.3372549" transform="translate(125,56)"/>
<path d="M0,0 L1,0 L1,1 L0,1 Z " fill="#FFFFFF" opacity="0.46666667" transform="translate(101,56)"/>
<path d="M0,0 L1,0 L1,1 L0,1 Z " fill="#FFFFFF" opacity="0.39215687" transform="translate(124,55)"/>
<path d="M0,0 L1,0 L1,1 L0,1 Z " fill="#FFFFFF" opacity="0.45490196" transform="translate(100,55)"/>
<path d="M0,0 L1,0 L1,1 L0,1 Z " fill="#FFFFFF" opacity="0.4509804" transform="translate(123,54)"/>
<path d="M0,0 L1,0 L1,1 L0,1 Z " fill="#FFFFFF" opacity="0.44313726" transform="translate(99,54)"/>
<path d="M0,0 L1,0 L1,1 L0,1 Z " fill="#FFFFFF" opacity="0.43137255" transform="translate(98,53)"/>
<path d="M0,0 L1,0 L1,1 L0,1 Z " fill="#FFFFFF" opacity="0.41960785" transform="translate(97,52)"/>
<path d="M0,0 L1,0 L1,1 L0,1 Z " fill="#FFFFFF" opacity="0.015686275" transform="translate(175,51)"/>
<path d="M0,0 L1,0 L1,1 L0,1 Z " fill="#FFFFFF" opacity="0.1254902" transform="translate(174,51)"/>
<path d="M0,0 L1,0 L1,1 L0,1 Z " fill="#FFFFFF" opacity="0.13725491" transform="translate(172,51)"/>
<path d="M0,0 L1,0 L1,1 L0,1 Z " fill="#FFFFFF" opacity="0.07058824" transform="translate(170,51)"/>
<path d="M0,0 L1,0 L1,1 L0,1 Z " fill="#FFFFFF" opacity="0.011764706" transform="translate(168,51)"/>
<path d="M0,0 L1,0 L1,1 L0,1 Z " fill="#FFFFFF" opacity="0.1764706" transform="translate(163,51)"/>
<path d="M0,0 L1,0 L1,1 L0,1 Z " fill="#FFFFFF" opacity="0.827451" transform="translate(162,51)"/>
<path d="M0,0 L1,0 L1,1 L0,1 Z " fill="#FFFFFF" opacity="0.49019608" transform="translate(120,51)"/>
<path d="M0,0 L1,0 L1,1 L0,1 Z " fill="#FFFFFF" opacity="0.26666668" transform="translate(96,51)"/>
<path d="M0,0 L1,0 L1,1 L0,1 Z " fill="#FFFFFF" opacity="0.2509804" transform="translate(177,50)"/>
<path d="M0,0 L1,0 L1,1 L0,1 Z " fill="#FFFFFF" opacity="0.8039216" transform="translate(176,50)"/>
<path d="M0,0 L1,0 L1,1 L0,1 Z " fill="#FFFFFF" opacity="0.9882353" transform="translate(175,50)"/>
<path d="M0,0 L1,0 L1,1 L0,1 Z " fill="#FFFFFF" opacity="0.9764706" transform="translate(167,50)"/>
<path d="M0,0 L1,0 L1,1 L0,1 Z " fill="#FFFFFF" opacity="0.94509804" transform="translate(166,50)"/>
<path d="M0,0 L1,0 L1,1 L0,1 Z " fill="#FFFFFF" opacity="0.9411765" transform="translate(164,50)"/>
<path d="M0,0 L1,0 L1,1 L0,1 Z " fill="#FFFFFF" opacity="0.48235294" transform="translate(119,50)"/>
<path d="M0,0 L1,0 L1,1 L0,1 Z " fill="#FFFFFF" opacity="0.8156863" transform="translate(96,50)"/>
<path d="M0,0 L1,0 L1,1 L0,1 Z " fill="#FFFFFF" opacity="0.22745098" transform="translate(178,49)"/>
<path d="M0,0 L1,0 L1,1 L0,1 Z " fill="#FFFFFF" opacity="0.4745098" transform="translate(118,49)"/>
<path d="M0,0 L1,0 L1,1 L0,1 Z " fill="#FFFFFF" opacity="0.003921569" transform="translate(95,49)"/>
<path d="M0,0 L1,0 L1,1 L0,1 Z " fill="#FFFFFF" opacity="0.70980394" transform="translate(178,48)"/>
<path d="M0,0 L1,0 L1,1 L0,1 Z " fill="#FFFFFF" opacity="0.47058824" transform="translate(117,48)"/>
<path d="M0,0 L1,0 L1,1 L0,1 Z " fill="#FFFFFF" opacity="0.8784314" transform="translate(178,47)"/>
<path d="M0,0 L1,0 L1,1 L0,1 Z " fill="#FFFFFF" opacity="0.4627451" transform="translate(116,47)"/>
<path d="M0,0 L1,0 L1,1 L0,1 Z " fill="#FFFFFF" opacity="0.91764706" transform="translate(97,47)"/>
<path d="M0,0 L1,0 L1,1 L0,1 Z " fill="#FFFFFF" opacity="0.11764706" transform="translate(96,47)"/>
<path d="M0,0 L1,0 L1,1 L0,1 Z " fill="#FFFFFF" opacity="0.45490196" transform="translate(115,46)"/>
<path d="M0,0 L1,0 L1,1 L0,1 Z " fill="#FFFFFF" opacity="0.92941177" transform="translate(98,46)"/>
<path d="M0,0 L1,0 L1,1 L0,1 Z " fill="#FFFFFF" opacity="0.98039216" transform="translate(178,45)"/>
<path d="M0,0 L1,0 L1,1 L0,1 Z " fill="#FFFFFF" opacity="0.44705883" transform="translate(114,45)"/>
<path d="M0,0 L1,0 L1,1 L0,1 Z " fill="#FFFFFF" opacity="0.41568628" transform="translate(140,44)"/>
<path d="M0,0 L1,0 L1,1 L0,1 Z " fill="#FFFFFF" opacity="0.44313726" transform="translate(113,44)"/>
<path d="M0,0 L1,0 L1,1 L0,1 Z " fill="#FFFFFF" opacity="0.8980392" transform="translate(178,43)"/>
<path d="M0,0 L1,0 L1,1 L0,1 Z " fill="#FFFFFF" opacity="0.4392157" transform="translate(112,43)"/>
<path d="M0,0 L1,0 L1,1 L0,1 Z " fill="#FFFFFF" opacity="0.43137255" transform="translate(111,42)"/>
<path d="M0,0 L1,0 L1,1 L0,1 Z " fill="#FFFFFF" opacity="0.81960785" transform="translate(178,41)"/>
<path d="M0,0 L1,0 L1,1 L0,1 Z " fill="#FFFFFF" opacity="0.42352942" transform="translate(110,41)"/>
<path d="M0,0 L1,0 L1,1 L0,1 Z " fill="#FFFFFF" opacity="0.41960785" transform="translate(109,40)"/>
<path d="M0,0 L1,0 L1,1 L0,1 Z " fill="#FFFFFF" opacity="0.7411765" transform="translate(178,39)"/>
<path d="M0,0 L1,0 L1,1 L0,1 Z " fill="#FFFFFF" opacity="0.3254902" transform="translate(108,39)"/>
<path d="M0,0 L1,0 L1,1 L0,1 Z " fill="#FFFFFF" opacity="0.92156863" transform="translate(107,39)"/>
<path d="M0,0 L1,0 L1,1 L0,1 Z " fill="#FFFFFF" opacity="0.15686275" transform="translate(104,39)"/>
<path d="M0,0 L1,0 L1,1 L0,1 Z " fill="#FFFFFF" opacity="0.08235294" transform="translate(106,38)"/>
<path d="M0,0 L1,0 L1,1 L0,1 Z " fill="#FFFFFF" opacity="0.6627451" transform="translate(178,37)"/>
<path d="M0,0 L1,0 L1,1 L0,1 Z " fill="#FFFFFF" opacity="0.6" transform="translate(148,36)"/>
<path d="M0,0 L1,0 L1,1 L0,1 Z " fill="#FFFFFF" opacity="0.5882353" transform="translate(178,35)"/>
<path d="M0,0 L1,0 L1,1 L0,1 Z " fill="#FFFFFF" opacity="0.16078432" transform="translate(148,35)"/>
<path d="M0,0 L1,0 L1,1 L0,1 Z " fill="#FFFFFF" opacity="0.5568628" transform="translate(178,34)"/>
<path d="M0,0 L1,0 L1,1 L0,1 Z " fill="#FFFFFF" opacity="0.023529412" transform="translate(148,34)"/>
<path d="M0,0 L1,0 L1,1 L0,1 Z " fill="#FFFFFF" opacity="0.5176471" transform="translate(178,32)"/>
<path d="M0,0 L1,0 L1,1 L0,1 Z " fill="#FFFFFF" opacity="0.08627451" transform="translate(148,32)"/>
<path d="M0,0 L1,0 L1,1 L0,1 Z " fill="#FFFFFF" opacity="0.49411765" transform="translate(178,31)"/>
<path d="M0,0 L1,0 L1,1 L0,1 Z " fill="#FFFFFF" opacity="0.4745098" transform="translate(178,30)"/>
<path d="M0,0 L1,0 L1,1 L0,1 Z " fill="#FFFFFF" opacity="0.16862746" transform="translate(148,30)"/>
<path d="M0,0 L1,0 L1,1 L0,1 Z " fill="#FFFFFF" opacity="0.47843137" transform="translate(178,28)"/>
<path d="M0,0 L1,0 L1,1 L0,1 Z " fill="#FFFFFF" opacity="0.24705882" transform="translate(148,28)"/>
<path d="M0,0 L1,0 L1,1 L0,1 Z " fill="#FFFFFF" opacity="0.5294118" transform="translate(178,26)"/>
<path d="M0,0 L1,0 L1,1 L0,1 Z " fill="#FFFFFF" opacity="0.32941177" transform="translate(148,26)"/>
<path d="M0,0 L1,0 L1,1 L0,1 Z " fill="#FFFFFF" opacity="0.58431375" transform="translate(178,24)"/>
<path d="M0,0 L1,0 L1,1 L0,1 Z " fill="#FFFFFF" opacity="0.39215687" transform="translate(148,24)"/>
<path d="M0,0 L1,0 L1,1 L0,1 Z " fill="#FFFFFF" opacity="0.24705882" transform="translate(178,22)"/>
<path d="M0,0 L1,0 L1,1 L0,1 Z " fill="#FFFFFF" opacity="0.89411765" transform="translate(149,22)"/>
<path d="M0,0 L1,0 L1,1 L0,1 Z " fill="#FFFFFF" opacity="0.05490196" transform="translate(148,22)"/>
<path d="M0,0 L1,0 L1,1 L0,1 Z " fill="#FFFFFF" opacity="0.34901962" transform="translate(177,21)"/>
<path d="M0,0 L1,0 L1,1 L0,1 Z " fill="#FFFFFF" opacity="0.78039217" transform="translate(176,21)"/>
<path d="M0,0 L1,0 L1,1 L0,1 Z " fill="#FFFFFF" opacity="0.90588236" transform="translate(175,21)"/>
<path d="M0,0 L1,0 L1,1 L0,1 Z " fill="#FFFFFF" opacity="0.9019608" transform="translate(160,21)"/>
<path d="M0,0 L1,0 L1,1 L0,1 Z " fill="#FFFFFF" opacity="0.89411765" transform="translate(158,21)"/>
<path d="M0,0 L1,0 L1,1 L0,1 Z " fill="#FFFFFF" opacity="0.9254902" transform="translate(156,21)"/>
<path d="M0,0 L1,0 L1,1 L0,1 Z " fill="#FFFFFF" opacity="0.96862745" transform="translate(154,21)"/>
<path d="M0,0 L1,0 L1,1 L0,1 Z " fill="#FFFFFF" opacity="0.99215686" transform="translate(153,21)"/>
<path d="M0,0 L1,0 L1,1 L0,1 Z " fill="#FFFFFF" opacity="0.93333334" transform="translate(151,21)"/>
<path d="M0,0 L1,0 L1,1 L0,1 Z " fill="#FFFFFF" opacity="0.16470589" transform="translate(149,21)"/>
<path d="M0,0 L1,0 L1,1 L0,1 Z " fill="#FFFFFF" opacity="0.007843138" transform="translate(152,20)"/>
</svg>
