<?xml version="1.0" encoding="UTF-8"?>
<!-- Generator: visioncortex VTracer 0.6.4 -->
<svg version="1.1" xmlns="http://www.w3.org/2000/svg" width="200" height="200">
<path d="M0,0 L2,0 L2,1 L3,1 L3,3 L5,3 L5,4 L6,4 L6,5 L7,5 L7,6 L8,6 L8,7 L9,7 L9,8 L10,8 L10,9 L11,9 L11,10 L12,10 L12,11 L13,11 L13,12 L14,12 L14,14 L13,14 L13,15 L11,15 L11,17 L10,17 L10,18 L9,18 L9,19 L7,19 L7,21 L6,21 L6,22 L5,22 L5,23 L3,23 L3,25 L2,25 L2,26 L1,26 L1,27 L-1,27 L-1,29 L-2,29 L-2,30 L-3,30 L-3,31 L-5,31 L-5,33 L-6,33 L-6,34 L-7,34 L-7,35 L-8,35 L-8,36 L-9,36 L-9,37 L-10,37 L-10,38 L-11,38 L-11,39 L-12,39 L-12,40 L-13,40 L-13,41 L-14,41 L-14,42 L-15,42 L-15,43 L-16,43 L-16,44 L-17,44 L-17,45 L-18,45 L-18,46 L-19,46 L-19,47 L-20,47 L-20,48 L-21,48 L-21,49 L-22,49 L-22,50 L-23,50 L-23,51 L-24,51 L-24,52 L-25,52 L-25,53 L-26,53 L-26,54 L-27,54 L-27,55 L-28,55 L-28,56 L-29,56 L-29,57 L-30,57 L-30,58 L-31,58 L-31,59 L-32,59 L-32,60 L-33,60 L-33,61 L-34,61 L-34,62 L-35,62 L-35,63 L-36,63 L-36,64 L-37,64 L-37,65 L-38,65 L-38,66 L-39,66 L-39,67 L-40,67 L-40,68 L-41,68 L-41,69 L-42,69 L-42,70 L-43,70 L-43,71 L-44,71 L-44,72 L-45,72 L-45,73 L-46,73 L-46,74 L-47,74 L-47,75 L-48,75 L-48,76 L-49,76 L-49,77 L-50,77 L-50,78 L-51,78 L-51,79 L-52,79 L-52,80 L-53,80 L-53,81 L-54,81 L-54,82 L-55,82 L-55,83 L-56,83 L-56,84 L-57,84 L-57,85 L-58,85 L-58,86 L-59,86 L-59,87 L-60,87 L-60,88 L-61,88 L-61,89 L-62,89 L-62,90 L-63,90 L-63,92 L-62,92 L-62,93 L-61,93 L-61,95 L-59,95 L-59,96 L-58,96 L-58,97 L-57,97 L-57,99 L-55,99 L-55,100 L-54,100 L-54,101 L-53,101 L-53,103 L-51,103 L-51,104 L-50,104 L-50,105 L-49,105 L-49,107 L-47,107 L-47,108 L-46,108 L-46,109 L-45,109 L-45,111 L-43,111 L-43,112 L-42,112 L-42,113 L-41,113 L-41,115 L-39,115 L-39,116 L-38,116 L-38,117 L-37,117 L-37,119 L-35,119 L-35,120 L-34,120 L-34,121 L-33,121 L-33,123 L-31,123 L-31,124 L-30,124 L-30,125 L-29,125 L-29,127 L-27,127 L-27,128 L-26,128 L-26,129 L-25,129 L-25,131 L-23,131 L-23,132 L-22,132 L-22,133 L-21,133 L-21,135 L-19,135 L-19,136 L-18,136 L-18,137 L-17,137 L-17,139 L-15,139 L-15,140 L-14,140 L-14,141 L-13,141 L-13,143 L-11,143 L-11,144 L-10,144 L-10,145 L-9,145 L-9,147 L-7,147 L-7,148 L-6,148 L-6,149 L-5,149 L-5,151 L-3,151 L-3,152 L-2,152 L-2,153 L-1,153 L-1,155 L1,155 L1,156 L2,156 L2,157 L3,157 L3,159 L5,159 L5,160 L6,160 L6,161 L7,161 L7,163 L9,163 L9,164 L10,164 L10,165 L11,165 L11,167 L13,167 L13,168 L14,168 L14,169 L13,169 L13,170 L12,170 L12,171 L11,171 L11,172 L10,172 L10,173 L9,173 L9,174 L8,174 L8,175 L7,175 L7,176 L6,176 L6,177 L5,177 L5,178 L4,178 L4,179 L3,179 L3,180 L2,180 L2,181 L1,181 L1,182 L0,182 L0,181 L-1,181 L-1,179 L-3,179 L-3,178 L-4,178 L-4,177 L-5,177 L-5,175 L-7,175 L-7,174 L-8,174 L-8,173 L-9,173 L-9,171 L-11,171 L-11,170 L-12,170 L-12,169 L-13,169 L-13,167 L-15,167 L-15,166 L-16,166 L-16,165 L-17,165 L-17,163 L-19,163 L-19,162 L-20,162 L-20,161 L-21,161 L-21,159 L-23,159 L-23,158 L-24,158 L-24,157 L-25,157 L-25,155 L-27,155 L-27,154 L-28,154 L-28,153 L-29,153 L-29,151 L-31,151 L-31,150 L-32,150 L-32,149 L-33,149 L-33,147 L-35,147 L-35,146 L-36,146 L-36,145 L-37,145 L-37,143 L-39,143 L-39,142 L-40,142 L-40,141 L-41,141 L-41,139 L-43,139 L-43,138 L-44,138 L-44,137 L-45,137 L-45,136 L-46,136 L-46,135 L-47,135 L-47,134 L-48,134 L-48,133 L-49,133 L-49,132 L-50,132 L-50,131 L-51,131 L-51,130 L-52,130 L-52,129 L-53,129 L-53,128 L-54,128 L-54,127 L-55,127 L-55,126 L-56,126 L-56,125 L-57,125 L-57,124 L-58,124 L-58,123 L-59,123 L-59,122 L-60,122 L-60,121 L-61,121 L-61,120 L-62,120 L-62,119 L-63,119 L-63,118 L-64,118 L-64,117 L-65,117 L-65,116 L-66,116 L-66,115 L-67,115 L-67,114 L-68,114 L-68,113 L-69,113 L-69,111 L-71,111 L-71,110 L-72,110 L-72,109 L-73,109 L-73,107 L-75,107 L-75,106 L-76,106 L-76,105 L-77,105 L-77,103 L-79,103 L-79,102 L-80,102 L-80,101 L-81,101 L-81,99 L-83,99 L-83,98 L-84,98 L-84,97 L-85,97 L-85,95 L-87,95 L-87,94 L-88,94 L-88,93 L-89,93 L-89,91 L-90,91 L-90,90 L-89,90 L-89,89 L-88,89 L-88,88 L-87,88 L-87,87 L-86,87 L-86,86 L-85,86 L-85,85 L-84,85 L-84,84 L-83,84 L-83,83 L-82,83 L-82,82 L-81,82 L-81,81 L-80,81 L-80,80 L-79,80 L-79,79 L-78,79 L-78,78 L-77,78 L-77,77 L-76,77 L-76,76 L-75,76 L-75,75 L-74,75 L-74,74 L-73,74 L-73,73 L-72,73 L-72,72 L-71,72 L-71,71 L-70,71 L-70,70 L-69,70 L-69,69 L-68,69 L-68,68 L-67,68 L-67,67 L-66,67 L-66,66 L-65,66 L-65,65 L-64,65 L-64,64 L-63,64 L-63,63 L-62,63 L-62,62 L-61,62 L-61,61 L-60,61 L-60,60 L-59,60 L-59,59 L-58,59 L-58,58 L-57,58 L-57,57 L-56,57 L-56,56 L-55,56 L-55,55 L-54,55 L-54,54 L-53,54 L-53,53 L-52,53 L-52,52 L-51,52 L-51,51 L-50,51 L-50,50 L-49,50 L-49,49 L-48,49 L-48,48 L-47,48 L-47,47 L-46,47 L-46,46 L-45,46 L-45,45 L-44,45 L-44,44 L-43,44 L-43,43 L-42,43 L-42,42 L-41,42 L-41,41 L-40,41 L-40,40 L-39,40 L-39,39 L-38,39 L-38,38 L-37,38 L-37,37 L-36,37 L-36,36 L-35,36 L-35,35 L-34,35 L-34,34 L-33,34 L-33,33 L-32,33 L-32,32 L-31,32 L-31,31 L-30,31 L-30,30 L-29,30 L-29,29 L-28,29 L-28,28 L-27,28 L-27,27 L-26,27 L-26,26 L-25,26 L-25,25 L-24,25 L-24,24 L-23,24 L-23,23 L-22,23 L-22,22 L-21,22 L-21,21 L-20,21 L-20,20 L-19,20 L-19,19 L-18,19 L-18,18 L-17,18 L-17,17 L-16,17 L-16,16 L-15,16 L-15,15 L-14,15 L-14,14 L-13,14 L-13,13 L-12,13 L-12,12 L-11,12 L-11,11 L-10,11 L-10,10 L-9,10 L-9,9 L-8,9 L-8,8 L-7,8 L-7,7 L-6,7 L-6,6 L-5,6 L-5,5 L-4,5 L-4,4 L-3,4 L-3,3 L-2,3 L-2,2 L-1,2 L-1,1 L0,1 Z " fill="#FFFFFF" transform="translate(113,9)"/>
<path d="M0,0 L1,0 L1,1 L0,1 Z M-4,4 L-3,4 L-3,5 L-4,5 Z M-8,8 L-7,8 L-7,9 L-8,9 Z M-12,12 L-11,12 L-11,13 L-12,13 Z M-16,16 L-15,16 L-15,17 L-16,17 Z M-101,76 L-100,76 L-100,77 L-101,77 Z M-72,79 L-71,79 L-71,80 L-72,80 Z M-97,80 L-96,80 L-96,81 L-97,81 Z M-68,83 L-67,83 L-67,84 L-68,84 Z M-93,84 L-92,84 L-92,85 L-93,85 Z M-64,87 L-63,87 L-63,88 L-64,88 Z M-89,88 L-88,88 L-88,89 L-89,89 Z M-60,91 L-59,91 L-59,92 L-60,92 Z M-85,92 L-84,92 L-84,93 L-85,93 Z M-56,95 L-55,95 L-55,96 L-56,96 Z M-81,96 L-80,96 L-80,97 L-81,97 Z M-52,99 L-51,99 L-51,100 L-52,100 Z M-48,103 L-47,103 L-47,104 L-48,104 Z M-44,107 L-43,107 L-43,108 L-44,108 Z M-40,111 L-39,111 L-39,112 L-40,112 Z M-36,115 L-35,115 L-35,116 L-36,116 Z M-32,119 L-31,119 L-31,120 L-32,120 Z M-28,123 L-27,123 L-27,124 L-28,124 Z M-24,127 L-23,127 L-23,128 L-24,128 Z M-20,131 L-19,131 L-19,132 L-20,132 Z M-16,135 L-15,135 L-15,136 L-16,136 Z M-12,139 L-11,139 L-11,140 L-12,140 Z M-8,143 L-7,143 L-7,144 L-8,144 Z M-33,144 L-32,144 L-32,145 L-33,145 Z M-4,147 L-3,147 L-3,148 L-4,148 Z M-29,148 L-28,148 L-28,149 L-29,149 Z M0,151 L1,151 L1,152 L0,152 Z M-25,152 L-24,152 L-24,153 L-25,153 Z M-21,156 L-20,156 L-20,157 L-21,157 Z M-17,160 L-16,160 L-16,161 L-17,161 Z M-13,164 L-12,164 L-12,165 L-13,165 Z " fill="#FFFFFF" opacity="0.99607843" transform="translate(124,24)"/>
<path d="M0,0 L2,0 L2,1 L3,1 L3,2 L4,2 L4,3 L5,3 L5,4 L6,4 L6,5 L7,5 L7,6 L8,6 L8,7 L9,7 L9,8 L10,8 L10,9 L11,9 L11,10 L12,10 L12,11 L13,11 L13,12 L14,12 L14,13 L15,13 L15,14 L16,14 L16,15 L17,15 L17,16 L18,16 L18,17 L19,17 L19,18 L20,18 L20,19 L21,19 L21,20 L22,20 L22,21 L23,21 L23,22 L24,22 L24,23 L25,23 L25,24 L26,24 L26,25 L27,25 L27,26 L28,26 L28,27 L29,27 L29,28 L30,28 L30,29 L31,29 L31,31 L30,31 L30,32 L29,32 L29,33 L28,33 L28,34 L27,34 L27,35 L26,35 L26,36 L25,36 L25,37 L24,37 L24,38 L23,38 L23,39 L22,39 L22,40 L21,40 L21,41 L20,41 L20,42 L19,42 L19,43 L18,43 L18,44 L17,44 L17,45 L16,45 L16,46 L15,46 L15,47 L14,47 L14,48 L13,48 L13,49 L12,49 L12,50 L11,50 L11,51 L10,51 L10,52 L9,52 L9,53 L8,53 L8,54 L7,54 L7,55 L6,55 L6,56 L5,56 L5,57 L4,57 L4,58 L3,58 L3,59 L2,59 L2,60 L0,60 L0,59 L-1,59 L-1,58 L-2,58 L-2,57 L-3,57 L-3,56 L-4,56 L-4,55 L-5,55 L-5,54 L-6,54 L-6,53 L-7,53 L-7,52 L-8,52 L-8,51 L-9,51 L-9,50 L-10,50 L-10,49 L-11,49 L-11,48 L-12,48 L-12,47 L-13,47 L-13,46 L-14,46 L-14,45 L-15,45 L-15,44 L-16,44 L-16,43 L-17,43 L-17,42 L-18,42 L-18,41 L-19,41 L-19,40 L-20,40 L-20,39 L-21,39 L-21,38 L-22,38 L-22,37 L-23,37 L-23,36 L-24,36 L-24,35 L-25,35 L-25,34 L-26,34 L-26,33 L-27,33 L-27,32 L-28,32 L-28,31 L-29,31 L-29,29 L-28,29 L-28,28 L-27,28 L-27,27 L-26,27 L-26,26 L-25,26 L-25,25 L-24,25 L-24,24 L-23,24 L-23,23 L-22,23 L-22,22 L-21,22 L-21,21 L-20,21 L-20,20 L-19,20 L-19,19 L-18,19 L-18,18 L-17,18 L-17,17 L-16,17 L-16,16 L-15,16 L-15,15 L-14,15 L-14,14 L-13,14 L-13,13 L-12,13 L-12,12 L-11,12 L-11,11 L-10,11 L-10,10 L-9,10 L-9,9 L-8,9 L-8,8 L-7,8 L-7,7 L-6,7 L-6,6 L-5,6 L-5,5 L-4,5 L-4,4 L-3,4 L-3,3 L-2,3 L-2,2 L-1,2 L-1,1 L0,1 Z " fill="#FFFFFF" transform="translate(146,74)"/>
<path d="M0,0 L1,0 L1,1 L0,1 Z M-1,1 L0,1 L0,2 L-1,2 Z M-2,2 L-1,2 L-1,3 L-2,3 Z M-3,3 L-2,3 L-2,4 L-3,4 Z M-4,4 L-3,4 L-3,5 L-4,5 Z M-5,5 L-4,5 L-4,6 L-5,6 Z M-6,6 L-5,6 L-5,7 L-6,7 Z M-7,7 L-6,7 L-6,8 L-7,8 Z M-8,8 L-7,8 L-7,9 L-8,9 Z M-9,9 L-8,9 L-8,10 L-9,10 Z M-10,10 L-9,10 L-9,11 L-10,11 Z M-11,11 L-10,11 L-10,12 L-11,12 Z M-12,12 L-11,12 L-11,13 L-12,13 Z M-13,13 L-12,13 L-12,14 L-13,14 Z M-14,14 L-13,14 L-13,15 L-14,15 Z M-15,15 L-14,15 L-14,16 L-15,16 Z M-16,16 L-15,16 L-15,17 L-16,17 Z M-17,17 L-16,17 L-16,18 L-17,18 Z M-18,18 L-17,18 L-17,19 L-18,19 Z M-19,19 L-18,19 L-18,20 L-19,20 Z M-20,20 L-19,20 L-19,21 L-20,21 Z M-21,21 L-20,21 L-20,22 L-21,22 Z M-22,22 L-21,22 L-21,23 L-22,23 Z M-23,23 L-22,23 L-22,24 L-23,24 Z M-24,24 L-23,24 L-23,25 L-24,25 Z M-25,25 L-24,25 L-24,26 L-25,26 Z M-26,26 L-25,26 L-25,27 L-26,27 Z M-27,27 L-26,27 L-26,28 L-27,28 Z M-28,28 L-27,28 L-27,29 L-28,29 Z M-29,29 L-28,29 L-28,30 L-29,30 Z M-30,30 L-29,30 L-29,31 L-30,31 Z M-31,31 L-30,31 L-30,32 L-31,32 Z M-32,32 L-31,32 L-31,33 L-32,33 Z M-33,33 L-32,33 L-32,34 L-33,34 Z M-34,34 L-33,34 L-33,35 L-34,35 Z M-35,35 L-34,35 L-34,36 L-35,36 Z M-36,36 L-35,36 L-35,37 L-36,37 Z M-37,37 L-36,37 L-36,38 L-37,38 Z M-38,38 L-37,38 L-37,39 L-38,39 Z M-39,39 L-38,39 L-38,40 L-39,40 Z M-40,40 L-39,40 L-39,41 L-40,41 Z M-41,41 L-40,41 L-40,42 L-41,42 Z M-42,42 L-41,42 L-41,43 L-42,43 Z M-43,43 L-42,43 L-42,44 L-43,44 Z M-44,44 L-43,44 L-43,45 L-44,45 Z M-45,45 L-44,45 L-44,46 L-45,46 Z M-46,46 L-45,46 L-45,47 L-46,47 Z M-47,47 L-46,47 L-46,48 L-47,48 Z M-48,48 L-47,48 L-47,49 L-48,49 Z M-49,49 L-48,49 L-48,50 L-49,50 Z M-50,50 L-49,50 L-49,51 L-50,51 Z M-51,51 L-50,51 L-50,52 L-51,52 Z M-52,52 L-51,52 L-51,53 L-52,53 Z M-53,53 L-52,53 L-52,54 L-53,54 Z M-54,54 L-53,54 L-53,55 L-54,55 Z M-55,55 L-54,55 L-54,56 L-55,56 Z M-56,56 L-55,56 L-55,57 L-56,57 Z M-57,57 L-56,57 L-56,58 L-57,58 Z M-58,58 L-57,58 L-57,59 L-58,59 Z M-59,59 L-58,59 L-58,60 L-59,60 Z M-60,60 L-59,60 L-59,61 L-60,61 Z M-61,61 L-60,61 L-60,62 L-61,62 Z M-62,62 L-61,62 L-61,63 L-62,63 Z M-63,63 L-62,63 L-62,64 L-63,64 Z M-64,64 L-63,64 L-63,65 L-64,65 Z M-65,65 L-64,65 L-64,66 L-65,66 Z M-66,66 L-65,66 L-65,67 L-66,67 Z M-67,67 L-66,67 L-66,68 L-67,68 Z M-68,68 L-67,68 L-67,69 L-68,69 Z M-69,69 L-68,69 L-68,70 L-69,70 Z M-70,70 L-69,70 L-69,71 L-70,71 Z M-71,71 L-70,71 L-70,72 L-71,72 Z M-72,72 L-71,72 L-71,73 L-72,73 Z M-73,73 L-72,73 L-72,74 L-73,74 Z M-74,74 L-73,74 L-73,75 L-74,75 Z M-75,75 L-74,75 L-74,76 L-75,76 Z M-76,76 L-75,76 L-75,77 L-76,77 Z M-77,77 L-76,77 L-76,78 L-77,78 Z M-78,78 L-77,78 L-77,79 L-78,79 Z M-79,79 L-78,79 L-78,80 L-79,80 Z M-80,80 L-79,80 L-79,81 L-80,81 Z M-81,81 L-80,81 L-80,82 L-81,82 Z M-82,82 L-81,82 L-81,83 L-82,83 Z M-83,83 L-82,83 L-82,84 L-83,84 Z M-84,84 L-83,84 L-83,85 L-84,85 Z M-85,85 L-84,85 L-84,86 L-85,86 Z M-86,86 L-85,86 L-85,87 L-86,87 Z M-87,87 L-86,87 L-86,88 L-87,88 Z M-88,88 L-87,88 L-87,89 L-88,89 Z M-89,89 L-88,89 L-88,90 L-89,90 Z M-90,90 L-89,90 L-89,91 L-90,91 Z " fill="#FFFFFF" transform="translate(113,9)"/>
<path d="M0,0 L1,0 L1,1 L0,1 Z M-1,1 L0,1 L0,2 L-1,2 Z M-2,2 L-1,2 L-1,3 L-2,3 Z M-3,3 L-2,3 L-2,4 L-3,4 Z M-4,4 L-3,4 L-3,5 L-4,5 Z M-5,5 L-4,5 L-4,6 L-5,6 Z M-6,6 L-5,6 L-5,7 L-6,7 Z M-7,7 L-6,7 L-6,8 L-7,8 Z M-8,8 L-7,8 L-7,9 L-8,9 Z M-9,9 L-8,9 L-8,10 L-9,10 Z M-10,10 L-9,10 L-9,11 L-10,11 Z M-11,11 L-10,11 L-10,12 L-11,12 Z M-12,12 L-11,12 L-11,13 L-12,13 Z M-13,13 L-12,13 L-12,14 L-13,14 Z M-14,14 L-13,14 L-13,15 L-14,15 Z M-15,15 L-14,15 L-14,16 L-15,16 Z M-16,16 L-15,16 L-15,17 L-16,17 Z M-17,17 L-16,17 L-16,18 L-17,18 Z M-18,18 L-17,18 L-17,19 L-18,19 Z M-19,19 L-18,19 L-18,20 L-19,20 Z M-20,20 L-19,20 L-19,21 L-20,21 Z M-21,21 L-20,21 L-20,22 L-21,22 Z M-22,22 L-21,22 L-21,23 L-22,23 Z M-23,23 L-22,23 L-22,24 L-23,24 Z M-24,24 L-23,24 L-23,25 L-24,25 Z M-25,25 L-24,25 L-24,26 L-25,26 Z M-26,26 L-25,26 L-25,27 L-26,27 Z M-27,27 L-26,27 L-26,28 L-27,28 Z M-28,28 L-27,28 L-27,29 L-28,29 Z M-29,29 L-28,29 L-28,30 L-29,30 Z M-30,30 L-29,30 L-29,31 L-30,31 Z M-31,31 L-30,31 L-30,32 L-31,32 Z M-32,32 L-31,32 L-31,33 L-32,33 Z M-33,33 L-32,33 L-32,34 L-33,34 Z M-34,34 L-33,34 L-33,35 L-34,35 Z M-35,35 L-34,35 L-34,36 L-35,36 Z M-36,36 L-35,36 L-35,37 L-36,37 Z M-37,37 L-36,37 L-36,38 L-37,38 Z M-38,38 L-37,38 L-37,39 L-38,39 Z M-39,39 L-38,39 L-38,40 L-39,40 Z M-40,40 L-39,40 L-39,41 L-40,41 Z M-41,41 L-40,41 L-40,42 L-41,42 Z M-42,42 L-41,42 L-41,43 L-42,43 Z M-43,43 L-42,43 L-42,44 L-43,44 Z M-44,44 L-43,44 L-43,45 L-44,45 Z M-45,45 L-44,45 L-44,46 L-45,46 Z M-46,46 L-45,46 L-45,47 L-46,47 Z " fill="#FFFFFF" opacity="0.015686275" transform="translate(111,9)"/>
<path d="M0,0 L1,0 L1,1 L0,1 Z M-3,1 L0,1 L0,2 L-1,2 L-1,3 L-2,3 L-2,4 L-3,4 Z M-4,4 L-3,4 L-3,5 L-4,5 Z M-7,5 L-4,5 L-4,6 L-5,6 L-5,7 L-6,7 L-6,8 L-7,8 Z M-8,8 L-7,8 L-7,10 L-8,10 Z M-7,10 L-6,10 L-6,11 L-5,11 L-5,12 L-4,12 L-4,13 L-7,13 Z M-4,13 L-3,13 L-3,14 L-4,14 Z M-3,14 L-2,14 L-2,15 L-1,15 L-1,16 L0,16 L0,17 L-3,17 Z M0,17 L1,17 L1,18 L0,18 Z M1,18 L2,18 L2,19 L3,19 L3,20 L4,20 L4,21 L1,21 Z M4,21 L5,21 L5,22 L4,22 Z M5,22 L6,22 L6,23 L7,23 L7,24 L8,24 L8,25 L5,25 Z M8,25 L9,25 L9,26 L8,26 Z M9,26 L10,26 L10,27 L11,27 L11,28 L12,28 L12,29 L9,29 Z M12,29 L13,29 L13,30 L12,30 Z M13,30 L14,30 L14,31 L15,31 L15,32 L16,32 L16,33 L13,33 Z M16,33 L17,33 L17,34 L16,34 Z M17,34 L18,34 L18,35 L19,35 L19,36 L20,36 L20,37 L17,37 Z M20,37 L21,37 L21,38 L20,38 Z M21,38 L22,38 L22,39 L23,39 L23,40 L25,40 L25,41 L21,41 Z " fill="#FFFFFF" opacity="0.003921569" transform="translate(123,95)"/>
<path d="M0,0 L1,0 L1,1 L0,1 Z M1,1 L2,1 L2,2 L1,2 Z M2,2 L3,2 L3,3 L2,3 Z M3,3 L4,3 L4,4 L3,4 Z M4,4 L5,4 L5,5 L4,5 Z M5,5 L6,5 L6,6 L5,6 Z M6,6 L7,6 L7,7 L6,7 Z M7,7 L8,7 L8,8 L7,8 Z M8,8 L9,8 L9,9 L8,9 Z M9,9 L10,9 L10,10 L9,10 Z M10,10 L11,10 L11,11 L10,11 Z M11,11 L12,11 L12,12 L11,12 Z M12,12 L13,12 L13,13 L12,13 Z M13,13 L14,13 L14,14 L13,14 Z M14,14 L15,14 L15,15 L14,15 Z M15,15 L16,15 L16,16 L15,16 Z M16,16 L17,16 L17,17 L16,17 Z M17,17 L18,17 L18,18 L17,18 Z M18,18 L19,18 L19,19 L18,19 Z M19,19 L20,19 L20,20 L19,20 Z M20,20 L21,20 L21,21 L20,21 Z M21,21 L22,21 L22,22 L21,22 Z M22,22 L23,22 L23,23 L22,23 Z M23,23 L24,23 L24,24 L23,24 Z M24,24 L25,24 L25,25 L24,25 Z M25,25 L26,25 L26,26 L25,26 Z M26,26 L27,26 L27,27 L26,27 Z M27,27 L28,27 L28,28 L27,28 Z M28,28 L29,28 L29,29 L28,29 Z M29,29 L30,29 L30,30 L29,30 Z M30,30 L31,30 L31,31 L30,31 Z M31,31 L32,31 L32,32 L31,32 Z M32,32 L33,32 L33,33 L32,33 Z M33,33 L34,33 L34,34 L33,34 Z M34,34 L35,34 L35,35 L34,35 Z M35,35 L36,35 L36,36 L35,36 Z M36,36 L37,36 L37,37 L36,37 Z M37,37 L38,37 L38,38 L37,38 Z M38,38 L39,38 L39,39 L38,39 Z M39,39 L40,39 L40,40 L39,40 Z M40,40 L41,40 L41,41 L40,41 Z M41,41 L42,41 L42,42 L41,42 Z M42,42 L43,42 L43,43 L42,43 Z M43,43 L44,43 L44,44 L43,44 Z M44,44 L45,44 L45,45 L44,45 Z M45,45 L46,45 L46,46 L45,46 Z M46,46 L47,46 L47,47 L46,47 Z M47,47 L48,47 L48,48 L47,48 Z M48,48 L49,48 L49,49 L48,49 Z M49,49 L50,49 L50,50 L49,50 Z M50,50 L51,50 L51,51 L50,51 Z M51,51 L52,51 L52,52 L51,52 Z M52,52 L53,52 L53,53 L52,53 Z M53,53 L54,53 L54,54 L53,54 Z M54,54 L55,54 L55,55 L54,55 Z M55,55 L56,55 L56,56 L55,56 Z M56,56 L57,56 L57,57 L56,57 Z M57,57 L58,57 L58,58 L57,58 Z M58,58 L59,58 L59,59 L58,59 Z M59,59 L60,59 L60,60 L59,60 Z M60,60 L61,60 L61,61 L60,61 Z M61,61 L62,61 L62,62 L61,62 Z M62,62 L63,62 L63,63 L62,63 Z M63,63 L64,63 L64,64 L63,64 Z M64,64 L65,64 L65,65 L64,65 Z M65,65 L66,65 L66,66 L65,66 Z M66,66 L67,66 L67,67 L66,67 Z M67,67 L68,67 L68,68 L67,68 Z M68,68 L69,68 L69,69 L68,69 Z M69,69 L70,69 L70,70 L69,70 Z M70,70 L71,70 L71,71 L70,71 Z M71,71 L72,71 L72,72 L71,72 Z M72,72 L73,72 L73,73 L72,73 Z M73,73 L74,73 L74,74 L73,74 Z M74,74 L75,74 L75,75 L74,75 Z M75,75 L76,75 L76,76 L75,76 Z " fill="#FFFFFF" opacity="0.09019608" transform="translate(51,100)"/>
<path d="M0,0 L1,0 L1,1 L0,1 Z M1,1 L2,1 L2,2 L1,2 Z M2,2 L3,2 L3,3 L2,3 Z M3,3 L4,3 L4,4 L3,4 Z M4,4 L5,4 L5,5 L4,5 Z M5,5 L6,5 L6,6 L5,6 Z M6,6 L7,6 L7,7 L6,7 Z M7,7 L8,7 L8,8 L7,8 Z M8,8 L9,8 L9,9 L8,9 Z M9,9 L10,9 L10,10 L9,10 Z M10,10 L11,10 L11,11 L10,11 Z M11,11 L12,11 L12,12 L11,12 Z M12,12 L13,12 L13,13 L12,13 Z M13,13 L14,13 L14,14 L13,14 Z M14,14 L15,14 L15,15 L14,15 Z M15,15 L16,15 L16,16 L15,16 Z M16,16 L17,16 L17,17 L16,17 Z M17,17 L18,17 L18,18 L17,18 Z M18,18 L19,18 L19,19 L18,19 Z M19,19 L20,19 L20,20 L19,20 Z M20,20 L21,20 L21,21 L20,21 Z M21,21 L22,21 L22,22 L21,22 Z M22,22 L23,22 L23,23 L22,23 Z M23,23 L24,23 L24,24 L23,24 Z M24,24 L25,24 L25,25 L24,25 Z M25,25 L26,25 L26,26 L25,26 Z M26,26 L27,26 L27,27 L26,27 Z M27,27 L28,27 L28,28 L27,28 Z M28,28 L29,28 L29,29 L28,29 Z M29,29 L30,29 L30,30 L29,30 Z M30,30 L31,30 L31,31 L30,31 Z M31,31 L32,31 L32,32 L31,32 Z M32,32 L33,32 L33,33 L32,33 Z M33,33 L34,33 L34,34 L33,34 Z M34,34 L35,34 L35,35 L34,35 Z M35,35 L36,35 L36,36 L35,36 Z M36,36 L37,36 L37,37 L36,37 Z M37,37 L38,37 L38,38 L37,38 Z M38,38 L39,38 L39,39 L38,39 Z M39,39 L40,39 L40,40 L39,40 Z M40,40 L41,40 L41,41 L40,41 Z M41,41 L42,41 L42,42 L41,42 Z M42,42 L43,42 L43,43 L42,43 Z M43,43 L44,43 L44,44 L43,44 Z M44,44 L45,44 L45,45 L44,45 Z M45,45 L46,45 L46,46 L45,46 Z M46,46 L47,46 L47,47 L46,47 Z M47,47 L48,47 L48,48 L47,48 Z M48,48 L49,48 L49,49 L48,49 Z M49,49 L50,49 L50,50 L49,50 Z M50,50 L51,50 L51,51 L50,51 Z M51,51 L52,51 L52,52 L51,52 Z M52,52 L53,52 L53,53 L52,53 Z M53,53 L54,53 L54,54 L53,54 Z M54,54 L55,54 L55,55 L54,55 Z M55,55 L56,55 L56,56 L55,56 Z M56,56 L57,56 L57,57 L56,57 Z M57,57 L58,57 L58,58 L57,58 Z M58,58 L59,58 L59,59 L58,59 Z M59,59 L60,59 L60,60 L59,60 Z M60,60 L61,60 L61,61 L60,61 Z M61,61 L62,61 L62,62 L61,62 Z M62,62 L63,62 L63,63 L62,63 Z M63,63 L64,63 L64,64 L63,64 Z M64,64 L65,64 L65,65 L64,65 Z M65,65 L66,65 L66,66 L65,66 Z M66,66 L67,66 L67,67 L66,67 Z M67,67 L68,67 L68,68 L67,68 Z M68,68 L69,68 L69,69 L68,69 Z M69,69 L70,69 L70,70 L69,70 Z M70,70 L71,70 L71,71 L70,71 Z M71,71 L72,71 L72,72 L71,72 Z M72,72 L73,72 L73,73 L72,73 Z M73,73 L74,73 L74,74 L73,74 Z M74,74 L75,74 L75,75 L74,75 Z M75,75 L76,75 L76,76 L75,76 Z " fill="#FFFFFF" opacity="0.84313726" transform="translate(50,100)"/>
<path d="M0,0 L1,0 L1,1 L0,1 Z M-1,1 L0,1 L0,2 L-1,2 Z M-2,2 L-1,2 L-1,3 L-2,3 Z M-3,3 L-2,3 L-2,4 L-3,4 Z M-4,4 L-3,4 L-3,5 L-4,5 Z M-5,5 L-4,5 L-4,6 L-5,6 Z M-6,6 L-5,6 L-5,7 L-6,7 Z M-7,7 L-6,7 L-6,8 L-7,8 Z M-8,8 L-7,8 L-7,9 L-8,9 Z M-9,9 L-8,9 L-8,10 L-9,10 Z M-10,10 L-9,10 L-9,11 L-10,11 Z " fill="#FFFFFF" opacity="0.015686275" transform="translate(178,104)"/>
<path d="M0,0 L2,0 L2,4 L-2,4 L-2,2 L-1,2 L-1,1 L0,1 Z M-4,4 L-2,4 L-2,8 L-6,8 L-6,6 L-5,6 L-5,5 L-4,5 Z M-8,8 L-6,8 L-6,12 L-10,12 L-10,10 L-9,10 L-9,9 L-8,9 Z M-12,12 L-10,12 L-10,16 L-14,16 L-14,14 L-13,14 L-13,13 L-12,13 Z " fill="#FFFFFF" opacity="0.003921569" transform="translate(106,44)"/>
<path d="M0,0 L1,0 L1,1 L0,1 Z M1,1 L2,1 L2,2 L1,2 Z M2,2 L3,2 L3,3 L2,3 Z M3,3 L4,3 L4,4 L3,4 Z M4,4 L5,4 L5,5 L4,5 Z M5,5 L6,5 L6,6 L5,6 Z M6,6 L7,6 L7,7 L6,7 Z M7,7 L8,7 L8,8 L7,8 Z M8,8 L9,8 L9,9 L8,9 Z M9,9 L10,9 L10,10 L9,10 Z M10,10 L11,10 L11,11 L10,11 Z M11,11 L12,11 L12,12 L11,12 Z M12,12 L13,12 L13,13 L12,13 Z M13,13 L14,13 L14,14 L13,14 Z M14,14 L15,14 L15,15 L14,15 Z M15,15 L16,15 L16,16 L15,16 Z M16,16 L17,16 L17,17 L16,17 Z M17,17 L18,17 L18,18 L17,18 Z M18,18 L19,18 L19,19 L18,19 Z M19,19 L20,19 L20,20 L19,20 Z M20,20 L21,20 L21,21 L20,21 Z M21,21 L22,21 L22,22 L21,22 Z M22,22 L23,22 L23,23 L22,23 Z M23,23 L24,23 L24,24 L23,24 Z M24,24 L25,24 L25,25 L24,25 Z M25,25 L26,25 L26,26 L25,26 Z M26,26 L27,26 L27,27 L26,27 Z M27,27 L28,27 L28,28 L27,28 Z M28,28 L29,28 L29,29 L28,29 Z M29,29 L30,29 L30,30 L29,30 Z M30,30 L31,30 L31,31 L30,31 Z " fill="#FFFFFF" opacity="0.54901963" transform="translate(116,104)"/>
<path d="M0,0 L1,0 L1,1 L0,1 Z M-1,1 L0,1 L0,2 L-1,2 Z M-2,2 L-1,2 L-1,3 L-2,3 Z M-3,3 L-2,3 L-2,4 L-3,4 Z M-4,4 L-3,4 L-3,5 L-4,5 Z M-5,5 L-4,5 L-4,6 L-5,6 Z M-6,6 L-5,6 L-5,7 L-6,7 Z M-7,7 L-6,7 L-6,8 L-7,8 Z M-8,8 L-7,8 L-7,9 L-8,9 Z M-9,9 L-8,9 L-8,10 L-9,10 Z M-10,10 L-9,10 L-9,11 L-10,11 Z M-11,11 L-10,11 L-10,12 L-11,12 Z M-12,12 L-11,12 L-11,13 L-12,13 Z M-13,13 L-12,13 L-12,14 L-13,14 Z M-14,14 L-13,14 L-13,15 L-14,15 Z M-15,15 L-14,15 L-14,16 L-15,16 Z " fill="#FFFFFF" opacity="0.56078434" transform="translate(139,80)"/>
<path d="M0,0 L1,0 L1,1 L0,1 Z M1,1 L2,1 L2,2 L1,2 Z M2,2 L3,2 L3,3 L2,3 Z M3,3 L4,3 L4,4 L3,4 Z M4,4 L5,4 L5,5 L4,5 Z M5,5 L6,5 L6,6 L5,6 Z M6,6 L7,6 L7,7 L6,7 Z M7,7 L8,7 L8,8 L7,8 Z M8,8 L9,8 L9,9 L8,9 Z M9,9 L10,9 L10,10 L9,10 Z M10,10 L11,10 L11,11 L10,11 Z M11,11 L12,11 L12,12 L11,12 Z M12,12 L13,12 L13,13 L12,13 Z M13,13 L14,13 L14,14 L13,14 Z M14,14 L15,14 L15,15 L14,15 Z M15,15 L16,15 L16,16 L15,16 Z M16,16 L17,16 L17,17 L16,17 Z M17,17 L18,17 L18,18 L17,18 Z M18,18 L19,18 L19,19 L18,19 Z M19,19 L20,19 L20,20 L19,20 Z M20,20 L21,20 L21,21 L20,21 Z M21,21 L22,21 L22,22 L21,22 Z M22,22 L23,22 L23,23 L22,23 Z M23,23 L24,23 L24,24 L23,24 Z M24,24 L25,24 L25,25 L24,25 Z M25,25 L26,25 L26,26 L25,26 Z M26,26 L27,26 L27,27 L26,27 Z M27,27 L28,27 L28,28 L27,28 Z M28,28 L29,28 L29,29 L28,29 Z M29,29 L30,29 L30,30 L29,30 Z M30,30 L31,30 L31,31 L30,31 Z " fill="#FFFFFF" opacity="0.019607844" transform="translate(148,73)"/>
<path d="M0,0 L1,0 L1,1 L0,1 Z M-1,1 L0,1 L0,2 L-1,2 Z M-2,2 L-1,2 L-1,3 L-2,3 Z M-3,3 L-2,3 L-2,4 L-3,4 Z M-4,4 L-3,4 L-3,5 L-4,5 Z M-5,5 L-4,5 L-4,6 L-5,6 Z M-6,6 L-5,6 L-5,7 L-6,7 Z M-7,7 L-6,7 L-6,8 L-7,8 Z M-8,8 L-7,8 L-7,9 L-8,9 Z M-9,9 L-8,9 L-8,10 L-9,10 Z M-10,10 L-9,10 L-9,11 L-10,11 Z M-11,11 L-10,11 L-10,12 L-11,12 Z M-12,12 L-11,12 L-11,13 L-12,13 Z M-13,13 L-12,13 L-12,14 L-13,14 Z M-14,14 L-13,14 L-13,15 L-14,15 Z M-15,15 L-14,15 L-14,16 L-15,16 Z M-16,16 L-15,16 L-15,17 L-16,17 Z M-17,17 L-16,17 L-16,18 L-17,18 Z M-18,18 L-17,18 L-17,19 L-18,19 Z M-19,19 L-18,19 L-18,20 L-19,20 Z M-20,20 L-19,20 L-19,21 L-20,21 Z M-21,21 L-20,21 L-20,22 L-21,22 Z M-22,22 L-21,22 L-21,23 L-22,23 Z M-23,23 L-22,23 L-22,24 L-23,24 Z M-24,24 L-23,24 L-23,25 L-24,25 Z " fill="#FFFFFF" opacity="0.6627451" transform="translate(112,9)"/>
<path d="M0,0 L1,0 L1,1 L0,1 Z M1,1 L2,1 L2,2 L1,2 Z M2,2 L3,2 L3,3 L2,3 Z M3,3 L4,3 L4,4 L3,4 Z M4,4 L5,4 L5,5 L4,5 Z M5,5 L6,5 L6,6 L5,6 Z M6,6 L7,6 L7,7 L6,7 Z M7,7 L8,7 L8,8 L7,8 Z M8,8 L9,8 L9,9 L8,9 Z M9,9 L10,9 L10,10 L9,10 Z M10,10 L11,10 L11,11 L10,11 Z M11,11 L12,11 L12,12 L11,12 Z M12,12 L13,12 L13,13 L12,13 Z M13,13 L14,13 L14,14 L13,14 Z M14,14 L15,14 L15,15 L14,15 Z M15,15 L16,15 L16,16 L15,16 Z M16,16 L17,16 L17,17 L16,17 Z M17,17 L18,17 L18,18 L17,18 Z M18,18 L19,18 L19,19 L18,19 Z M19,19 L20,19 L20,20 L19,20 Z M20,20 L21,20 L21,21 L20,21 Z M21,21 L22,21 L22,22 L21,22 Z M22,22 L23,22 L23,23 L22,23 Z M23,23 L24,23 L24,24 L23,24 Z " fill="#FFFFFF" opacity="0.36078432" transform="translate(44,122)"/>
<path d="M0,0 L1,0 L1,1 L0,1 Z M-1,1 L0,1 L0,2 L-1,2 Z M-2,2 L-1,2 L-1,3 L-2,3 Z M-3,3 L-2,3 L-2,4 L-3,4 Z M-4,4 L-3,4 L-3,5 L-4,5 Z M-5,5 L-4,5 L-4,6 L-5,6 Z M-6,6 L-5,6 L-5,7 L-6,7 Z M-7,7 L-6,7 L-6,8 L-7,8 Z M-8,8 L-7,8 L-7,9 L-8,9 Z M-9,9 L-8,9 L-8,10 L-9,10 Z M-10,10 L-9,10 L-9,11 L-10,11 Z M-11,11 L-10,11 L-10,12 L-11,12 Z M-12,12 L-11,12 L-11,13 L-12,13 Z M-13,13 L-12,13 L-12,14 L-13,14 Z M-14,14 L-13,14 L-13,15 L-14,15 Z M-15,15 L-14,15 L-14,16 L-15,16 Z M-16,16 L-15,16 L-15,17 L-16,17 Z M-17,17 L-16,17 L-16,18 L-17,18 Z M-18,18 L-17,18 L-17,19 L-18,19 Z M-19,19 L-18,19 L-18,20 L-19,20 Z M-20,20 L-19,20 L-19,21 L-20,21 Z M-21,21 L-20,21 L-20,22 L-21,22 Z M-22,22 L-21,22 L-21,23 L-22,23 Z M-23,23 L-22,23 L-22,24 L-23,24 Z M-24,24 L-23,24 L-23,25 L-24,25 Z M-25,25 L-24,25 L-24,26 L-25,26 Z M-26,26 L-25,26 L-25,27 L-26,27 Z M-27,27 L-26,27 L-26,28 L-27,28 Z M-28,28 L-27,28 L-27,29 L-28,29 Z M-29,29 L-28,29 L-28,30 L-29,30 Z " fill="#FFFFFF" transform="translate(146,74)"/>
<path d="M0,0 L1,0 L1,1 L0,1 Z M-1,1 L0,1 L0,2 L-1,2 Z M-2,2 L-1,2 L-1,3 L-2,3 Z M-3,3 L-2,3 L-2,4 L-3,4 Z M-4,4 L-3,4 L-3,5 L-4,5 Z M-5,5 L-4,5 L-4,6 L-5,6 Z M-6,6 L-5,6 L-5,7 L-6,7 Z M-7,7 L-6,7 L-6,8 L-7,8 Z M-8,8 L-7,8 L-7,9 L-8,9 Z M-9,9 L-8,9 L-8,10 L-9,10 Z M-10,10 L-9,10 L-9,11 L-10,11 Z M-11,11 L-10,11 L-10,12 L-11,12 Z M-12,12 L-11,12 L-11,13 L-12,13 Z M-13,13 L-12,13 L-12,14 L-13,14 Z M-14,14 L-13,14 L-13,15 L-14,15 Z M-15,15 L-14,15 L-14,16 L-15,16 Z M-16,16 L-15,16 L-15,17 L-16,17 Z M-17,17 L-16,17 L-16,18 L-17,18 Z " fill="#FFFFFF" opacity="0.6117647" transform="translate(107,42)"/>
<path d="M0,0 L1,0 L1,1 L0,1 Z M1,1 L2,1 L2,2 L1,2 Z M2,2 L3,2 L3,3 L2,3 Z M3,3 L4,3 L4,4 L3,4 Z M4,4 L5,4 L5,5 L4,5 Z M5,5 L6,5 L6,6 L5,6 Z M6,6 L7,6 L7,7 L6,7 Z M7,7 L8,7 L8,8 L7,8 Z M8,8 L9,8 L9,9 L8,9 Z M9,9 L10,9 L10,10 L9,10 Z " fill="#FFFFFF" opacity="0.5019608" transform="translate(118,12)"/>
<path d="M0,0 L1,0 L1,1 L0,1 Z M-1,1 L0,1 L0,2 L-1,2 Z M-2,2 L-1,2 L-1,3 L-2,3 Z " fill="#FFFFFF" opacity="0.9490196" transform="translate(123,181)"/>
<path d="M0,0 L4,0 L4,1 L2,1 L2,2 L1,2 L1,3 L0,3 Z M-1,3 L0,3 L0,4 L-1,4 Z M-4,4 L-1,4 L-1,5 L-2,5 L-2,6 L-3,6 L-3,7 L-4,7 Z M-5,7 L-4,7 L-4,8 L-5,8 Z " fill="#FFFFFF" opacity="0.003921569" transform="translate(144,72)"/>
<path d="M0,0 L1,0 L1,1 L0,1 Z M-1,1 L0,1 L0,2 L-1,2 Z M-2,2 L-1,2 L-1,3 L-2,3 Z M-3,3 L-2,3 L-2,4 L-3,4 Z M-4,4 L-3,4 L-3,5 L-4,5 Z M-5,5 L-4,5 L-4,6 L-5,6 Z M-6,6 L-5,6 L-5,7 L-6,7 Z M-7,7 L-6,7 L-6,8 L-7,8 Z " fill="#FFFFFF" opacity="0.64705884" transform="translate(177,104)"/>
<path d="M0,0 L1,0 L1,1 L0,1 Z M-1,1 L0,1 L0,2 L-1,2 Z M-2,2 L-1,2 L-1,3 L-2,3 Z M-3,3 L-2,3 L-2,4 L-3,4 Z M-4,4 L-3,4 L-3,5 L-4,5 Z M-5,5 L-4,5 L-4,6 L-5,6 Z M-6,6 L-5,6 L-5,7 L-6,7 Z " fill="#FFFFFF" opacity="0.5647059" transform="translate(146,73)"/>
<path d="M0,0 L1,0 L1,1 L0,1 Z M-1,1 L0,1 L0,2 L-1,2 Z M-2,2 L-1,2 L-1,3 L-2,3 Z M-3,3 L-2,3 L-2,4 L-3,4 Z " fill="#FFFFFF" opacity="0.64705884" transform="translate(25,96)"/>
<path d="M0,0 L1,0 L1,1 L0,1 Z M-1,1 L0,1 L0,2 L-1,2 Z M-2,2 L-1,2 L-1,3 L-2,3 Z M-3,3 L-2,3 L-2,4 L-3,4 Z M-4,4 L-3,4 L-3,5 L-4,5 Z M-5,5 L-4,5 L-4,6 L-5,6 Z M-6,6 L-5,6 L-5,7 L-6,7 Z M-7,7 L-6,7 L-6,8 L-7,8 Z " fill="#FFFFFF" opacity="0.54901963" transform="translate(123,96)"/>
<path d="M0,0 L1,0 L1,1 L0,1 Z M-1,1 L0,1 L0,2 L-1,2 Z M-2,2 L-1,2 L-1,3 L-2,3 Z " fill="#FFFFFF" opacity="0.9490196" transform="translate(119,185)"/>
<path d="M0,0 L1,0 L1,1 L0,1 Z M-1,1 L0,1 L0,2 L-1,2 Z M-2,2 L-1,2 L-1,3 L-2,3 Z M-3,3 L-2,3 L-2,4 L-3,4 Z M-4,4 L-3,4 L-3,5 L-4,5 Z M-5,5 L-4,5 L-4,6 L-5,6 Z M-6,6 L-5,6 L-5,7 L-6,7 Z " fill="#FFFFFF" opacity="0.015686275" transform="translate(154,128)"/>
<path d="M0,0 L1,0 L1,1 L0,1 Z M-1,1 L0,1 L0,2 L-1,2 Z " fill="#FFFFFF" opacity="0.21960784" transform="translate(127,178)"/>
<path d="M0,0 L1,0 L1,1 L0,1 Z M1,1 L2,1 L2,2 L1,2 Z " fill="#FFFFFF" opacity="0.49411765" transform="translate(114,8)"/>
<path d="M0,0 L1,0 L1,1 L0,1 Z M-1,1 L0,1 L0,2 L-1,2 Z " fill="#FFFFFF" opacity="0.21960784" transform="translate(115,190)"/>
<path d="M0,0 L1,0 L1,1 L0,1 Z " fill="#FFFFFF" opacity="0.78431374" transform="translate(127,177)"/>
<path d="M0,0 L1,0 L1,1 L0,1 Z M-1,1 L0,1 L0,2 L-1,2 Z " fill="#FFFFFF" opacity="0.6627451" transform="translate(155,126)"/>
<path d="M0,0 L1,0 L1,1 L0,1 Z M-1,1 L0,1 L0,2 L-1,2 Z M-2,2 L-1,2 L-1,3 L-2,3 Z " fill="#FFFFFF" opacity="0.015686275" transform="translate(158,124)"/>
<path d="M0,0 L1,0 L1,1 L0,1 Z M-1,1 L0,1 L0,2 L-1,2 Z " fill="#FFFFFF" opacity="0.6627451" transform="translate(159,122)"/>
<path d="M0,0 L1,0 L1,1 L0,1 Z M-1,1 L0,1 L0,2 L-1,2 Z M-2,2 L-1,2 L-1,3 L-2,3 Z " fill="#FFFFFF" opacity="0.015686275" transform="translate(162,120)"/>
<path d="M0,0 L1,0 L1,1 L0,1 Z M-1,1 L0,1 L0,2 L-1,2 Z " fill="#FFFFFF" opacity="0.64705884" transform="translate(163,118)"/>
<path d="M0,0 L1,0 L1,1 L0,1 Z M-1,1 L0,1 L0,2 L-1,2 Z M-2,2 L-1,2 L-1,3 L-2,3 Z " fill="#FFFFFF" opacity="0.015686275" transform="translate(166,116)"/>
<path d="M0,0 L1,0 L1,1 L0,1 Z M-1,1 L0,1 L0,2 L-1,2 Z " fill="#FFFFFF" opacity="0.64705884" transform="translate(167,114)"/>
<path d="M0,0 L1,0 L1,1 L0,1 Z M-1,1 L0,1 L0,2 L-1,2 Z " fill="#FFFFFF" opacity="0.6117647" transform="translate(55,94)"/>
<path d="M0,0 L1,0 L1,1 L0,1 Z M-1,1 L0,1 L0,2 L-1,2 Z M-2,2 L-1,2 L-1,3 L-2,3 Z " fill="#FFFFFF" opacity="0.015686275" transform="translate(27,93)"/>
<path d="M0,0 L1,0 L1,1 L0,1 Z M-1,1 L0,1 L0,2 L-1,2 Z " fill="#FFFFFF" opacity="0.64705884" transform="translate(29,92)"/>
<path d="M0,0 L1,0 L1,1 L0,1 Z M-1,1 L0,1 L0,2 L-1,2 Z " fill="#FFFFFF" opacity="0.6117647" transform="translate(59,90)"/>
<path d="M0,0 L1,0 L1,1 L0,1 Z M-1,1 L0,1 L0,2 L-1,2 Z M-2,2 L-1,2 L-1,3 L-2,3 Z " fill="#FFFFFF" opacity="0.015686275" transform="translate(31,89)"/>
<path d="M0,0 L1,0 L1,1 L0,1 Z M-1,1 L0,1 L0,2 L-1,2 Z " fill="#FFFFFF" opacity="0.64705884" transform="translate(33,88)"/>
<path d="M0,0 L1,0 L1,1 L0,1 Z M-1,1 L0,1 L0,2 L-1,2 Z " fill="#FFFFFF" opacity="0.6117647" transform="translate(63,86)"/>
<path d="M0,0 L1,0 L1,1 L0,1 Z M-1,1 L0,1 L0,2 L-1,2 Z M-2,2 L-1,2 L-1,3 L-2,3 Z " fill="#FFFFFF" opacity="0.015686275" transform="translate(35,85)"/>
<path d="M0,0 L1,0 L1,1 L0,1 Z M-1,1 L0,1 L0,2 L-1,2 Z " fill="#FFFFFF" opacity="0.64705884" transform="translate(37,84)"/>
<path d="M0,0 L1,0 L1,1 L0,1 Z M-1,1 L0,1 L0,2 L-1,2 Z " fill="#FFFFFF" opacity="0.6117647" transform="translate(67,82)"/>
<path d="M0,0 L1,0 L1,1 L0,1 Z M-1,1 L0,1 L0,2 L-1,2 Z M-2,2 L-1,2 L-1,3 L-2,3 Z " fill="#FFFFFF" opacity="0.015686275" transform="translate(39,81)"/>
<path d="M0,0 L1,0 L1,1 L0,1 Z M-1,1 L0,1 L0,2 L-1,2 Z " fill="#FFFFFF" opacity="0.64705884" transform="translate(41,80)"/>
<path d="M0,0 L1,0 L1,1 L0,1 Z M-1,1 L0,1 L0,2 L-1,2 Z " fill="#FFFFFF" opacity="0.6117647" transform="translate(71,78)"/>
<path d="M0,0 L1,0 L1,1 L0,1 Z M-1,1 L0,1 L0,2 L-1,2 Z M-2,2 L-1,2 L-1,3 L-2,3 Z " fill="#FFFFFF" opacity="0.015686275" transform="translate(43,77)"/>
<path d="M0,0 L1,0 L1,1 L0,1 Z M-1,1 L0,1 L0,2 L-1,2 Z " fill="#FFFFFF" opacity="0.64705884" transform="translate(45,76)"/>
<path d="M0,0 L1,0 L1,1 L0,1 Z M-1,1 L0,1 L0,2 L-1,2 Z " fill="#FFFFFF" opacity="0.6117647" transform="translate(75,74)"/>
<path d="M0,0 L1,0 L1,1 L0,1 Z M1,1 L2,1 L2,2 L1,2 Z M2,2 L3,2 L3,3 L2,3 Z " fill="#FFFFFF" opacity="0.6745098" transform="translate(147,73)"/>
<path d="M0,0 L1,0 L1,1 L0,1 Z M-1,1 L0,1 L0,2 L-1,2 Z M-2,2 L-1,2 L-1,3 L-2,3 Z " fill="#FFFFFF" opacity="0.015686275" transform="translate(47,73)"/>
<path d="M0,0 L1,0 L1,1 L0,1 Z M-1,1 L0,1 L0,2 L-1,2 Z " fill="#FFFFFF" opacity="0.6627451" transform="translate(49,72)"/>
<path d="M0,0 L1,0 L1,1 L0,1 Z M-1,1 L0,1 L0,2 L-1,2 Z " fill="#FFFFFF" opacity="0.6117647" transform="translate(79,70)"/>
<path d="M0,0 L1,0 L1,1 L0,1 Z M-1,1 L0,1 L0,2 L-1,2 Z M-2,2 L-1,2 L-1,3 L-2,3 Z " fill="#FFFFFF" opacity="0.015686275" transform="translate(51,69)"/>
<path d="M0,0 L1,0 L1,1 L0,1 Z M-1,1 L0,1 L0,2 L-1,2 Z " fill="#FFFFFF" opacity="0.6627451" transform="translate(53,68)"/>
<path d="M0,0 L1,0 L1,1 L0,1 Z M-1,1 L0,1 L0,2 L-1,2 Z " fill="#FFFFFF" opacity="0.6117647" transform="translate(83,66)"/>
<path d="M0,0 L1,0 L1,1 L0,1 Z M-1,1 L0,1 L0,2 L-1,2 Z M-2,2 L-1,2 L-1,3 L-2,3 Z " fill="#FFFFFF" opacity="0.015686275" transform="translate(55,65)"/>
<path d="M0,0 L1,0 L1,1 L0,1 Z M-1,1 L0,1 L0,2 L-1,2 Z " fill="#FFFFFF" opacity="0.6627451" transform="translate(57,64)"/>
<path d="M0,0 L1,0 L1,1 L0,1 Z M-1,1 L0,1 L0,2 L-1,2 Z " fill="#FFFFFF" opacity="0.6117647" transform="translate(87,62)"/>
<path d="M0,0 L1,0 L1,1 L0,1 Z M-1,1 L0,1 L0,2 L-1,2 Z M-2,2 L-1,2 L-1,3 L-2,3 Z " fill="#FFFFFF" opacity="0.015686275" transform="translate(59,61)"/>
<path d="M0,0 L1,0 L1,1 L0,1 Z M-1,1 L0,1 L0,2 L-1,2 Z " fill="#FFFFFF" opacity="0.6627451" transform="translate(61,60)"/>
<path d="M0,0 L1,0 L1,1 L0,1 Z M-1,1 L0,1 L0,2 L-1,2 Z M-2,2 L-1,2 L-1,3 L-2,3 Z " fill="#FFFFFF" opacity="0.015686275" transform="translate(63,57)"/>
<path d="M0,0 L1,0 L1,1 L0,1 Z M-1,1 L0,1 L0,2 L-1,2 Z " fill="#FFFFFF" opacity="0.6627451" transform="translate(65,56)"/>
<path d="M0,0 L1,0 L1,1 L0,1 Z M-1,1 L0,1 L0,2 L-1,2 Z " fill="#FFFFFF" opacity="0.6156863" transform="translate(111,38)"/>
<path d="M0,0 L1,0 L1,1 L0,1 Z M-1,1 L0,1 L0,2 L-1,2 Z " fill="#FFFFFF" opacity="0.6156863" transform="translate(115,34)"/>
<path d="M0,0 L1,0 L1,1 L0,1 Z M-1,1 L0,1 L0,2 L-1,2 Z " fill="#FFFFFF" opacity="0.6156863" transform="translate(119,30)"/>
<path d="M0,0 L1,0 L1,1 L0,1 Z M-1,1 L0,1 L0,2 L-1,2 Z " fill="#FFFFFF" opacity="0.6156863" transform="translate(123,26)"/>
<path d="M0,0 L1,0 L1,1 L0,1 Z M-1,1 L0,1 L0,2 L-1,2 Z M-2,2 L-1,2 L-1,3 L-2,3 Z " fill="#FFFFFF" opacity="0.62352943" transform="translate(126,23)"/>
<path d="M0,0 L1,0 L1,1 L0,1 Z M1,1 L2,1 L2,2 L1,2 Z " fill="#FFFFFF" opacity="0.3764706" transform="translate(112,190)"/>
<path d="M0,0 L1,0 L1,1 L0,1 Z M-1,1 L0,1 L0,2 L-1,2 Z " fill="#FFFFFF" opacity="0.9372549" transform="translate(115,189)"/>
<path d="M0,0 L1,0 L1,1 L0,1 Z M-1,1 L0,1 L0,2 L-1,2 Z " fill="#FFFFFF" opacity="0.23529412" transform="translate(117,188)"/>
<path d="M0,0 L1,0 L1,1 L0,1 Z M1,1 L2,1 L2,2 L1,2 Z " fill="#FFFFFF" opacity="0.37254903" transform="translate(110,188)"/>
<path d="M0,0 L1,0 L1,1 L0,1 Z M-1,1 L0,1 L0,2 L-1,2 Z " fill="#FFFFFF" opacity="0.22745098" transform="translate(119,186)"/>
<path d="M0,0 L1,0 L1,1 L0,1 Z M1,1 L2,1 L2,2 L1,2 Z " fill="#FFFFFF" opacity="0.3764706" transform="translate(108,186)"/>
<path d="M0,0 L1,0 L1,1 L0,1 Z M-1,1 L0,1 L0,2 L-1,2 Z " fill="#FFFFFF" opacity="0.23529412" transform="translate(121,184)"/>
<path d="M0,0 L1,0 L1,1 L0,1 Z M1,1 L2,1 L2,2 L1,2 Z " fill="#FFFFFF" opacity="0.37254903" transform="translate(106,184)"/>
<path d="M0,0 L1,0 L1,1 L0,1 Z M-1,1 L0,1 L0,2 L-1,2 Z " fill="#FFFFFF" opacity="0.22745098" transform="translate(123,182)"/>
<path d="M0,0 L1,0 L1,1 L0,1 Z M1,1 L2,1 L2,2 L1,2 Z " fill="#FFFFFF" opacity="0.3764706" transform="translate(104,182)"/>
<path d="M0,0 L1,0 L1,1 L0,1 Z M-1,1 L0,1 L0,2 L-1,2 Z " fill="#FFFFFF" opacity="0.23529412" transform="translate(125,180)"/>
<path d="M0,0 L1,0 L1,1 L0,1 Z M1,1 L2,1 L2,2 L1,2 Z " fill="#FFFFFF" opacity="0.37254903" transform="translate(102,180)"/>
<path d="M0,0 L1,0 L1,1 L0,1 Z M-1,1 L0,1 L0,2 L-1,2 Z " fill="#FFFFFF" opacity="0.9411765" transform="translate(126,178)"/>
<path d="M0,0 L1,0 L1,1 L0,1 Z M1,1 L2,1 L2,2 L1,2 Z " fill="#FFFFFF" opacity="0.3764706" transform="translate(100,178)"/>
<path d="M0,0 L1,0 L1,1 L0,1 Z M1,1 L2,1 L2,2 L1,2 Z " fill="#FFFFFF" opacity="0.37254903" transform="translate(98,176)"/>
<path d="M0,0 L1,0 L1,1 L0,1 Z M1,1 L2,1 L2,2 L1,2 Z " fill="#FFFFFF" opacity="0.3764706" transform="translate(96,174)"/>
<path d="M0,0 L1,0 L1,1 L0,1 Z M1,1 L2,1 L2,2 L1,2 Z " fill="#FFFFFF" opacity="0.37254903" transform="translate(94,172)"/>
<path d="M0,0 L1,0 L1,1 L0,1 Z M1,1 L2,1 L2,2 L1,2 Z " fill="#FFFFFF" opacity="0.3764706" transform="translate(92,170)"/>
<path d="M0,0 L1,0 L1,1 L0,1 Z M1,1 L2,1 L2,2 L1,2 Z " fill="#FFFFFF" opacity="0.37254903" transform="translate(90,168)"/>
<path d="M0,0 L1,0 L1,1 L0,1 Z M1,1 L2,1 L2,2 L1,2 Z " fill="#FFFFFF" opacity="0.3764706" transform="translate(88,166)"/>
<path d="M0,0 L1,0 L1,1 L0,1 Z M1,1 L2,1 L2,2 L1,2 Z " fill="#FFFFFF" opacity="0.37254903" transform="translate(86,164)"/>
<path d="M0,0 L1,0 L1,1 L0,1 Z M1,1 L2,1 L2,2 L1,2 Z " fill="#FFFFFF" opacity="0.3764706" transform="translate(84,162)"/>
<path d="M0,0 L1,0 L1,1 L0,1 Z M1,1 L2,1 L2,2 L1,2 Z " fill="#FFFFFF" opacity="0.37254903" transform="translate(82,160)"/>
<path d="M0,0 L1,0 L1,1 L0,1 Z M1,1 L2,1 L2,2 L1,2 Z " fill="#FFFFFF" opacity="0.3764706" transform="translate(80,158)"/>
<path d="M0,0 L1,0 L1,1 L0,1 Z M1,1 L2,1 L2,2 L1,2 Z " fill="#FFFFFF" opacity="0.37254903" transform="translate(78,156)"/>
<path d="M0,0 L1,0 L1,1 L0,1 Z M1,1 L2,1 L2,2 L1,2 Z " fill="#FFFFFF" opacity="0.3764706" transform="translate(76,154)"/>
<path d="M0,0 L1,0 L1,1 L0,1 Z M1,1 L2,1 L2,2 L1,2 Z " fill="#FFFFFF" opacity="0.37254903" transform="translate(74,152)"/>
<path d="M0,0 L1,0 L1,1 L0,1 Z M1,1 L2,1 L2,2 L1,2 Z " fill="#FFFFFF" opacity="0.3764706" transform="translate(72,150)"/>
<path d="M0,0 L1,0 L1,1 L0,1 Z M1,1 L2,1 L2,2 L1,2 Z " fill="#FFFFFF" opacity="0.37254903" transform="translate(70,148)"/>
<path d="M0,0 L1,0 L1,1 L0,1 Z M1,1 L2,1 L2,2 L1,2 Z " fill="#FFFFFF" opacity="0.3764706" transform="translate(68,146)"/>
<path d="M0,0 L1,0 L1,1 L0,1 Z M-1,1 L0,1 L0,2 L-1,2 Z " fill="#FFFFFF" opacity="0.65882355" transform="translate(149,132)"/>
<path d="M0,0 L1,0 L1,1 L0,1 Z M-1,1 L0,1 L0,2 L-1,2 Z " fill="#FFFFFF" opacity="0.6627451" transform="translate(151,130)"/>
<path d="M0,0 L1,0 L1,1 L0,1 Z M-1,1 L0,1 L0,2 L-1,2 Z " fill="#FFFFFF" opacity="0.65882355" transform="translate(153,128)"/>
<path d="M0,0 L1,0 L1,1 L0,1 Z M-1,1 L0,1 L0,2 L-1,2 Z " fill="#FFFFFF" opacity="0.654902" transform="translate(157,124)"/>
<path d="M0,0 L1,0 L1,1 L0,1 Z M-1,1 L0,1 L0,2 L-1,2 Z " fill="#FFFFFF" opacity="0.654902" transform="translate(161,120)"/>
<path d="M0,0 L1,0 L1,1 L0,1 Z M1,1 L2,1 L2,2 L1,2 Z " fill="#FFFFFF" opacity="0.35686275" transform="translate(42,120)"/>
<path d="M0,0 L1,0 L1,1 L0,1 Z M1,1 L2,1 L2,2 L1,2 Z " fill="#FFFFFF" opacity="0.36078432" transform="translate(40,118)"/>
<path d="M0,0 L1,0 L1,1 L0,1 Z M-1,1 L0,1 L0,2 L-1,2 Z " fill="#FFFFFF" opacity="0.6509804" transform="translate(165,116)"/>
<path d="M0,0 L1,0 L1,1 L0,1 Z M1,1 L2,1 L2,2 L1,2 Z " fill="#FFFFFF" opacity="0.35686275" transform="translate(38,116)"/>
<path d="M0,0 L1,0 L1,1 L0,1 Z M1,1 L2,1 L2,2 L1,2 Z " fill="#FFFFFF" opacity="0.36078432" transform="translate(36,114)"/>
<path d="M0,0 L1,0 L1,1 L0,1 Z M-1,1 L0,1 L0,2 L-1,2 Z " fill="#FFFFFF" opacity="0.6509804" transform="translate(169,112)"/>
<path d="M0,0 L1,0 L1,1 L0,1 Z M1,1 L2,1 L2,2 L1,2 Z " fill="#FFFFFF" opacity="0.35686275" transform="translate(34,112)"/>
<path d="M0,0 L1,0 L1,1 L0,1 Z M1,1 L2,1 L2,2 L1,2 Z " fill="#FFFFFF" opacity="0.36078432" transform="translate(32,110)"/>
<path d="M0,0 L1,0 L1,1 L0,1 Z M1,1 L2,1 L2,2 L1,2 Z " fill="#FFFFFF" opacity="0.35686275" transform="translate(30,108)"/>
<path d="M0,0 L1,0 L1,1 L0,1 Z M1,1 L2,1 L2,2 L1,2 Z " fill="#FFFFFF" opacity="0.36078432" transform="translate(28,106)"/>
<path d="M0,0 L1,0 L1,1 L0,1 Z M1,1 L2,1 L2,2 L1,2 Z " fill="#FFFFFF" opacity="0.35686275" transform="translate(26,104)"/>
<path d="M0,0 L1,0 L1,1 L0,1 Z M1,1 L2,1 L2,2 L1,2 Z " fill="#FFFFFF" opacity="0.6745098" transform="translate(176,102)"/>
<path d="M0,0 L1,0 L1,1 L0,1 Z M1,1 L2,1 L2,2 L1,2 Z " fill="#FFFFFF" opacity="0.36078432" transform="translate(24,102)"/>
<path d="M0,0 L1,0 L1,1 L0,1 Z M1,1 L2,1 L2,2 L1,2 Z " fill="#FFFFFF" opacity="0.6784314" transform="translate(174,100)"/>
<path d="M0,0 L1,0 L1,1 L0,1 Z M1,1 L2,1 L2,2 L1,2 Z " fill="#FFFFFF" opacity="0.35686275" transform="translate(22,100)"/>
<path d="M0,0 L1,0 L1,1 L0,1 Z M1,1 L2,1 L2,2 L1,2 Z " fill="#FFFFFF" opacity="0.6745098" transform="translate(172,98)"/>
<path d="M0,0 L1,0 L1,1 L0,1 Z M-1,1 L0,1 L0,2 L-1,2 Z " fill="#FFFFFF" opacity="0.015686275" transform="translate(23,97)"/>
<path d="M0,0 L1,0 L1,1 L0,1 Z M1,1 L2,1 L2,2 L1,2 Z " fill="#FFFFFF" opacity="0.6784314" transform="translate(170,96)"/>
<path d="M0,0 L1,0 L1,1 L0,1 Z M-1,1 L0,1 L0,2 L-1,2 Z " fill="#FFFFFF" opacity="0.60784316" transform="translate(53,96)"/>
<path d="M0,0 L1,0 L1,1 L0,1 Z M1,1 L2,1 L2,2 L1,2 Z " fill="#FFFFFF" opacity="0.6745098" transform="translate(168,94)"/>
<path d="M0,0 L1,0 L1,1 L0,1 Z M-1,1 L0,1 L0,2 L-1,2 Z " fill="#FFFFFF" opacity="0.6509804" transform="translate(27,94)"/>
<path d="M0,0 L1,0 L1,1 L0,1 Z M1,1 L2,1 L2,2 L1,2 Z " fill="#FFFFFF" opacity="0.6784314" transform="translate(166,92)"/>
<path d="M0,0 L1,0 L1,1 L0,1 Z M-1,1 L0,1 L0,2 L-1,2 Z " fill="#FFFFFF" opacity="0.60784316" transform="translate(57,92)"/>
<path d="M0,0 L1,0 L1,1 L0,1 Z M1,1 L2,1 L2,2 L1,2 Z " fill="#FFFFFF" opacity="0.6745098" transform="translate(164,90)"/>
<path d="M0,0 L1,0 L1,1 L0,1 Z M-1,1 L0,1 L0,2 L-1,2 Z " fill="#FFFFFF" opacity="0.6509804" transform="translate(31,90)"/>
<path d="M0,0 L1,0 L1,1 L0,1 Z M1,1 L2,1 L2,2 L1,2 Z " fill="#FFFFFF" opacity="0.6784314" transform="translate(162,88)"/>
<path d="M0,0 L1,0 L1,1 L0,1 Z M-1,1 L0,1 L0,2 L-1,2 Z " fill="#FFFFFF" opacity="0.60784316" transform="translate(61,88)"/>
<path d="M0,0 L1,0 L1,1 L0,1 Z M1,1 L2,1 L2,2 L1,2 Z " fill="#FFFFFF" opacity="0.6745098" transform="translate(160,86)"/>
<path d="M0,0 L1,0 L1,1 L0,1 Z M-1,1 L0,1 L0,2 L-1,2 Z " fill="#FFFFFF" opacity="0.6509804" transform="translate(35,86)"/>
<path d="M0,0 L1,0 L1,1 L0,1 Z M1,1 L2,1 L2,2 L1,2 Z " fill="#FFFFFF" opacity="0.6784314" transform="translate(158,84)"/>
<path d="M0,0 L1,0 L1,1 L0,1 Z M-1,1 L0,1 L0,2 L-1,2 Z " fill="#FFFFFF" opacity="0.60784316" transform="translate(65,84)"/>
<path d="M0,0 L1,0 L1,1 L0,1 Z M1,1 L2,1 L2,2 L1,2 Z " fill="#FFFFFF" opacity="0.6745098" transform="translate(156,82)"/>
<path d="M0,0 L1,0 L1,1 L0,1 Z M-1,1 L0,1 L0,2 L-1,2 Z " fill="#FFFFFF" opacity="0.6509804" transform="translate(39,82)"/>
<path d="M0,0 L1,0 L1,1 L0,1 Z M1,1 L2,1 L2,2 L1,2 Z " fill="#FFFFFF" opacity="0.6784314" transform="translate(154,80)"/>
<path d="M0,0 L1,0 L1,1 L0,1 Z M-1,1 L0,1 L0,2 L-1,2 Z " fill="#FFFFFF" opacity="0.60784316" transform="translate(69,80)"/>
<path d="M0,0 L1,0 L1,1 L0,1 Z M1,1 L2,1 L2,2 L1,2 Z " fill="#FFFFFF" opacity="0.6745098" transform="translate(152,78)"/>
<path d="M0,0 L1,0 L1,1 L0,1 Z M-1,1 L0,1 L0,2 L-1,2 Z " fill="#FFFFFF" opacity="0.6509804" transform="translate(43,78)"/>
<path d="M0,0 L1,0 L1,1 L0,1 Z M1,1 L2,1 L2,2 L1,2 Z " fill="#FFFFFF" opacity="0.6784314" transform="translate(150,76)"/>
<path d="M0,0 L1,0 L1,1 L0,1 Z M-1,1 L0,1 L0,2 L-1,2 Z " fill="#FFFFFF" opacity="0.60784316" transform="translate(73,76)"/>
<path d="M0,0 L1,0 L1,1 L0,1 Z M-1,1 L0,1 L0,2 L-1,2 Z " fill="#FFFFFF" opacity="0.654902" transform="translate(47,74)"/>
<path d="M0,0 L1,0 L1,1 L0,1 Z M-1,1 L0,1 L0,2 L-1,2 Z " fill="#FFFFFF" opacity="0.60784316" transform="translate(77,72)"/>
<path d="M0,0 L1,0 L1,1 L0,1 Z M-1,1 L0,1 L0,2 L-1,2 Z " fill="#FFFFFF" opacity="0.654902" transform="translate(51,70)"/>
<path d="M0,0 L1,0 L1,1 L0,1 Z M-1,1 L0,1 L0,2 L-1,2 Z " fill="#FFFFFF" opacity="0.60784316" transform="translate(81,68)"/>
<path d="M0,0 L1,0 L1,1 L0,1 Z M-1,1 L0,1 L0,2 L-1,2 Z " fill="#FFFFFF" opacity="0.654902" transform="translate(55,66)"/>
<path d="M0,0 L1,0 L1,1 L0,1 Z M-1,1 L0,1 L0,2 L-1,2 Z " fill="#FFFFFF" opacity="0.60784316" transform="translate(85,64)"/>
<path d="M0,0 L1,0 L1,1 L0,1 Z M-1,1 L0,1 L0,2 L-1,2 Z " fill="#FFFFFF" opacity="0.654902" transform="translate(59,62)"/>
<path d="M0,0 L1,0 L1,1 L0,1 Z M-1,1 L0,1 L0,2 L-1,2 Z " fill="#FFFFFF" opacity="0.60784316" transform="translate(89,60)"/>
<path d="M0,0 L1,0 L1,1 L0,1 Z M-1,1 L0,1 L0,2 L-1,2 Z " fill="#FFFFFF" opacity="0.654902" transform="translate(63,58)"/>
<path d="M0,0 L1,0 L1,1 L0,1 Z M-1,1 L0,1 L0,2 L-1,2 Z " fill="#FFFFFF" opacity="0.654902" transform="translate(67,54)"/>
<path d="M0,0 L1,0 L1,1 L0,1 Z M-1,1 L0,1 L0,2 L-1,2 Z " fill="#FFFFFF" opacity="0.6627451" transform="translate(69,52)"/>
<path d="M0,0 L1,0 L1,1 L0,1 Z M-1,1 L0,1 L0,2 L-1,2 Z " fill="#FFFFFF" opacity="0.65882355" transform="translate(71,50)"/>
<path d="M0,0 L1,0 L1,1 L0,1 Z M-1,1 L0,1 L0,2 L-1,2 Z " fill="#FFFFFF" opacity="0.6627451" transform="translate(73,48)"/>
<path d="M0,0 L1,0 L1,1 L0,1 Z M-1,1 L0,1 L0,2 L-1,2 Z " fill="#FFFFFF" opacity="0.65882355" transform="translate(75,46)"/>
<path d="M0,0 L1,0 L1,1 L0,1 Z M-1,1 L0,1 L0,2 L-1,2 Z " fill="#FFFFFF" opacity="0.6627451" transform="translate(77,44)"/>
<path d="M0,0 L1,0 L1,1 L0,1 Z M-1,1 L0,1 L0,2 L-1,2 Z " fill="#FFFFFF" opacity="0.65882355" transform="translate(79,42)"/>
<path d="M0,0 L1,0 L1,1 L0,1 Z M-1,1 L0,1 L0,2 L-1,2 Z " fill="#FFFFFF" opacity="0.62352943" transform="translate(109,40)"/>
<path d="M0,0 L1,0 L1,1 L0,1 Z M-1,1 L0,1 L0,2 L-1,2 Z " fill="#FFFFFF" opacity="0.6627451" transform="translate(81,40)"/>
<path d="M0,0 L1,0 L1,1 L0,1 Z M-1,1 L0,1 L0,2 L-1,2 Z " fill="#FFFFFF" opacity="0.65882355" transform="translate(83,38)"/>
<path d="M0,0 L1,0 L1,1 L0,1 Z M-1,1 L0,1 L0,2 L-1,2 Z " fill="#FFFFFF" opacity="0.62352943" transform="translate(113,36)"/>
<path d="M0,0 L1,0 L1,1 L0,1 Z M-1,1 L0,1 L0,2 L-1,2 Z " fill="#FFFFFF" opacity="0.6627451" transform="translate(85,36)"/>
<path d="M0,0 L1,0 L1,1 L0,1 Z M-1,1 L0,1 L0,2 L-1,2 Z " fill="#FFFFFF" opacity="0.65882355" transform="translate(87,34)"/>
<path d="M0,0 L1,0 L1,1 L0,1 Z M-1,1 L0,1 L0,2 L-1,2 Z " fill="#FFFFFF" opacity="0.62352943" transform="translate(117,32)"/>
<path d="M0,0 L1,0 L1,1 L0,1 Z M-1,1 L0,1 L0,2 L-1,2 Z " fill="#FFFFFF" opacity="0.62352943" transform="translate(121,28)"/>
<path d="M0,0 L1,0 L1,1 L0,1 Z M1,1 L2,1 L2,2 L1,2 Z " fill="#FFFFFF" opacity="0.49803922" transform="translate(116,10)"/>
<path d="M0,0 L1,0 L1,1 L0,1 Z M-1,1 L0,1 L0,2 L-1,2 Z " fill="#FFFFFF" opacity="0.007843138" transform="translate(113,7)"/>
<path d="M0,0 L1,0 L1,1 L0,1 Z " fill="#FFFFFF" opacity="0.94509804" transform="translate(116,188)"/>
<path d="M0,0 L1,0 L1,1 L0,1 Z " fill="#FFFFFF" opacity="0.94509804" transform="translate(120,184)"/>
<path d="M0,0 L1,0 L1,1 L0,1 Z " fill="#FFFFFF" opacity="0.94509804" transform="translate(124,180)"/>
<path d="M0,0 L1,0 L1,1 L0,1 Z " fill="#FFFFFF" opacity="0.003921569" transform="translate(127,179)"/>
<path d="M0,0 L1,0 L1,1 L0,1 Z " fill="#FFFFFF" opacity="0.003921569" transform="translate(128,177)"/>
<path d="M0,0 L1,0 L1,1 L0,1 Z " fill="#FFFFFF" opacity="0.09411765" transform="translate(127,176)"/>
<path d="M0,0 L1,0 L1,1 L0,1 Z " fill="#FFFFFF" opacity="0.84705883" transform="translate(126,176)"/>
<path d="M0,0 L1,0 L1,1 L0,1 Z " fill="#FFFFFF" opacity="0.99215686" transform="translate(87,164)"/>
<path d="M0,0 L1,0 L1,1 L0,1 Z " fill="#FFFFFF" opacity="0.99215686" transform="translate(83,160)"/>
<path d="M0,0 L1,0 L1,1 L0,1 Z " fill="#FFFFFF" opacity="0.99215686" transform="translate(79,156)"/>
<path d="M0,0 L1,0 L1,1 L0,1 Z " fill="#FFFFFF" opacity="0.99215686" transform="translate(75,152)"/>
<path d="M0,0 L1,0 L1,1 L0,1 Z " fill="#FFFFFF" opacity="0.99215686" transform="translate(71,148)"/>
<path d="M0,0 L1,0 L1,1 L0,1 Z " fill="#FFFFFF" opacity="0.003921569" transform="translate(64,143)"/>
<path d="M0,0 L1,0 L1,1 L0,1 Z " fill="#FFFFFF" opacity="0.003921569" transform="translate(60,139)"/>
<path d="M0,0 L1,0 L1,1 L0,1 Z " fill="#FFFFFF" opacity="0.003921569" transform="translate(56,135)"/>
<path d="M0,0 L1,0 L1,1 L0,1 Z " fill="#FFFFFF" opacity="0.6745098" transform="translate(147,134)"/>
<path d="M0,0 L1,0 L1,1 L0,1 Z " fill="#FFFFFF" opacity="0.003921569" transform="translate(52,131)"/>
<path d="M0,0 L1,0 L1,1 L0,1 Z " fill="#FFFFFF" opacity="0.011764706" transform="translate(155,127)"/>
<path d="M0,0 L1,0 L1,1 L0,1 Z " fill="#FFFFFF" opacity="0.003921569" transform="translate(48,127)"/>
<path d="M0,0 L1,0 L1,1 L0,1 Z " fill="#FFFFFF" opacity="0.011764706" transform="translate(159,123)"/>
<path d="M0,0 L1,0 L1,1 L0,1 Z " fill="#FFFFFF" opacity="0.003921569" transform="translate(44,123)"/>
<path d="M0,0 L1,0 L1,1 L0,1 Z " fill="#FFFFFF" opacity="0.019607844" transform="translate(163,119)"/>
<path d="M0,0 L1,0 L1,1 L0,1 Z " fill="#FFFFFF" opacity="0.019607844" transform="translate(167,115)"/>
<path d="M0,0 L1,0 L1,1 L0,1 Z " fill="#FFFFFF" opacity="0.015686275" transform="translate(51,99)"/>
<path d="M0,0 L1,0 L1,1 L0,1 Z " fill="#FFFFFF" opacity="0.6313726" transform="translate(50,99)"/>
<path d="M0,0 L1,0 L1,1 L0,1 Z " fill="#FFFFFF" opacity="0.6" transform="translate(51,98)"/>
<path d="M0,0 L1,0 L1,1 L0,1 Z " fill="#FFFFFF" opacity="0.019607844" transform="translate(24,96)"/>
<path d="M0,0 L1,0 L1,1 L0,1 Z " fill="#FFFFFF" opacity="0.003921569" transform="translate(55,95)"/>
<path d="M0,0 L1,0 L1,1 L0,1 Z " fill="#FFFFFF" opacity="0.019607844" transform="translate(28,92)"/>
<path d="M0,0 L1,0 L1,1 L0,1 Z " fill="#FFFFFF" opacity="0.003921569" transform="translate(127,91)"/>
<path d="M0,0 L1,0 L1,1 L0,1 Z " fill="#FFFFFF" opacity="0.003921569" transform="translate(59,91)"/>
<path d="M0,0 L1,0 L1,1 L0,1 Z " fill="#FFFFFF" opacity="0.019607844" transform="translate(32,88)"/>
<path d="M0,0 L1,0 L1,1 L0,1 Z " fill="#FFFFFF" opacity="0.003921569" transform="translate(131,87)"/>
<path d="M0,0 L1,0 L1,1 L0,1 Z " fill="#FFFFFF" opacity="0.003921569" transform="translate(63,87)"/>
<path d="M0,0 L1,0 L1,1 L0,1 Z " fill="#FFFFFF" opacity="0.019607844" transform="translate(36,84)"/>
<path d="M0,0 L1,0 L1,1 L0,1 Z " fill="#FFFFFF" opacity="0.003921569" transform="translate(135,83)"/>
<path d="M0,0 L1,0 L1,1 L0,1 Z " fill="#FFFFFF" opacity="0.003921569" transform="translate(67,83)"/>
<path d="M0,0 L1,0 L1,1 L0,1 Z " fill="#FFFFFF" opacity="0.019607844" transform="translate(40,80)"/>
<path d="M0,0 L1,0 L1,1 L0,1 Z " fill="#FFFFFF" opacity="0.007843138" transform="translate(71,79)"/>
<path d="M0,0 L1,0 L1,1 L0,1 Z " fill="#FFFFFF" opacity="0.019607844" transform="translate(44,76)"/>
<path d="M0,0 L1,0 L1,1 L0,1 Z " fill="#FFFFFF" opacity="0.007843138" transform="translate(75,75)"/>
<path d="M0,0 L1,0 L1,1 L0,1 Z " fill="#FFFFFF" opacity="0.011764706" transform="translate(48,72)"/>
<path d="M0,0 L1,0 L1,1 L0,1 Z " fill="#FFFFFF" opacity="0.007843138" transform="translate(79,71)"/>
<path d="M0,0 L1,0 L1,1 L0,1 Z " fill="#FFFFFF" opacity="0.011764706" transform="translate(52,68)"/>
<path d="M0,0 L1,0 L1,1 L0,1 Z " fill="#FFFFFF" opacity="0.007843138" transform="translate(83,67)"/>
<path d="M0,0 L1,0 L1,1 L0,1 Z " fill="#FFFFFF" opacity="0.011764706" transform="translate(56,64)"/>
<path d="M0,0 L1,0 L1,1 L0,1 Z " fill="#FFFFFF" opacity="0.007843138" transform="translate(87,63)"/>
<path d="M0,0 L1,0 L1,1 L0,1 Z " fill="#FFFFFF" opacity="0.011764706" transform="translate(60,60)"/>
<path d="M0,0 L1,0 L1,1 L0,1 Z " fill="#FFFFFF" opacity="0.007843138" transform="translate(91,59)"/>
<path d="M0,0 L1,0 L1,1 L0,1 Z " fill="#FFFFFF" opacity="0.011764706" transform="translate(64,56)"/>
<path d="M0,0 L1,0 L1,1 L0,1 Z " fill="#FFFFFF" opacity="0.007843138" transform="translate(95,55)"/>
<path d="M0,0 L1,0 L1,1 L0,1 Z " fill="#FFFFFF" opacity="0.007843138" transform="translate(99,51)"/>
<path d="M0,0 L1,0 L1,1 L0,1 Z " fill="#FFFFFF" opacity="0.007843138" transform="translate(103,47)"/>
<path d="M0,0 L1,0 L1,1 L0,1 Z " fill="#FFFFFF" opacity="0.007843138" transform="translate(107,43)"/>
<path d="M0,0 L1,0 L1,1 L0,1 Z " fill="#FFFFFF" opacity="0.011764706" transform="translate(111,39)"/>
<path d="M0,0 L1,0 L1,1 L0,1 Z " fill="#FFFFFF" opacity="0.011764706" transform="translate(115,35)"/>
<path d="M0,0 L1,0 L1,1 L0,1 Z " fill="#FFFFFF" opacity="0.011764706" transform="translate(119,31)"/>
<path d="M0,0 L1,0 L1,1 L0,1 Z " fill="#FFFFFF" opacity="0.011764706" transform="translate(123,27)"/>
<path d="M0,0 L1,0 L1,1 L0,1 Z " fill="#FFFFFF" opacity="0.007843138" transform="translate(127,23)"/>
<path d="M0,0 L1,0 L1,1 L0,1 Z " fill="#FFFFFF" opacity="0.003921569" transform="translate(128,22)"/>
<path d="M0,0 L1,0 L1,1 L0,1 Z " fill="#FFFFFF" opacity="0.6156863" transform="translate(127,22)"/>
<path d="M0,0 L1,0 L1,1 L0,1 Z " fill="#FFFFFF" opacity="0.007843138" transform="translate(127,20)"/>
<path d="M0,0 L1,0 L1,1 L0,1 Z " fill="#FFFFFF" opacity="0.99607843" transform="translate(116,11)"/>
<path d="M0,0 L1,0 L1,1 L0,1 Z " fill="#FFFFFF" opacity="0.007843138" transform="translate(115,8)"/>
<path d="M0,0 L1,0 L1,1 L0,1 Z " fill="#FFFFFF" opacity="0.654902" transform="translate(113,8)"/>
</svg>
