<?xml version="1.0" encoding="UTF-8"?>
<!-- Generator: visioncortex VTracer 0.6.4 -->
<svg version="1.1" xmlns="http://www.w3.org/2000/svg" width="128" height="128">
<path d="M0,0 L24,0 L24,1 L25,1 L25,7 L26,7 L26,14 L27,14 L27,17 L29,17 L29,18 L31,18 L31,19 L33,19 L33,20 L34,20 L34,21 L36,21 L36,22 L37,22 L37,21 L40,21 L40,20 L42,20 L42,19 L45,19 L45,18 L47,18 L47,17 L50,17 L50,16 L51,16 L51,17 L52,17 L52,18 L53,18 L53,19 L54,19 L54,21 L55,21 L55,23 L56,23 L56,25 L57,25 L57,26 L58,26 L58,28 L59,28 L59,30 L60,30 L60,31 L61,31 L61,33 L62,33 L62,35 L63,35 L63,39 L61,39 L61,40 L60,40 L60,41 L59,41 L59,42 L57,42 L57,43 L56,43 L56,44 L55,44 L55,45 L54,45 L54,46 L52,46 L52,47 L51,47 L51,59 L52,59 L52,60 L54,60 L54,61 L55,61 L55,62 L56,62 L56,63 L57,63 L57,64 L59,64 L59,65 L60,65 L60,66 L61,66 L61,67 L63,67 L63,71 L62,71 L62,73 L60,73 L60,76 L59,76 L59,78 L58,78 L58,80 L57,80 L57,81 L56,81 L56,83 L55,83 L55,85 L54,85 L54,87 L53,87 L53,88 L52,88 L52,89 L51,89 L51,90 L50,90 L50,89 L47,89 L47,88 L45,88 L45,87 L42,87 L42,86 L40,86 L40,85 L37,85 L37,84 L35,84 L35,85 L34,85 L34,86 L33,86 L33,87 L31,87 L31,88 L29,88 L29,89 L27,89 L27,92 L26,92 L26,99 L25,99 L25,105 L24,105 L24,106 L0,106 L0,105 L-1,105 L-1,99 L-2,99 L-2,92 L-3,92 L-3,89 L-5,89 L-5,88 L-7,88 L-7,87 L-9,87 L-9,86 L-10,86 L-10,85 L-12,85 L-12,84 L-13,84 L-13,85 L-16,85 L-16,86 L-18,86 L-18,87 L-21,87 L-21,88 L-23,88 L-23,89 L-26,89 L-26,90 L-27,90 L-27,89 L-28,89 L-28,88 L-29,88 L-29,87 L-30,87 L-30,85 L-31,85 L-31,83 L-32,83 L-32,81 L-33,81 L-33,80 L-34,80 L-34,78 L-35,78 L-35,76 L-36,76 L-36,75 L-37,75 L-37,73 L-38,73 L-38,71 L-39,71 L-39,67 L-37,67 L-37,66 L-36,66 L-36,65 L-35,65 L-35,64 L-34,64 L-34,63 L-32,63 L-32,62 L-31,62 L-31,61 L-28,61 L-28,59 L-27,59 L-27,47 L-28,47 L-28,46 L-30,46 L-30,45 L-31,45 L-31,44 L-32,44 L-32,43 L-33,43 L-33,42 L-35,42 L-35,41 L-36,41 L-36,37 L-39,37 L-39,35 L-38,35 L-38,33 L-37,33 L-37,31 L-36,31 L-36,30 L-35,30 L-35,28 L-34,28 L-34,26 L-33,26 L-33,25 L-32,25 L-32,23 L-31,23 L-31,21 L-30,21 L-30,19 L-29,19 L-29,18 L-28,18 L-28,17 L-27,17 L-27,16 L-26,16 L-26,17 L-23,17 L-23,18 L-21,18 L-21,19 L-18,19 L-18,20 L-16,20 L-16,21 L-13,21 L-13,22 L-12,22 L-12,21 L-10,21 L-10,20 L-9,20 L-9,19 L-7,19 L-7,18 L-5,18 L-5,17 L-3,17 L-3,14 L-2,14 L-2,7 L-1,7 L-1,1 L0,1 Z M8,39 L8,40 L4,40 L4,41 L2,41 L2,42 L1,42 L1,43 L0,43 L0,44 L-1,44 L-1,45 L-2,45 L-2,47 L-3,47 L-3,49 L-4,49 L-4,65 L-2,65 L-2,66 L-1,66 L-1,68 L0,68 L0,69 L2,69 L2,70 L4,70 L4,71 L7,71 L7,72 L12,72 L12,73 L16,73 L16,72 L17,72 L17,71 L20,71 L20,70 L22,70 L22,69 L24,69 L24,68 L25,68 L25,66 L26,66 L26,65 L27,65 L27,62 L28,62 L28,45 L25,45 L25,44 L24,44 L24,43 L23,43 L23,42 L22,42 L22,41 L20,41 L20,40 L16,40 L16,39 Z " fill="#FFFFFF" transform="translate(52,11)"/>
<path d="M0,0 L1,0 L1,1 L0,1 Z M65,8 L66,8 L66,9 L65,9 Z M66,11 L67,11 L67,12 L66,12 Z M35,25 L36,25 L36,28 L35,28 Z " fill="#FFFFFF" opacity="0.99607843" transform="translate(13,48)"/>
<path d="M0,0 L21,0 L21,1 L0,1 Z " fill="#FFFFFF" opacity="0.32941177" transform="translate(54,117)"/>
<path d="M0,0 L21,0 L21,1 L0,1 Z " fill="#FFFFFF" opacity="0.34509805" transform="translate(54,10)"/>
<path d="M0,0 L1,0 L1,1 L0,1 Z " fill="#FFFFFF" opacity="0.003921569" transform="translate(114,76)"/>
<path d="M0,0 L1,0 L1,1 L0,1 Z " fill="#FFFFFF" opacity="0.21176471" transform="translate(79,69)"/>
<path d="M0,0 L1,0 L1,1 L0,1 Z " fill="#FFFFFF" opacity="0.20784314" transform="translate(48,69)"/>
<path d="M0,0 L1,0 L1,3 L0,3 L0,2 L-1,2 L-1,1 L0,1 Z " fill="#FFFFFF" opacity="0.99607843" transform="translate(79,56)"/>
<path d="M0,0 L1,0 L1,1 L0,1 Z " fill="#FFFFFF" opacity="0.3764706" transform="translate(63,82)"/>
<path d="M0,0 L1,0 L1,1 L0,1 Z M-1,1 L0,1 L0,2 L-1,2 Z " fill="#FFFFFF" opacity="0.96862745" transform="translate(24,27)"/>
<path d="M0,0 L1,0 L1,1 L0,1 Z " fill="#FFFFFF" opacity="0.9529412" transform="translate(23,70)"/>
<path d="M0,0 L1,0 L1,1 L0,1 Z " fill="#FFFFFF" opacity="0.8117647" transform="translate(12,80)"/>
<path d="M0,0 L1,0 L1,1 L0,1 Z " fill="#FFFFFF" opacity="0.9490196" transform="translate(71,51)"/>
<path d="M0,0 L2,0 L2,3 L1,3 L1,2 L-1,2 L-1,1 L0,1 Z " fill="#FFFFFF" opacity="0.99607843" transform="translate(14,48)"/>
<path d="M0,0 L1,0 L1,1 L0,1 Z " fill="#FFFFFF" opacity="0.96862745" transform="translate(76,78)"/>
<path d="M0,0 L1,0 L1,1 L0,1 Z " fill="#FFFFFF" opacity="0.7490196" transform="translate(103,67)"/>
<path d="M0,0 L2,0 L2,1 L0,1 Z " fill="#FFFFFF" opacity="0.6862745" transform="translate(63,50)"/>
<path d="M0,0 L1,0 L1,1 L0,1 Z " fill="#FFFFFF" opacity="0.0627451" transform="translate(78,109)"/>
<path d="M0,0 L1,0 L1,1 L0,1 Z " fill="#FFFFFF" opacity="0.07450981" transform="translate(49,109)"/>
<path d="M0,0 L1,0 L1,1 L0,1 Z " fill="#FFFFFF" opacity="0.37254903" transform="translate(45,99)"/>
<path d="M0,0 L1,0 L1,1 L0,1 Z " fill="#FFFFFF" opacity="0.8745098" transform="translate(41,96)"/>
<path d="M0,0 L1,0 L1,1 L0,1 Z " fill="#FFFFFF" opacity="0.9843137" transform="translate(19,92)"/>
<path d="M0,0 L4,0 L4,1 L0,1 Z " fill="#FFFFFF" opacity="0.99607843" transform="translate(64,83)"/>
<path d="M0,0 L1,0 L1,1 L0,1 Z " fill="#FFFFFF" opacity="0.78039217" transform="translate(115,80)"/>
<path d="M0,0 L1,0 L1,1 L0,1 Z " fill="#FFFFFF" opacity="0.81960785" transform="translate(15,76)"/>
<path d="M0,0 L1,0 L1,1 L0,1 Z " fill="#FFFFFF" opacity="0.8901961" transform="translate(19,73)"/>
<path d="M0,0 L1,0 L1,1 L0,1 Z " fill="#FFFFFF" opacity="0.16078432" transform="translate(79,64)"/>
<path d="M0,0 L1,0 L1,1 L0,1 Z " fill="#FFFFFF" opacity="0.15294118" transform="translate(48,64)"/>
<path d="M0,0 L1,0 L1,1 L0,1 Z " fill="#FFFFFF" opacity="0.89411765" transform="translate(103,62)"/>
<path d="M0,0 L1,0 L1,1 L0,1 Z " fill="#FFFFFF" opacity="0.9137255" transform="translate(24,62)"/>
<path d="M0,0 L1,0 L1,1 L0,1 Z " fill="#FFFFFF" opacity="0.47058824" transform="translate(115,46)"/>
<path d="M0,0 L1,0 L1,1 L0,1 Z " fill="#FFFFFF" opacity="0.03529412" transform="translate(12,45)"/>
<path d="M0,0 L1,0 L1,1 L0,1 Z " fill="#FFFFFF" opacity="0.4392157" transform="translate(111,39)"/>
<path d="M0,0 L1,0 L1,1 L0,1 Z " fill="#FFFFFF" opacity="0.47058824" transform="translate(16,39)"/>
<path d="M0,0 L1,0 L1,1 L0,1 Z " fill="#FFFFFF" opacity="0.90588236" transform="translate(41,31)"/>
<path d="M0,0 L1,0 L1,1 L0,1 Z " fill="#FFFFFF" opacity="0.8784314" transform="translate(44,29)"/>
<path d="M0,0 L1,0 L1,1 L0,1 Z " fill="#FFFFFF" opacity="0.9529412" transform="translate(104,28)"/>
<path d="M0,0 L1,0 L1,1 L0,1 Z M-1,1 L0,1 L0,2 L-1,2 Z M-2,2 L-1,2 L-1,3 L-2,3 Z M-3,3 L-2,3 L-2,4 L-3,4 Z " fill="#FFFFFF" transform="translate(25,27)"/>
<path d="M0,0 L1,0 L1,1 L0,1 Z " fill="#FFFFFF" opacity="0.49019608" transform="translate(78,21)"/>
<path d="M0,0 L1,0 L1,1 L0,1 Z " fill="#FFFFFF" opacity="0.5294118" transform="translate(49,21)"/>
<path d="M0,0 L1,0 L1,1 L0,1 Z " fill="#FFFFFF" opacity="0.63529414" transform="translate(77,15)"/>
<path d="M0,0 L1,0 L1,1 L0,1 Z " fill="#FFFFFF" opacity="0.654902" transform="translate(50,15)"/>
<path d="M0,0 L1,0 L1,1 L0,1 Z " fill="#FFFFFF" opacity="0.34509805" transform="translate(77,114)"/>
<path d="M0,0 L1,0 L1,1 L0,1 Z " fill="#FFFFFF" opacity="0.3647059" transform="translate(50,114)"/>
<path d="M0,0 L1,0 L1,1 L0,1 Z " fill="#FFFFFF" opacity="0.1882353" transform="translate(102,101)"/>
<path d="M0,0 L1,0 L1,1 L0,1 Z " fill="#FFFFFF" opacity="0.16862746" transform="translate(25,101)"/>
<path d="M0,0 L1,0 L1,1 L0,1 Z " fill="#FFFFFF" opacity="0.96862745" transform="translate(23,99)"/>
<path d="M0,0 L1,0 L1,1 L0,1 Z " fill="#FFFFFF" opacity="0.9411765" transform="translate(16,87)"/>
<path d="M0,0 L1,0 L1,1 L0,1 Z " fill="#FFFFFF" opacity="0.96862745" transform="translate(51,78)"/>
<path d="M0,0 L1,0 L1,1 L0,1 Z " fill="#FFFFFF" opacity="0.8745098" transform="translate(108,73)"/>
<path d="M0,0 L1,0 L1,1 L0,1 Z " fill="#FFFFFF" opacity="0.76862746" transform="translate(24,67)"/>
<path d="M0,0 L1,0 L1,1 L0,1 Z " fill="#FFFFFF" opacity="0.019607844" transform="translate(79,66)"/>
<path d="M0,0 L1,0 L1,1 L0,1 Z " fill="#FFFFFF" opacity="0.015686275" transform="translate(48,66)"/>
<path d="M0,0 L1,0 L1,2 L0,2 Z " fill="#FFFFFF" opacity="0.9647059" transform="translate(103,63)"/>
<path d="M0,0 L1,0 L1,2 L0,2 Z " fill="#FFFFFF" opacity="0.9843137" transform="translate(24,63)"/>
<path d="M0,0 L1,0 L1,1 L0,1 Z " fill="#FFFFFF" opacity="0.9372549" transform="translate(23,57)"/>
<path d="M0,0 L1,0 L1,1 L0,1 Z " fill="#FFFFFF" opacity="0.78039217" transform="translate(77,56)"/>
<path d="M0,0 L1,0 L1,1 L0,1 Z " fill="#FFFFFF" opacity="0.96862745" transform="translate(18,53)"/>
<path d="M0,0 L1,0 L1,1 L0,1 Z " fill="#FFFFFF" opacity="0.37254903" transform="translate(58,51)"/>
<path d="M0,0 L1,0 L1,1 L0,1 Z " fill="#FFFFFF" opacity="0.9372549" transform="translate(14,50)"/>
<path d="M0,0 L1,0 L1,1 L0,1 Z " fill="#FFFFFF" opacity="0.78039217" transform="translate(12,48)"/>
<path d="M0,0 L1,0 L1,1 L0,1 Z " fill="#FFFFFF" opacity="0.90588236" transform="translate(86,31)"/>
<path d="M0,0 L1,0 L1,1 L0,1 Z " fill="#FFFFFF" opacity="0.1882353" transform="translate(102,26)"/>
<path d="M0,0 L1,0 L1,1 L0,1 Z " fill="#FFFFFF" opacity="0.21960784" transform="translate(25,26)"/>
<path d="M0,0 L1,0 L1,1 L0,1 Z " fill="#FFFFFF" opacity="0.05882353" transform="translate(79,25)"/>
<path d="M0,0 L1,0 L1,1 L0,1 Z M-1,1 L0,1 L0,2 L-1,2 Z " fill="#FFFFFF" transform="translate(52,11)"/>
<path d="M0,0 L1,0 L1,1 L0,1 Z " fill="#FFFFFF" opacity="0.32941177" transform="translate(53,117)"/>
<path d="M0,0 L1,0 L1,1 L0,1 Z " fill="#FFFFFF" opacity="0.62352943" transform="translate(77,112)"/>
<path d="M0,0 L1,0 L1,1 L0,1 Z " fill="#FFFFFF" opacity="0.64705884" transform="translate(50,112)"/>
<path d="M0,0 L1,0 L1,1 L0,1 Z " fill="#FFFFFF" opacity="0.3529412" transform="translate(78,107)"/>
<path d="M0,0 L1,0 L1,1 L0,1 Z " fill="#FFFFFF" opacity="0.3764706" transform="translate(49,107)"/>
<path d="M0,0 L1,0 L1,1 L0,1 Z " fill="#FFFFFF" opacity="0.63529414" transform="translate(78,105)"/>
<path d="M0,0 L1,0 L1,1 L0,1 Z " fill="#FFFFFF" opacity="0.654902" transform="translate(49,105)"/>
<path d="M0,0 L1,0 L1,1 L0,1 Z " fill="#FFFFFF" opacity="0.0627451" transform="translate(79,102)"/>
<path d="M0,0 L1,0 L1,1 L0,1 Z " fill="#FFFFFF" opacity="0.09411765" transform="translate(48,102)"/>
<path d="M0,0 L1,0 L1,1 L0,1 Z " fill="#FFFFFF" opacity="0.61960787" transform="translate(100,100)"/>
<path d="M0,0 L1,0 L1,1 L0,1 Z " fill="#FFFFFF" opacity="0.007843138" transform="translate(81,100)"/>
<path d="M0,0 L1,0 L1,1 L0,1 Z " fill="#FFFFFF" opacity="0.3647059" transform="translate(47,100)"/>
<path d="M0,0 L1,0 L1,1 L0,1 Z " fill="#FFFFFF" opacity="0.40784314" transform="translate(97,99)"/>
<path d="M0,0 L1,0 L1,1 L0,1 Z " fill="#FFFFFF" opacity="0.015686275" transform="translate(83,99)"/>
<path d="M0,0 L1,0 L1,1 L0,1 Z " fill="#FFFFFF" opacity="0.05882353" transform="translate(31,99)"/>
<path d="M0,0 L1,0 L1,1 L0,1 Z " fill="#FFFFFF" opacity="0.5921569" transform="translate(95,98)"/>
<path d="M0,0 L1,0 L1,1 L0,1 Z " fill="#FFFFFF" opacity="0.8627451" transform="translate(44,98)"/>
<path d="M0,0 L1,0 L1,1 L0,1 Z " fill="#FFFFFF" opacity="0.20392157" transform="translate(33,98)"/>
<path d="M0,0 L1,0 L1,1 L0,1 Z " fill="#FFFFFF" opacity="0.40784314" transform="translate(92,97)"/>
<path d="M0,0 L1,0 L1,1 L0,1 Z " fill="#FFFFFF" opacity="0.043137256" transform="translate(36,97)"/>
<path d="M0,0 L1,0 L1,1 L0,1 Z " fill="#FFFFFF" opacity="0.6039216" transform="translate(90,96)"/>
<path d="M0,0 L1,0 L1,1 L0,1 Z " fill="#FFFFFF" opacity="0.03137255" transform="translate(111,89)"/>
<path d="M0,0 L1,0 L1,2 L0,2 Z " fill="#FFFFFF" opacity="0.99607843" transform="translate(112,84)"/>
<path d="M0,0 L1,0 L1,1 L0,1 Z " fill="#FFFFFF" opacity="0.62352943" transform="translate(67,82)"/>
<path d="M0,0 L1,0 L1,1 L0,1 Z " fill="#FFFFFF" opacity="0.5294118" transform="translate(61,82)"/>
<path d="M0,0 L1,0 L1,1 L0,1 Z " fill="#FFFFFF" opacity="0.32156864" transform="translate(70,81)"/>
<path d="M0,0 L1,0 L1,1 L0,1 Z " fill="#FFFFFF" opacity="0.05882353" transform="translate(58,81)"/>
<path d="M0,0 L1,0 L1,1 L0,1 Z " fill="#FFFFFF" opacity="0.69803923" transform="translate(73,80)"/>
<path d="M0,0 L1,0 L1,1 L0,1 Z " fill="#FFFFFF" opacity="0.9764706" transform="translate(75,79)"/>
<path d="M0,0 L1,0 L1,1 L0,1 Z M1,1 L2,1 L2,2 L1,2 Z " fill="#FFFFFF" opacity="0.28235295" transform="translate(114,77)"/>
<path d="M0,0 L1,0 L1,1 L0,1 Z M-1,1 L0,1 L0,2 L-1,2 Z " fill="#FFFFFF" opacity="0.3019608" transform="translate(13,77)"/>
<path d="M0,0 L1,0 L1,2 L0,2 Z " fill="#FFFFFF" opacity="0.003921569" transform="translate(115,76)"/>
<path d="M0,0 L1,0 L1,1 L0,1 Z " fill="#FFFFFF" opacity="0.8156863" transform="translate(112,76)"/>
<path d="M0,0 L1,0 L1,1 L0,1 Z " fill="#FFFFFF" opacity="0.5764706" transform="translate(77,76)"/>
<path d="M0,0 L1,0 L1,1 L0,1 Z " fill="#FFFFFF" opacity="0.56078434" transform="translate(50,76)"/>
<path d="M0,0 L1,0 L1,1 L0,1 Z " fill="#FFFFFF" opacity="0.6431373" transform="translate(16,75)"/>
<path d="M0,0 L1,0 L1,1 L0,1 Z " fill="#FFFFFF" opacity="0.5294118" transform="translate(78,74)"/>
<path d="M0,0 L1,0 L1,1 L0,1 Z " fill="#FFFFFF" opacity="0.5294118" transform="translate(49,74)"/>
<path d="M0,0 L1,0 L1,1 L0,1 Z " fill="#FFFFFF" opacity="0.8117647" transform="translate(79,72)"/>
<path d="M0,0 L1,0 L1,1 L0,1 Z " fill="#FFFFFF" opacity="0.8117647" transform="translate(48,72)"/>
<path d="M0,0 L1,0 L1,1 L0,1 Z " fill="#FFFFFF" opacity="0.7490196" transform="translate(20,72)"/>
<path d="M0,0 L2,0 L2,1 L0,1 Z " fill="#FEFEFE" opacity="0.99607843" transform="translate(22,71)"/>
<path d="M0,0 L1,0 L1,1 L0,1 Z " fill="#FFFFFF" opacity="0.8745098" transform="translate(24,69)"/>
<path d="M0,0 L1,0 L1,1 L0,1 Z " fill="#FFFFFF" opacity="0.4" transform="translate(79,62)"/>
<path d="M0,0 L1,0 L1,1 L0,1 Z " fill="#FFFFFF" opacity="0.38431373" transform="translate(48,62)"/>
<path d="M0,0 L1,0 L1,1 L0,1 Z " fill="#FFFFFF" opacity="0.7490196" transform="translate(103,60)"/>
<path d="M0,0 L1,0 L1,1 L0,1 Z " fill="#FFFFFF" opacity="0.76862746" transform="translate(24,60)"/>
<path d="M0,0 L1,0 L1,1 L0,1 Z " fill="#FFFFFF" opacity="0.7372549" transform="translate(20,55)"/>
<path d="M0,0 L1,0 L1,1 L0,1 Z " fill="#FFFFFF" opacity="0.7254902" transform="translate(74,53)"/>
<path d="M0,0 L1,0 L1,1 L0,1 Z " fill="#FFFFFF" opacity="0.49019608" transform="translate(72,52)"/>
<path d="M0,0 L1,0 L1,1 L0,1 Z " fill="#FFFFFF" opacity="0.0627451" transform="translate(56,52)"/>
<path d="M0,0 L1,0 L1,1 L0,1 Z " fill="#FFFFFF" opacity="0.62352943" transform="translate(16,52)"/>
<path d="M0,0 L1,0 L1,1 L0,1 Z " fill="#FFFFFF" opacity="0.37254903" transform="translate(69,51)"/>
<path d="M0,0 L1,0 L1,1 L0,1 Z " fill="#FFFFFF" opacity="0.92156863" transform="translate(67,50)"/>
<path d="M0,0 L1,0 L1,1 L0,1 Z " fill="#FFFFFF" opacity="0.7647059" transform="translate(62,50)"/>
<path d="M0,0 L1,0 L1,1 L0,1 Z M-1,1 L0,1 L0,2 L-1,2 Z " fill="#FFFFFF" opacity="0.2784314" transform="translate(115,49)"/>
<path d="M0,0 L1,0 L1,1 L0,1 Z " fill="#FFFFFF" opacity="0.7490196" transform="translate(115,48)"/>
<path d="M0,0 L1,0 L1,1 L0,1 Z " fill="#FFFFFF" opacity="0.8745098" transform="translate(114,45)"/>
<path d="M0,0 L1,0 L1,1 L0,1 Z " fill="#FFFFFF" opacity="0.75686276" transform="translate(113,43)"/>
<path d="M0,0 L1,0 L1,1 L0,1 Z " fill="#FFFFFF" opacity="0.77254903" transform="translate(14,43)"/>
<path d="M0,0 L1,0 L1,1 L0,1 Z " fill="#FFFFFF" opacity="0.6" transform="translate(112,41)"/>
<path d="M0,0 L1,0 L1,1 L0,1 Z " fill="#FFFFFF" opacity="0.60784316" transform="translate(15,41)"/>
<path d="M0,0 L1,0 L1,1 L0,1 Z " fill="#FFFFFF" opacity="0.84313726" transform="translate(110,38)"/>
<path d="M0,0 L1,0 L1,1 L0,1 Z " fill="#FFFFFF" opacity="0.84313726" transform="translate(17,38)"/>
<path d="M0,0 L1,0 L1,1 L0,1 Z " fill="#FFFFFF" opacity="0.7176471" transform="translate(109,36)"/>
<path d="M0,0 L1,0 L1,1 L0,1 Z " fill="#FFFFFF" opacity="0.7176471" transform="translate(18,36)"/>
<path d="M0,0 L1,0 L1,1 L0,1 Z " fill="#FFFFFF" opacity="0.5529412" transform="translate(108,34)"/>
<path d="M0,0 L1,0 L1,1 L0,1 Z " fill="#FFFFFF" opacity="0.5568628" transform="translate(19,34)"/>
<path d="M0,0 L1,0 L1,1 L0,1 Z " fill="#FFFFFF" opacity="0.91764706" transform="translate(107,33)"/>
<path d="M0,0 L1,0 L1,1 L0,1 Z " fill="#FFFFFF" opacity="0.91764706" transform="translate(20,33)"/>
<path d="M0,0 L1,0 L1,1 L0,1 Z " fill="#FFFFFF" opacity="0.8039216" transform="translate(106,31)"/>
<path d="M0,0 L1,0 L1,1 L0,1 Z " fill="#FFFFFF" opacity="0.627451" transform="translate(90,31)"/>
<path d="M0,0 L1,0 L1,1 L0,1 Z " fill="#FFFFFF" opacity="0.20784314" transform="translate(38,31)"/>
<path d="M0,0 L1,0 L1,1 L0,1 Z " fill="#FFFFFF" opacity="0.8117647" transform="translate(21,31)"/>
<path d="M0,0 L1,0 L1,1 L0,1 Z " fill="#FFFFFF" opacity="0.42352942" transform="translate(92,30)"/>
<path d="M0,0 L1,0 L1,1 L0,1 Z " fill="#FFFFFF" opacity="0.62352943" transform="translate(42,30)"/>
<path d="M0,0 L1,0 L1,1 L0,1 Z " fill="#FFFFFF" opacity="0.05882353" transform="translate(36,30)"/>
<path d="M0,0 L1,0 L1,1 L0,1 Z " fill="#FFFFFF" opacity="0.6313726" transform="translate(95,29)"/>
<path d="M0,0 L1,0 L1,1 L0,1 Z " fill="#FFFFFF" opacity="0.6862745" transform="translate(22,29)"/>
<path d="M0,0 L1,0 L1,1 L0,1 Z " fill="#FFFFFF" opacity="0.41960785" transform="translate(97,28)"/>
<path d="M0,0 L1,0 L1,1 L0,1 Z " fill="#FFFFFF" opacity="0.019607844" transform="translate(83,28)"/>
<path d="M0,0 L1,0 L1,1 L0,1 Z " fill="#FFFFFF" opacity="0.38431373" transform="translate(45,28)"/>
<path d="M0,0 L1,0 L1,1 L0,1 Z " fill="#FFFFFF" opacity="0.07058824" transform="translate(31,28)"/>
<path d="M0,0 L1,0 L1,1 L0,1 Z " fill="#FFFFFF" opacity="0.6392157" transform="translate(100,27)"/>
<path d="M0,0 L1,0 L1,1 L0,1 Z " fill="#FFFFFF" opacity="0.015686275" transform="translate(81,27)"/>
<path d="M0,0 L1,0 L1,1 L0,1 Z " fill="#FFFFFF" opacity="0.38039216" transform="translate(47,27)"/>
<path d="M0,0 L1,0 L1,1 L0,1 Z " fill="#FFFFFF" opacity="0.2509804" transform="translate(48,26)"/>
<path d="M0,0 L1,0 L1,1 L0,1 Z " fill="#FFFFFF" opacity="0.7921569" transform="translate(78,23)"/>
<path d="M0,0 L1,0 L1,1 L0,1 Z " fill="#FFFFFF" opacity="0.8117647" transform="translate(49,23)"/>
<path d="M0,0 L1,0 L1,1 L0,1 Z " fill="#FFFFFF" opacity="0.21960784" transform="translate(78,19)"/>
<path d="M0,0 L1,0 L1,1 L0,1 Z " fill="#FFFFFF" opacity="0.23529412" transform="translate(49,19)"/>
<path d="M0,0 L1,0 L1,1 L0,1 Z " fill="#FFFFFF" opacity="0.9372549" transform="translate(77,17)"/>
<path d="M0,0 L1,0 L1,1 L0,1 Z " fill="#FFFFFF" opacity="0.9372549" transform="translate(50,17)"/>
<path d="M0,0 L1,0 L1,1 L0,1 Z " fill="#FFFFFF" opacity="0.34117648" transform="translate(77,13)"/>
<path d="M0,0 L1,0 L1,1 L0,1 Z " fill="#FFFFFF" opacity="0.3647059" transform="translate(50,13)"/>
<path d="M0,0 L1,0 L1,1 L0,1 Z " fill="#FFFFFF" opacity="0.34509805" transform="translate(53,10)"/>
<path d="M0,0 L1,0 L1,1 L0,1 Z " fill="#FFFFFF" opacity="0.14117648" transform="translate(75,117)"/>
<path d="M0,0 L1,0 L1,1 L0,1 Z " fill="#FFFFFF" opacity="0.14117648" transform="translate(52,117)"/>
<path d="M0,0 L1,0 L1,1 L0,1 Z " fill="#FFFFFF" opacity="0.50980395" transform="translate(76,116)"/>
<path d="M0,0 L1,0 L1,1 L0,1 Z " fill="#FFFFFF" opacity="0.5254902" transform="translate(51,116)"/>
<path d="M0,0 L1,0 L1,1 L0,1 Z " fill="#FFFFFF" opacity="0.1254902" transform="translate(77,115)"/>
<path d="M0,0 L1,0 L1,1 L0,1 Z " fill="#FFFFFF" opacity="0.15294118" transform="translate(50,115)"/>
<path d="M0,0 L1,0 L1,1 L0,1 Z " fill="#FFFFFF" opacity="0.5019608" transform="translate(77,113)"/>
<path d="M0,0 L1,0 L1,1 L0,1 Z " fill="#FFFFFF" opacity="0.50980395" transform="translate(50,113)"/>
<path d="M0,0 L1,0 L1,1 L0,1 Z " fill="#FFFFFF" opacity="0.78039217" transform="translate(77,111)"/>
<path d="M0,0 L1,0 L1,1 L0,1 Z " fill="#FFFFFF" opacity="0.8" transform="translate(50,111)"/>
<path d="M0,0 L1,0 L1,1 L0,1 Z " fill="#FFFFFF" opacity="0.9372549" transform="translate(77,110)"/>
<path d="M0,0 L1,0 L1,1 L0,1 Z " fill="#FFFFFF" opacity="0.9372549" transform="translate(50,110)"/>
<path d="M0,0 L1,0 L1,1 L0,1 Z " fill="#FFFFFF" opacity="0.21960784" transform="translate(78,108)"/>
<path d="M0,0 L1,0 L1,1 L0,1 Z " fill="#FFFFFF" opacity="0.23137255" transform="translate(49,108)"/>
<path d="M0,0 L1,0 L1,1 L0,1 Z " fill="#FFFFFF" opacity="0.49019608" transform="translate(78,106)"/>
<path d="M0,0 L1,0 L1,1 L0,1 Z " fill="#FFFFFF" opacity="0.5294118" transform="translate(49,106)"/>
<path d="M0,0 L1,0 L1,1 L0,1 Z " fill="#FFFFFF" opacity="0.7921569" transform="translate(78,104)"/>
<path d="M0,0 L1,0 L1,1 L0,1 Z " fill="#FFFFFF" opacity="0.8117647" transform="translate(49,104)"/>
<path d="M0,0 L1,0 L1,1 L0,1 Z " fill="#FFFFFF" opacity="0.9372549" transform="translate(78,103)"/>
<path d="M0,0 L1,0 L1,1 L0,1 Z " fill="#FFFFFF" opacity="0.9529412" transform="translate(49,103)"/>
<path d="M0,0 L1,0 L1,1 L0,1 Z " fill="#FFFFFF" opacity="0.05882353" transform="translate(103,101)"/>
<path d="M0,0 L1,0 L1,1 L0,1 Z " fill="#FFFFFF" opacity="0.039215688" transform="translate(101,101)"/>
<path d="M0,0 L1,0 L1,1 L0,1 Z " fill="#FFFFFF" opacity="0.21960784" transform="translate(79,101)"/>
<path d="M0,0 L1,0 L1,1 L0,1 Z " fill="#FFFFFF" opacity="0.2509804" transform="translate(48,101)"/>
<path d="M0,0 L1,0 L1,1 L0,1 Z " fill="#FFFFFF" opacity="0.03529412" transform="translate(26,101)"/>
<path d="M0,0 L1,0 L1,1 L0,1 Z " fill="#FFFFFF" opacity="0.05490196" transform="translate(24,101)"/>
<path d="M0,0 L1,0 L1,1 L0,1 Z " fill="#FFFFFF" opacity="0.3254902" transform="translate(104,100)"/>
<path d="M0,0 L1,0 L1,1 L0,1 Z " fill="#FFFFFF" opacity="0.9607843" transform="translate(103,100)"/>
<path d="M0,0 L1,0 L1,1 L0,1 Z " fill="#FFFFFF" opacity="0.9607843" transform="translate(101,100)"/>
<path d="M0,0 L1,0 L1,1 L0,1 Z " fill="#FFFFFF" opacity="0.21568628" transform="translate(99,100)"/>
<path d="M0,0 L1,0 L1,1 L0,1 Z " fill="#FFFFFF" opacity="0.3529412" transform="translate(80,100)"/>
<path d="M0,0 L1,0 L1,1 L0,1 Z " fill="#FFFFFF" opacity="0.84313726" transform="translate(79,100)"/>
<path d="M0,0 L1,0 L1,1 L0,1 Z " fill="#FFFFFF" opacity="0.85882354" transform="translate(48,100)"/>
<path d="M0,0 L1,0 L1,1 L0,1 Z " fill="#FFFFFF" opacity="0.007843138" transform="translate(46,100)"/>
<path d="M0,0 L1,0 L1,1 L0,1 Z " fill="#FFFFFF" opacity="0.21176471" transform="translate(28,100)"/>
<path d="M0,0 L1,0 L1,1 L0,1 Z " fill="#FFFFFF" opacity="0.61960787" transform="translate(27,100)"/>
<path d="M0,0 L1,0 L1,1 L0,1 Z " fill="#FFFFFF" opacity="0.9607843" transform="translate(26,100)"/>
<path d="M0,0 L1,0 L1,1 L0,1 Z " fill="#FFFFFF" opacity="0.9607843" transform="translate(24,100)"/>
<path d="M0,0 L1,0 L1,1 L0,1 Z " fill="#FFFFFF" opacity="0.33333334" transform="translate(23,100)"/>
<path d="M0,0 L1,0 L1,1 L0,1 Z " fill="#FFFFFF" opacity="0.09411765" transform="translate(105,99)"/>
<path d="M0,0 L1,0 L1,1 L0,1 Z " fill="#FFFFFF" opacity="0.9529412" transform="translate(104,99)"/>
<path d="M0,0 L1,0 L1,1 L0,1 Z " fill="#FFFFFF" opacity="0.8235294" transform="translate(98,99)"/>
<path d="M0,0 L1,0 L1,1 L0,1 Z " fill="#FFFFFF" opacity="0.05490196" transform="translate(96,99)"/>
<path d="M0,0 L1,0 L1,1 L0,1 Z " fill="#FFFFFF" opacity="0.3529412" transform="translate(82,99)"/>
<path d="M0,0 L1,0 L1,1 L0,1 Z " fill="#FFFFFF" opacity="0.84705883" transform="translate(81,99)"/>
<path d="M0,0 L1,0 L1,1 L0,1 Z " fill="#FFFFFF" opacity="0.8627451" transform="translate(46,99)"/>
<path d="M0,0 L1,0 L1,1 L0,1 Z " fill="#FFFFFF" opacity="0.019607844" transform="translate(44,99)"/>
<path d="M0,0 L1,0 L1,1 L0,1 Z " fill="#FFFFFF" opacity="0.39607844" transform="translate(30,99)"/>
<path d="M0,0 L1,0 L1,1 L0,1 Z " fill="#FFFFFF" opacity="0.8117647" transform="translate(29,99)"/>
<path d="M0,0 L1,0 L1,1 L0,1 Z " fill="#FFFFFF" opacity="0.1254902" transform="translate(22,99)"/>
<path d="M0,0 L1,0 L1,1 L0,1 Z " fill="#FFFFFF" opacity="0.64705884" transform="translate(105,98)"/>
<path d="M0,0 L1,0 L1,1 L0,1 Z " fill="#FFFFFF" opacity="0.972549" transform="translate(96,98)"/>
<path d="M0,0 L1,0 L1,1 L0,1 Z " fill="#FFFFFF" opacity="0.20392157" transform="translate(94,98)"/>
<path d="M0,0 L1,0 L1,1 L0,1 Z " fill="#FFFFFF" opacity="0.26666668" transform="translate(84,98)"/>
<path d="M0,0 L1,0 L1,1 L0,1 Z " fill="#FFFFFF" opacity="0.84705883" transform="translate(83,98)"/>
<path d="M0,0 L1,0 L1,1 L0,1 Z " fill="#FFFFFF" opacity="0.3137255" transform="translate(43,98)"/>
<path d="M0,0 L1,0 L1,1 L0,1 Z " fill="#FFFFFF" opacity="0.5921569" transform="translate(32,98)"/>
<path d="M0,0 L1,0 L1,1 L0,1 Z " fill="#FFFFFF" opacity="0.95686275" transform="translate(31,98)"/>
<path d="M0,0 L1,0 L1,1 L0,1 Z " fill="#FFFFFF" opacity="0.654902" transform="translate(22,98)"/>
<path d="M0,0 L1,0 L1,1 L0,1 Z " fill="#FFFFFF" opacity="0.22745098" transform="translate(106,97)"/>
<path d="M0,0 L1,0 L1,1 L0,1 Z " fill="#FFFFFF" opacity="0.79607844" transform="translate(93,97)"/>
<path d="M0,0 L1,0 L1,1 L0,1 Z " fill="#FFFFFF" opacity="0.043137256" transform="translate(91,97)"/>
<path d="M0,0 L1,0 L1,1 L0,1 Z " fill="#FFFFFF" opacity="0.0627451" transform="translate(86,97)"/>
<path d="M0,0 L1,0 L1,1 L0,1 Z " fill="#FFFFFF" opacity="0.60784316" transform="translate(85,97)"/>
<path d="M0,0 L1,0 L1,1 L0,1 Z " fill="#FFFFFF" opacity="0.62352943" transform="translate(42,97)"/>
<path d="M0,0 L1,0 L1,1 L0,1 Z " fill="#FFFFFF" opacity="0.0627451" transform="translate(41,97)"/>
<path d="M0,0 L1,0 L1,1 L0,1 Z " fill="#FFFFFF" opacity="0.40784314" transform="translate(35,97)"/>
<path d="M0,0 L1,0 L1,1 L0,1 Z " fill="#FFFFFF" opacity="0.79607844" transform="translate(34,97)"/>
<path d="M0,0 L1,0 L1,1 L0,1 Z " fill="#FFFFFF" opacity="0.2509804" transform="translate(21,97)"/>
<path d="M0,0 L1,0 L1,1 L0,1 Z " fill="#FFFFFF" opacity="0.79607844" transform="translate(106,96)"/>
<path d="M0,0 L1,0 L1,1 L0,1 Z " fill="#FFFFFF" opacity="0.94509804" transform="translate(91,96)"/>
<path d="M0,0 L1,0 L1,1 L0,1 Z " fill="#FFFFFF" opacity="0.19215687" transform="translate(89,96)"/>
<path d="M0,0 L1,0 L1,1 L0,1 Z " fill="#FFFFFF" opacity="0.26666668" transform="translate(87,96)"/>
<path d="M0,0 L1,0 L1,1 L0,1 Z " fill="#FFFFFF" opacity="0.8745098" transform="translate(86,96)"/>
<path d="M0,0 L1,0 L1,1 L0,1 Z " fill="#FFFFFF" opacity="0.28235295" transform="translate(40,96)"/>
<path d="M0,0 L1,0 L1,1 L0,1 Z " fill="#FFFFFF" opacity="0.1882353" transform="translate(38,96)"/>
<path d="M0,0 L1,0 L1,1 L0,1 Z " fill="#FFFFFF" opacity="0.6039216" transform="translate(37,96)"/>
<path d="M0,0 L1,0 L1,1 L0,1 Z " fill="#FFFFFF" opacity="0.9411765" transform="translate(36,96)"/>
<path d="M0,0 L1,0 L1,1 L0,1 Z " fill="#FFFFFF" opacity="0.8117647" transform="translate(21,96)"/>
<path d="M0,0 L1,0 L1,1 L0,1 Z " fill="#FFFFFF" opacity="0.38431373" transform="translate(107,95)"/>
<path d="M0,0 L1,0 L1,1 L0,1 Z " fill="#FFFFFF" opacity="0.84705883" transform="translate(88,95)"/>
<path d="M0,0 L1,0 L1,1 L0,1 Z " fill="#FFFFFF" opacity="0.99607843" transform="translate(87,95)"/>
<path d="M0,0 L1,0 L1,1 L0,1 Z " fill="#FFFFFF" opacity="0.84705883" transform="translate(39,95)"/>
<path d="M0,0 L1,0 L1,1 L0,1 Z " fill="#FFFFFF" opacity="0.40392157" transform="translate(20,95)"/>
<path d="M0,0 L1,0 L1,1 L0,1 Z " fill="#FFFFFF" opacity="0.043137256" transform="translate(108,94)"/>
<path d="M0,0 L1,0 L1,1 L0,1 Z " fill="#FFFFFF" opacity="0.9137255" transform="translate(107,94)"/>
<path d="M0,0 L1,0 L1,1 L0,1 Z " fill="#FFFFFF" opacity="0.91764706" transform="translate(20,94)"/>
<path d="M0,0 L1,0 L1,1 L0,1 Z " fill="#FFFFFF" opacity="0.05882353" transform="translate(19,94)"/>
<path d="M0,0 L1,0 L1,1 L0,1 Z " fill="#FFFFFF" opacity="0.5372549" transform="translate(108,93)"/>
<path d="M0,0 L1,0 L1,1 L0,1 Z " fill="#FFFFFF" opacity="0.5529412" transform="translate(19,93)"/>
<path d="M0,0 L1,0 L1,1 L0,1 Z " fill="#FFFFFF" opacity="0.13725491" transform="translate(109,92)"/>
<path d="M0,0 L1,0 L1,1 L0,1 Z " fill="#FFFFFF" opacity="0.98039216" transform="translate(108,92)"/>
<path d="M0,0 L1,0 L1,1 L0,1 Z " fill="#FFFFFF" opacity="0.15294118" transform="translate(18,92)"/>
<path d="M0,0 L1,0 L1,1 L0,1 Z " fill="#FFFFFF" opacity="0.6862745" transform="translate(109,91)"/>
<path d="M0,0 L1,0 L1,1 L0,1 Z " fill="#FFFFFF" opacity="0.70980394" transform="translate(18,91)"/>
<path d="M0,0 L1,0 L1,1 L0,1 Z " fill="#FFFFFF" opacity="0.28235295" transform="translate(110,90)"/>
<path d="M0,0 L1,0 L1,1 L0,1 Z " fill="#FFFFFF" opacity="0.2901961" transform="translate(17,90)"/>
<path d="M0,0 L1,0 L1,1 L0,1 Z " fill="#FFFFFF" opacity="0.84313726" transform="translate(110,89)"/>
<path d="M0,0 L1,0 L1,1 L0,1 Z " fill="#FFFFFF" opacity="0.85490197" transform="translate(17,89)"/>
<path d="M0,0 L1,0 L1,1 L0,1 Z " fill="#FFFFFF" opacity="0.4392157" transform="translate(111,88)"/>
<path d="M0,0 L1,0 L1,1 L0,1 Z " fill="#FFFFFF" opacity="0.4509804" transform="translate(16,88)"/>
<path d="M0,0 L1,0 L1,1 L0,1 Z " fill="#FFFFFF" opacity="0.07450981" transform="translate(112,87)"/>
<path d="M0,0 L1,0 L1,1 L0,1 Z " fill="#FFFFFF" opacity="0.93333334" transform="translate(111,87)"/>
<path d="M0,0 L1,0 L1,1 L0,1 Z " fill="#FFFFFF" opacity="0.07450981" transform="translate(15,87)"/>
<path d="M0,0 L1,0 L1,1 L0,1 Z " fill="#FFFFFF" opacity="0.5764706" transform="translate(112,86)"/>
<path d="M0,0 L1,0 L1,1 L0,1 Z " fill="#FFFFFF" opacity="0.60784316" transform="translate(15,86)"/>
<path d="M0,0 L1,0 L1,1 L0,1 Z " fill="#FFFFFF" opacity="0.16862746" transform="translate(113,85)"/>
<path d="M0,0 L1,0 L1,1 L0,1 Z " fill="#FFFFFF" opacity="0.19607843" transform="translate(14,85)"/>
<path d="M0,0 L1,0 L1,1 L0,1 Z " fill="#FFFFFF" opacity="0.7490196" transform="translate(113,84)"/>
<path d="M0,0 L1,0 L1,1 L0,1 Z " fill="#FFFFFF" opacity="0.7607843" transform="translate(14,84)"/>
<path d="M0,0 L1,0 L1,1 L0,1 Z " fill="#FFFFFF" opacity="0.3137255" transform="translate(114,83)"/>
<path d="M0,0 L1,0 L1,1 L0,1 Z " fill="#FFFFFF" opacity="0.34509805" transform="translate(13,83)"/>
<path d="M0,0 L1,0 L1,1 L0,1 Z " fill="#FFFFFF" opacity="0.03137255" transform="translate(115,82)"/>
<path d="M0,0 L1,0 L1,1 L0,1 Z " fill="#FFFFFF" opacity="0.8745098" transform="translate(114,82)"/>
<path d="M0,0 L1,0 L1,1 L0,1 Z " fill="#FFFFFF" opacity="0.827451" transform="translate(68,82)"/>
<path d="M0,0 L1,0 L1,1 L0,1 Z " fill="#FFFFFF" opacity="0.5294118" transform="translate(66,82)"/>
<path d="M0,0 L1,0 L1,1 L0,1 Z " fill="#FFFFFF" opacity="0.46666667" transform="translate(65,82)"/>
<path d="M0,0 L1,0 L1,1 L0,1 Z " fill="#FFFFFF" opacity="0.37254903" transform="translate(64,82)"/>
<path d="M0,0 L1,0 L1,1 L0,1 Z " fill="#FFFFFF" opacity="0.47058824" transform="translate(62,82)"/>
<path d="M0,0 L1,0 L1,1 L0,1 Z " fill="#FFFFFF" opacity="0.62352943" transform="translate(60,82)"/>
<path d="M0,0 L1,0 L1,1 L0,1 Z " fill="#FFFFFF" opacity="0.8235294" transform="translate(59,82)"/>
<path d="M0,0 L1,0 L1,1 L0,1 Z " fill="#FFFFFF" opacity="0.8745098" transform="translate(13,82)"/>
<path d="M0,0 L1,0 L1,1 L0,1 Z " fill="#FFFFFF" opacity="0.03137255" transform="translate(12,82)"/>
<path d="M0,0 L1,0 L1,1 L0,1 Z " fill="#FFFFFF" opacity="0.47058824" transform="translate(115,81)"/>
<path d="M0,0 L1,0 L1,1 L0,1 Z " fill="#FFFFFF" opacity="0.7176471" transform="translate(71,81)"/>
<path d="M0,0 L1,0 L1,1 L0,1 Z " fill="#FFFFFF" opacity="0.05882353" transform="translate(69,81)"/>
<path d="M0,0 L1,0 L1,1 L0,1 Z " fill="#FFFFFF" opacity="0.3137255" transform="translate(57,81)"/>
<path d="M0,0 L1,0 L1,1 L0,1 Z " fill="#FFFFFF" opacity="0.70980394" transform="translate(56,81)"/>
<path d="M0,0 L1,0 L1,1 L0,1 Z " fill="#FFFFFF" opacity="0.47058824" transform="translate(12,81)"/>
<path d="M0,0 L1,0 L1,1 L0,1 Z " fill="#FFFFFF" opacity="0.1882353" transform="translate(72,80)"/>
<path d="M0,0 L1,0 L1,1 L0,1 Z " fill="#FFFFFF" opacity="0.18039216" transform="translate(55,80)"/>
<path d="M0,0 L1,0 L1,1 L0,1 Z " fill="#FFFFFF" opacity="0.68235296" transform="translate(54,80)"/>
<path d="M0,0 L1,0 L1,1 L0,1 Z " fill="#FFFFFF" opacity="0.7529412" transform="translate(115,79)"/>
<path d="M0,0 L1,0 L1,1 L0,1 Z " fill="#FFFFFF" opacity="0.42745098" transform="translate(74,79)"/>
<path d="M0,0 L1,0 L1,1 L0,1 Z " fill="#FFFFFF" opacity="0.4117647" transform="translate(53,79)"/>
<path d="M0,0 L1,0 L1,1 L0,1 Z " fill="#FFFFFF" opacity="0.972549" transform="translate(52,79)"/>
<path d="M0,0 L1,0 L1,1 L0,1 Z " fill="#FFFFFF" opacity="0.77254903" transform="translate(12,79)"/>
<path d="M0,0 L1,0 L1,1 L0,1 Z " fill="#FFFFFF" opacity="0.24313726" transform="translate(75,78)"/>
<path d="M0,0 L1,0 L1,1 L0,1 Z " fill="#FFFFFF" opacity="0.24313726" transform="translate(52,78)"/>
<path d="M0,0 L1,0 L1,1 L0,1 Z " fill="#FFFFFF" transform="translate(13,78)"/>
<path d="M0,0 L1,0 L1,1 L0,1 Z " fill="#FFFFFF" opacity="0.9411765" transform="translate(113,77)"/>
<path d="M0,0 L1,0 L1,1 L0,1 Z " fill="#FFFFFF" opacity="0.34509805" transform="translate(76,77)"/>
<path d="M0,0 L1,0 L1,1 L0,1 Z " fill="#FFFFFF" opacity="0.34509805" transform="translate(51,77)"/>
<path d="M0,0 L1,0 L1,1 L0,1 Z " fill="#FFFFFF" opacity="0.92941177" transform="translate(14,77)"/>
<path d="M0,0 L1,0 L1,1 L0,1 Z " fill="#FFFFFF" opacity="0.1254902" transform="translate(113,76)"/>
<path d="M0,0 L1,0 L1,1 L0,1 Z " fill="#FFFFFF" opacity="0.14509805" transform="translate(14,76)"/>
<path d="M0,0 L1,0 L1,1 L0,1 Z " fill="#FFFFFF" opacity="0.03137255" transform="translate(112,75)"/>
<path d="M0,0 L1,0 L1,1 L0,1 Z " fill="#FFFFFF" opacity="0.62352943" transform="translate(111,75)"/>
<path d="M0,0 L1,0 L1,1 L0,1 Z " fill="#FFFFFF" opacity="0.9372549" transform="translate(78,75)"/>
<path d="M0,0 L1,0 L1,1 L0,1 Z " fill="#FFFFFF" opacity="0.0627451" transform="translate(77,75)"/>
<path d="M0,0 L1,0 L1,1 L0,1 Z " fill="#FFFFFF" opacity="0.05882353" transform="translate(50,75)"/>
<path d="M0,0 L1,0 L1,1 L0,1 Z " fill="#FFFFFF" opacity="0.9372549" transform="translate(49,75)"/>
<path d="M0,0 L1,0 L1,1 L0,1 Z " fill="#FFFFFF" opacity="0.03529412" transform="translate(15,75)"/>
<path d="M0,0 L1,0 L1,1 L0,1 Z " fill="#FFFFFF" opacity="0.40784314" transform="translate(110,74)"/>
<path d="M0,0 L1,0 L1,1 L0,1 Z " fill="#FFFFFF" opacity="0.96862745" transform="translate(109,74)"/>
<path d="M0,0 L1,0 L1,1 L0,1 Z " fill="#FFFFFF" opacity="0.41568628" transform="translate(17,74)"/>
<path d="M0,0 L1,0 L1,1 L0,1 Z " fill="#FFFFFF" opacity="0.21960784" transform="translate(109,73)"/>
<path d="M0,0 L1,0 L1,1 L0,1 Z " fill="#FFFFFF" opacity="0.09411765" transform="translate(78,73)"/>
<path d="M0,0 L1,0 L1,1 L0,1 Z " fill="#FFFFFF" opacity="0.09019608" transform="translate(49,73)"/>
<path d="M0,0 L1,0 L1,1 L0,1 Z " fill="#FFFFFF" opacity="0.22745098" transform="translate(18,73)"/>
<path d="M0,0 L1,0 L1,1 L0,1 Z " fill="#FFFFFF" opacity="0.09411765" transform="translate(108,72)"/>
<path d="M0,0 L1,0 L1,1 L0,1 Z " fill="#FFFFFF" opacity="0.7411765" transform="translate(107,72)"/>
<path d="M0,0 L1,0 L1,1 L0,1 Z " fill="#FFFFFF" opacity="0.08627451" transform="translate(19,72)"/>
<path d="M0,0 L1,0 L1,1 L0,1 Z " fill="#FFFFFF" opacity="0.5294118" transform="translate(106,71)"/>
<path d="M0,0 L1,0 L1,1 L0,1 Z " fill="#FFFFFF" opacity="0.5686275" transform="translate(79,71)"/>
<path d="M0,0 L1,0 L1,1 L0,1 Z " fill="#FFFFFF" opacity="0.5529412" transform="translate(48,71)"/>
<path d="M0,0 L1,0 L1,1 L0,1 Z " fill="#FFFFFF" opacity="0.5568628" transform="translate(21,71)"/>
<path d="M0,0 L1,0 L1,1 L0,1 Z " fill="#FFFFFF" opacity="0.3137255" transform="translate(105,70)"/>
<path d="M0,0 L1,0 L1,1 L0,1 Z " fill="#FFFFFF" opacity="0.9372549" transform="translate(104,70)"/>
<path d="M0,0 L1,0 L1,1 L0,1 Z " fill="#FFFFFF" opacity="0.32941177" transform="translate(79,70)"/>
<path d="M0,0 L1,0 L1,1 L0,1 Z " fill="#FFFFFF" opacity="0.31764707" transform="translate(48,70)"/>
<path d="M0,0 L1,0 L1,1 L0,1 Z " fill="#FFFFFF" opacity="0.32156864" transform="translate(22,70)"/>
<path d="M0,0 L1,0 L1,1 L0,1 Z " fill="#FFFFFF" opacity="0.15686275" transform="translate(104,69)"/>
<path d="M0,0 L1,0 L1,1 L0,1 Z " fill="#FFFFFF" opacity="0.8666667" transform="translate(103,69)"/>
<path d="M0,0 L1,0 L1,1 L0,1 Z " fill="#FFFFFF" opacity="0.15686275" transform="translate(23,69)"/>
<path d="M0,0 L1,0 L1,1 L0,1 Z " fill="#FFFFFF" opacity="0.6784314" transform="translate(103,68)"/>
<path d="M0,0 L1,0 L1,1 L0,1 Z " fill="#FFFFFF" opacity="0.14117648" transform="translate(79,68)"/>
<path d="M0,0 L1,0 L1,1 L0,1 Z " fill="#FFFFFF" opacity="0.13725491" transform="translate(48,68)"/>
<path d="M0,0 L1,0 L1,1 L0,1 Z " fill="#FFFFFF" opacity="0.69803923" transform="translate(24,68)"/>
<path d="M0,0 L1,0 L1,1 L0,1 Z " fill="#FFFFFF" opacity="0.0627451" transform="translate(79,67)"/>
<path d="M0,0 L1,0 L1,1 L0,1 Z " fill="#FFFFFF" opacity="0.05882353" transform="translate(48,67)"/>
<path d="M0,0 L1,0 L1,1 L0,1 Z " fill="#FFFFFF" opacity="0.81960785" transform="translate(103,66)"/>
<path d="M0,0 L1,0 L1,1 L0,1 Z " fill="#FFFFFF" opacity="0.8392157" transform="translate(24,66)"/>
<path d="M0,0 L1,0 L1,1 L0,1 Z " fill="#FFFFFF" opacity="0.89411765" transform="translate(103,65)"/>
<path d="M0,0 L1,0 L1,1 L0,1 Z " fill="#FFFFFF" opacity="0.08627451" transform="translate(79,65)"/>
<path d="M0,0 L1,0 L1,1 L0,1 Z " fill="#FFFFFF" opacity="0.08235294" transform="translate(48,65)"/>
<path d="M0,0 L1,0 L1,1 L0,1 Z " fill="#FFFFFF" opacity="0.9137255" transform="translate(24,65)"/>
<path d="M0,0 L1,0 L1,1 L0,1 Z " fill="#FFFFFF" opacity="0.23529412" transform="translate(79,63)"/>
<path d="M0,0 L1,0 L1,1 L0,1 Z " fill="#FFFFFF" opacity="0.21960784" transform="translate(48,63)"/>
<path d="M0,0 L1,0 L1,1 L0,1 Z " fill="#FFFFFF" opacity="0.81960785" transform="translate(103,61)"/>
<path d="M0,0 L1,0 L1,1 L0,1 Z " fill="#FFFFFF" opacity="0.64705884" transform="translate(79,61)"/>
<path d="M0,0 L1,0 L1,1 L0,1 Z " fill="#FFFFFF" opacity="0.63529414" transform="translate(48,61)"/>
<path d="M0,0 L1,0 L1,1 L0,1 Z " fill="#FFFFFF" opacity="0.8392157" transform="translate(24,61)"/>
<path d="M0,0 L1,0 L1,1 L0,1 Z " fill="#FFFFFF" opacity="0.88235295" transform="translate(79,60)"/>
<path d="M0,0 L1,0 L1,1 L0,1 Z " fill="#FFFFFF" opacity="0.88235295" transform="translate(48,60)"/>
<path d="M0,0 L1,0 L1,1 L0,1 Z " fill="#FFFFFF" opacity="0.6784314" transform="translate(103,59)"/>
<path d="M0,0 L1,0 L1,1 L0,1 Z " fill="#FFFFFF" opacity="0.21568628" transform="translate(78,59)"/>
<path d="M0,0 L1,0 L1,1 L0,1 Z " fill="#FFFFFF" opacity="0.2" transform="translate(49,59)"/>
<path d="M0,0 L1,0 L1,1 L0,1 Z " fill="#FFFFFF" opacity="0.69803923" transform="translate(24,59)"/>
<path d="M0,0 L1,0 L1,1 L0,1 Z " fill="#FFFFFF" opacity="0.12941177" transform="translate(104,58)"/>
<path d="M0,0 L1,0 L1,1 L0,1 Z " fill="#FFFFFF" opacity="0.85882354" transform="translate(103,58)"/>
<path d="M0,0 L1,0 L1,1 L0,1 Z " fill="#FFFFFF" opacity="0.6862745" transform="translate(78,58)"/>
<path d="M0,0 L1,0 L1,1 L0,1 Z " fill="#FFFFFF" opacity="0.6745098" transform="translate(49,58)"/>
<path d="M0,0 L1,0 L1,1 L0,1 Z " fill="#FFFFFF" opacity="0.8745098" transform="translate(24,58)"/>
<path d="M0,0 L1,0 L1,1 L0,1 Z " fill="#FFFFFF" opacity="0.15686275" transform="translate(23,58)"/>
<path d="M0,0 L1,0 L1,1 L0,1 Z " fill="#FFFFFF" opacity="0.29803923" transform="translate(105,57)"/>
<path d="M0,0 L1,0 L1,1 L0,1 Z " fill="#FFFFFF" opacity="0.9490196" transform="translate(104,57)"/>
<path d="M0,0 L1,0 L1,1 L0,1 Z " fill="#FFFFFF" opacity="0.15294118" transform="translate(77,57)"/>
<path d="M0,0 L1,0 L1,1 L0,1 Z " fill="#FFFFFF" opacity="0.14117648" transform="translate(50,57)"/>
<path d="M0,0 L1,0 L1,1 L0,1 Z " fill="#FFFFFF" opacity="0.3137255" transform="translate(22,57)"/>
<path d="M0,0 L1,0 L1,1 L0,1 Z " fill="#FFFFFF" opacity="0.5137255" transform="translate(106,56)"/>
<path d="M0,0 L1,0 L1,1 L0,1 Z " fill="#FFFFFF" opacity="0.02745098" transform="translate(76,56)"/>
<path d="M0,0 L1,0 L1,1 L0,1 Z " fill="#FFFFFF" opacity="0.02745098" transform="translate(51,56)"/>
<path d="M0,0 L1,0 L1,1 L0,1 Z " fill="#FFFFFF" opacity="0.76862746" transform="translate(50,56)"/>
<path d="M0,0 L1,0 L1,1 L0,1 Z " fill="#FFFFFF" opacity="0.5294118" transform="translate(21,56)"/>
<path d="M0,0 L1,0 L1,1 L0,1 Z " fill="#FFFFFF" opacity="0.078431375" transform="translate(108,55)"/>
<path d="M0,0 L1,0 L1,1 L0,1 Z " fill="#FFFFFF" opacity="0.7254902" transform="translate(107,55)"/>
<path d="M0,0 L1,0 L1,1 L0,1 Z " fill="#FFFFFF" opacity="0.5921569" transform="translate(76,55)"/>
<path d="M0,0 L1,0 L1,1 L0,1 Z " fill="#FFFFFF" opacity="0.5764706" transform="translate(51,55)"/>
<path d="M0,0 L1,0 L1,1 L0,1 Z " fill="#FFFFFF" opacity="0.09411765" transform="translate(19,55)"/>
<path d="M0,0 L1,0 L1,1 L0,1 Z " fill="#FFFFFF" opacity="0.20392157" transform="translate(109,54)"/>
<path d="M0,0 L1,0 L1,1 L0,1 Z " fill="#FFFFFF" opacity="0.8745098" transform="translate(108,54)"/>
<path d="M0,0 L1,0 L1,1 L0,1 Z " fill="#FFFFFF" opacity="0.52156866" transform="translate(75,54)"/>
<path d="M0,0 L1,0 L1,1 L0,1 Z " fill="#FFFFFF" opacity="0.50980395" transform="translate(52,54)"/>
<path d="M0,0 L1,0 L1,1 L0,1 Z " fill="#FFFFFF" opacity="0.8745098" transform="translate(19,54)"/>
<path d="M0,0 L1,0 L1,1 L0,1 Z " fill="#FFFFFF" opacity="0.21960784" transform="translate(18,54)"/>
<path d="M0,0 L1,0 L1,1 L0,1 Z " fill="#FFFFFF" opacity="0.3764706" transform="translate(110,53)"/>
<path d="M0,0 L1,0 L1,1 L0,1 Z " fill="#FFFFFF" opacity="0.96862745" transform="translate(109,53)"/>
<path d="M0,0 L1,0 L1,1 L0,1 Z " fill="#FFFFFF" opacity="0.06666667" transform="translate(73,53)"/>
<path d="M0,0 L1,0 L1,1 L0,1 Z " fill="#FFFFFF" opacity="0.06666667" transform="translate(54,53)"/>
<path d="M0,0 L1,0 L1,1 L0,1 Z " fill="#FFFFFF" opacity="0.7176471" transform="translate(53,53)"/>
<path d="M0,0 L1,0 L1,1 L0,1 Z " fill="#FFFFFF" opacity="0.40784314" transform="translate(17,53)"/>
<path d="M0,0 L1,0 L1,1 L0,1 Z " fill="#FFFFFF" opacity="0.02745098" transform="translate(112,52)"/>
<path d="M0,0 L1,0 L1,1 L0,1 Z " fill="#FFFFFF" opacity="0.62352943" transform="translate(111,52)"/>
<path d="M0,0 L1,0 L1,1 L0,1 Z " fill="#FFFFFF" opacity="0.93333334" transform="translate(73,52)"/>
<path d="M0,0 L1,0 L1,1 L0,1 Z " fill="#FFFFFF" opacity="0.06666667" transform="translate(71,52)"/>
<path d="M0,0 L1,0 L1,1 L0,1 Z " fill="#FFFFFF" opacity="0.47843137" transform="translate(55,52)"/>
<path d="M0,0 L1,0 L1,1 L0,1 Z " fill="#FFFFFF" opacity="0.93333334" transform="translate(54,52)"/>
<path d="M0,0 L1,0 L1,1 L0,1 Z " fill="#FFFFFF" opacity="0.03137255" transform="translate(15,52)"/>
<path d="M0,0 L1,0 L1,1 L0,1 Z " fill="#FFFFFF" opacity="0.11764706" transform="translate(113,51)"/>
<path d="M0,0 L1,0 L1,1 L0,1 Z " fill="#FFFFFF" opacity="0.78431374" transform="translate(112,51)"/>
<path d="M0,0 L1,0 L1,1 L0,1 Z " fill="#FFFFFF" opacity="0.6313726" transform="translate(70,51)"/>
<path d="M0,0 L1,0 L1,1 L0,1 Z " fill="#FFFFFF" opacity="0.12941177" transform="translate(68,51)"/>
<path d="M0,0 L1,0 L1,1 L0,1 Z " fill="#FFFFFF" opacity="0.1254902" transform="translate(59,51)"/>
<path d="M0,0 L1,0 L1,1 L0,1 Z " fill="#FFFFFF" opacity="0.6313726" transform="translate(57,51)"/>
<path d="M0,0 L1,0 L1,1 L0,1 Z " fill="#FFFFFF" opacity="0.9490196" transform="translate(56,51)"/>
<path d="M0,0 L1,0 L1,1 L0,1 Z " fill="#FFFFFF" opacity="0.8117647" transform="translate(15,51)"/>
<path d="M0,0 L1,0 L1,1 L0,1 Z " fill="#FFFFFF" opacity="0.12156863" transform="translate(14,51)"/>
<path d="M0,0 L1,0 L1,1 L0,1 Z " fill="#FFFFFF" opacity="0.92941177" transform="translate(113,50)"/>
<path d="M0,0 L1,0 L1,1 L0,1 Z " fill="#FFFFFF" opacity="0.84313726" transform="translate(66,50)"/>
<path d="M0,0 L1,0 L1,1 L0,1 Z " fill="#FFFFFF" opacity="0.7647059" transform="translate(65,50)"/>
<path d="M0,0 L1,0 L1,1 L0,1 Z " fill="#FFFFFF" opacity="0.84313726" transform="translate(61,50)"/>
<path d="M0,0 L1,0 L1,1 L0,1 Z " fill="#FFFFFF" opacity="0.92156863" transform="translate(60,50)"/>
<path d="M0,0 L1,0 L1,1 L0,1 Z " fill="#FFFFFF" opacity="0.2784314" transform="translate(13,50)"/>
<path d="M0,0 L1,0 L1,1 L0,1 Z " fill="#FFFFFF" opacity="0.30980393" transform="translate(12,49)"/>
<path d="M0,0 L1,0 L1,1 L0,1 Z " fill="#FFFFFF" opacity="0.78039217" transform="translate(115,47)"/>
<path d="M0,0 L1,0 L1,1 L0,1 Z " fill="#FFFFFF" opacity="0.83137256" transform="translate(12,47)"/>
<path d="M0,0 L1,0 L1,1 L0,1 Z " fill="#FFFFFF" opacity="0.4745098" transform="translate(12,46)"/>
<path d="M0,0 L1,0 L1,1 L0,1 Z " fill="#FFFFFF" opacity="0.03137255" transform="translate(115,45)"/>
<path d="M0,0 L1,0 L1,1 L0,1 Z " fill="#FFFFFF" opacity="0.8784314" transform="translate(13,45)"/>
<path d="M0,0 L1,0 L1,1 L0,1 Z " fill="#FFFFFF" opacity="0.34509805" transform="translate(114,44)"/>
<path d="M0,0 L1,0 L1,1 L0,1 Z " fill="#FFFFFF" opacity="0.34901962" transform="translate(13,44)"/>
<path d="M0,0 L1,0 L1,1 L0,1 Z " fill="#FFFFFF" opacity="0.007843138" transform="translate(12,44)"/>
<path d="M0,0 L1,0 L1,1 L0,1 Z " fill="#FFFFFF" opacity="0.1882353" transform="translate(113,42)"/>
<path d="M0,0 L1,0 L1,1 L0,1 Z " fill="#FFFFFF" opacity="0.2" transform="translate(14,42)"/>
<path d="M0,0 L1,0 L1,1 L0,1 Z " fill="#FFFFFF" opacity="0.07058824" transform="translate(112,40)"/>
<path d="M0,0 L1,0 L1,1 L0,1 Z " fill="#FFFFFF" opacity="0.9372549" transform="translate(111,40)"/>
<path d="M0,0 L1,0 L1,1 L0,1 Z " fill="#FFFFFF" opacity="0.94509804" transform="translate(16,40)"/>
<path d="M0,0 L1,0 L1,1 L0,1 Z " fill="#FFFFFF" opacity="0.08235294" transform="translate(15,40)"/>
<path d="M0,0 L1,0 L1,1 L0,1 Z " fill="#FFFFFF" opacity="0.03137255" transform="translate(111,38)"/>
<path d="M0,0 L1,0 L1,1 L0,1 Z " fill="#FFFFFF" opacity="0.03137255" transform="translate(16,38)"/>
<path d="M0,0 L1,0 L1,1 L0,1 Z " fill="#FFFFFF" opacity="0.28235295" transform="translate(110,37)"/>
<path d="M0,0 L1,0 L1,1 L0,1 Z " fill="#FFFFFF" opacity="0.3137255" transform="translate(17,37)"/>
<path d="M0,0 L1,0 L1,1 L0,1 Z " fill="#FFFFFF" opacity="0.15294118" transform="translate(109,35)"/>
<path d="M0,0 L1,0 L1,1 L0,1 Z " fill="#FFFFFF" opacity="0.98039216" transform="translate(108,35)"/>
<path d="M0,0 L1,0 L1,1 L0,1 Z " fill="#FFFFFF" opacity="0.99215686" transform="translate(19,35)"/>
<path d="M0,0 L1,0 L1,1 L0,1 Z " fill="#FFFFFF" opacity="0.15294118" transform="translate(18,35)"/>
<path d="M0,0 L1,0 L1,1 L0,1 Z " fill="#FFFFFF" opacity="0.05882353" transform="translate(108,33)"/>
<path d="M0,0 L1,0 L1,1 L0,1 Z " fill="#FFFFFF" opacity="0.05882353" transform="translate(19,33)"/>
<path d="M0,0 L1,0 L1,1 L0,1 Z " fill="#FFFFFF" opacity="0.39215687" transform="translate(107,32)"/>
<path d="M0,0 L1,0 L1,1 L0,1 Z " fill="#FFFFFF" opacity="0.8627451" transform="translate(88,32)"/>
<path d="M0,0 L1,0 L1,1 L0,1 Z " fill="#FFFFFF" opacity="0.8627451" transform="translate(39,32)"/>
<path d="M0,0 L1,0 L1,1 L0,1 Z " fill="#FFFFFF" opacity="0.4117647" transform="translate(20,32)"/>
<path d="M0,0 L1,0 L1,1 L0,1 Z " fill="#FFFFFF" opacity="0.9529412" transform="translate(91,31)"/>
<path d="M0,0 L1,0 L1,1 L0,1 Z " fill="#FFFFFF" opacity="0.20784314" transform="translate(89,31)"/>
<path d="M0,0 L1,0 L1,1 L0,1 Z " fill="#FFFFFF" opacity="0.28235295" transform="translate(87,31)"/>
<path d="M0,0 L1,0 L1,1 L0,1 Z " fill="#FFFFFF" opacity="0.28235295" transform="translate(40,31)"/>
<path d="M0,0 L1,0 L1,1 L0,1 Z " fill="#FFFFFF" opacity="0.6" transform="translate(37,31)"/>
<path d="M0,0 L1,0 L1,1 L0,1 Z " fill="#FFFFFF" opacity="0.9607843" transform="translate(36,31)"/>
<path d="M0,0 L1,0 L1,1 L0,1 Z " fill="#FFFFFF" opacity="0.23921569" transform="translate(106,30)"/>
<path d="M0,0 L1,0 L1,1 L0,1 Z " fill="#FFFFFF" opacity="0.8156863" transform="translate(93,30)"/>
<path d="M0,0 L1,0 L1,1 L0,1 Z " fill="#FFFFFF" opacity="0.05882353" transform="translate(91,30)"/>
<path d="M0,0 L1,0 L1,1 L0,1 Z " fill="#FFFFFF" opacity="0.0627451" transform="translate(86,30)"/>
<path d="M0,0 L1,0 L1,1 L0,1 Z " fill="#FFFFFF" opacity="0.62352943" transform="translate(85,30)"/>
<path d="M0,0 L1,0 L1,1 L0,1 Z " fill="#FFFFFF" opacity="0.0627451" transform="translate(41,30)"/>
<path d="M0,0 L1,0 L1,1 L0,1 Z " fill="#FFFFFF" opacity="0.40784314" transform="translate(35,30)"/>
<path d="M0,0 L1,0 L1,1 L0,1 Z " fill="#FFFFFF" opacity="0.8117647" transform="translate(34,30)"/>
<path d="M0,0 L1,0 L1,1 L0,1 Z " fill="#FFFFFF" opacity="0.2509804" transform="translate(21,30)"/>
<path d="M0,0 L1,0 L1,1 L0,1 Z " fill="#FFFFFF" opacity="0.65882355" transform="translate(105,29)"/>
<path d="M0,0 L1,0 L1,1 L0,1 Z " fill="#FFFFFF" opacity="0.972549" transform="translate(96,29)"/>
<path d="M0,0 L1,0 L1,1 L0,1 Z " fill="#FFFFFF" opacity="0.21176471" transform="translate(94,29)"/>
<path d="M0,0 L1,0 L1,1 L0,1 Z " fill="#FFFFFF" opacity="0.3137255" transform="translate(84,29)"/>
<path d="M0,0 L1,0 L1,1 L0,1 Z " fill="#FFFFFF" opacity="0.8784314" transform="translate(83,29)"/>
<path d="M0,0 L1,0 L1,1 L0,1 Z " fill="#FFFFFF" opacity="0.3137255" transform="translate(43,29)"/>
<path d="M0,0 L1,0 L1,1 L0,1 Z " fill="#FFFFFF" opacity="0.21960784" transform="translate(33,29)"/>
<path d="M0,0 L1,0 L1,1 L0,1 Z " fill="#FFFFFF" opacity="0.62352943" transform="translate(32,29)"/>
<path d="M0,0 L1,0 L1,1 L0,1 Z " fill="#FFFFFF" opacity="0.972549" transform="translate(31,29)"/>
<path d="M0,0 L1,0 L1,1 L0,1 Z " fill="#FFFFFF" opacity="0.09803922" transform="translate(105,28)"/>
<path d="M0,0 L1,0 L1,1 L0,1 Z " fill="#FFFFFF" opacity="0.84313726" transform="translate(98,28)"/>
<path d="M0,0 L1,0 L1,1 L0,1 Z " fill="#FFFFFF" opacity="0.07058824" transform="translate(96,28)"/>
<path d="M0,0 L1,0 L1,1 L0,1 Z " fill="#FFFFFF" opacity="0.3882353" transform="translate(82,28)"/>
<path d="M0,0 L1,0 L1,1 L0,1 Z " fill="#FFFFFF" opacity="0.8784314" transform="translate(81,28)"/>
<path d="M0,0 L1,0 L1,1 L0,1 Z " fill="#FFFFFF" opacity="0.8784314" transform="translate(46,28)"/>
<path d="M0,0 L1,0 L1,1 L0,1 Z " fill="#FFFFFF" opacity="0.015686275" transform="translate(44,28)"/>
<path d="M0,0 L1,0 L1,1 L0,1 Z " fill="#FFFFFF" opacity="0.41960785" transform="translate(30,28)"/>
<path d="M0,0 L1,0 L1,1 L0,1 Z " fill="#FFFFFF" opacity="0.827451" transform="translate(29,28)"/>
<path d="M0,0 L1,0 L1,1 L0,1 Z " fill="#FFFFFF" opacity="0.1254902" transform="translate(22,28)"/>
<path d="M0,0 L1,0 L1,1 L0,1 Z " fill="#FFFFFF" opacity="0.33333334" transform="translate(104,27)"/>
<path d="M0,0 L1,0 L1,1 L0,1 Z " fill="#FFFFFF" opacity="0.9607843" transform="translate(103,27)"/>
<path d="M0,0 L1,0 L1,1 L0,1 Z " fill="#FFFFFF" opacity="0.9607843" transform="translate(101,27)"/>
<path d="M0,0 L1,0 L1,1 L0,1 Z " fill="#FFFFFF" opacity="0.23529412" transform="translate(99,27)"/>
<path d="M0,0 L1,0 L1,1 L0,1 Z " fill="#FFFFFF" opacity="0.3764706" transform="translate(80,27)"/>
<path d="M0,0 L1,0 L1,1 L0,1 Z " fill="#FFFFFF" opacity="0.85882354" transform="translate(79,27)"/>
<path d="M0,0 L1,0 L1,1 L0,1 Z " fill="#FFFFFF" opacity="0.85882354" transform="translate(48,27)"/>
<path d="M0,0 L1,0 L1,1 L0,1 Z " fill="#FFFFFF" opacity="0.015686275" transform="translate(46,27)"/>
<path d="M0,0 L1,0 L1,1 L0,1 Z " fill="#FFFFFF" opacity="0.23137255" transform="translate(28,27)"/>
<path d="M0,0 L1,0 L1,1 L0,1 Z " fill="#FFFFFF" opacity="0.62352943" transform="translate(27,27)"/>
<path d="M0,0 L1,0 L1,1 L0,1 Z " fill="#FFFFFF" opacity="0.96862745" transform="translate(26,27)"/>
<path d="M0,0 L1,0 L1,1 L0,1 Z " fill="#FFFFFF" opacity="0.35686275" transform="translate(23,27)"/>
<path d="M0,0 L1,0 L1,1 L0,1 Z " fill="#FFFFFF" opacity="0.05882353" transform="translate(103,26)"/>
<path d="M0,0 L1,0 L1,1 L0,1 Z " fill="#FFFFFF" opacity="0.039215688" transform="translate(101,26)"/>
<path d="M0,0 L1,0 L1,1 L0,1 Z " fill="#FFFFFF" opacity="0.22352941" transform="translate(79,26)"/>
<path d="M0,0 L1,0 L1,1 L0,1 Z " fill="#FFFFFF" opacity="0.0627451" transform="translate(26,26)"/>
<path d="M0,0 L1,0 L1,1 L0,1 Z " fill="#FFFFFF" opacity="0.0627451" transform="translate(24,26)"/>
<path d="M0,0 L1,0 L1,1 L0,1 Z " fill="#FFFFFF" opacity="0.09411765" transform="translate(48,25)"/>
<path d="M0,0 L1,0 L1,1 L0,1 Z " fill="#FFFFFF" opacity="0.007843138" transform="translate(79,24)"/>
<path d="M0,0 L1,0 L1,1 L0,1 Z " fill="#FFFFFF" opacity="0.92941177" transform="translate(78,24)"/>
<path d="M0,0 L1,0 L1,1 L0,1 Z " fill="#FFFFFF" opacity="0.9529412" transform="translate(49,24)"/>
<path d="M0,0 L1,0 L1,1 L0,1 Z " fill="#FFFFFF" opacity="0.63529414" transform="translate(78,22)"/>
<path d="M0,0 L1,0 L1,1 L0,1 Z " fill="#FFFFFF" opacity="0.654902" transform="translate(49,22)"/>
<path d="M0,0 L1,0 L1,1 L0,1 Z " fill="#FFFFFF" opacity="0.3529412" transform="translate(78,20)"/>
<path d="M0,0 L1,0 L1,1 L0,1 Z " fill="#FFFFFF" opacity="0.3764706" transform="translate(49,20)"/>
<path d="M0,0 L1,0 L1,1 L0,1 Z " fill="#FFFFFF" opacity="0.0627451" transform="translate(78,18)"/>
<path d="M0,0 L1,0 L1,1 L0,1 Z " fill="#FFFFFF" opacity="0.07450981" transform="translate(49,18)"/>
<path d="M0,0 L1,0 L1,1 L0,1 Z " fill="#FFFFFF" opacity="0.78039217" transform="translate(77,16)"/>
<path d="M0,0 L1,0 L1,1 L0,1 Z " fill="#FFFFFF" opacity="0.8039216" transform="translate(50,16)"/>
<path d="M0,0 L1,0 L1,1 L0,1 Z " fill="#FFFFFF" opacity="0.49019608" transform="translate(77,14)"/>
<path d="M0,0 L1,0 L1,1 L0,1 Z " fill="#FFFFFF" opacity="0.52156866" transform="translate(50,14)"/>
<path d="M0,0 L1,0 L1,1 L0,1 Z " fill="#FFFFFF" opacity="0.14117648" transform="translate(77,12)"/>
<path d="M0,0 L1,0 L1,1 L0,1 Z " fill="#FFFFFF" opacity="0.15294118" transform="translate(50,12)"/>
<path d="M0,0 L1,0 L1,1 L0,1 Z " fill="#FFFFFF" opacity="0.5294118" transform="translate(76,11)"/>
<path d="M0,0 L1,0 L1,1 L0,1 Z " fill="#FFFFFF" opacity="0.54509807" transform="translate(51,11)"/>
<path d="M0,0 L1,0 L1,1 L0,1 Z " fill="#FFFFFF" opacity="0.17254902" transform="translate(75,10)"/>
<path d="M0,0 L1,0 L1,1 L0,1 Z " fill="#FFFFFF" opacity="0.17254902" transform="translate(52,10)"/>
</svg>
