<?xml version="1.0" encoding="UTF-8"?>
<!-- Generator: visioncortex VTracer 0.6.4 -->
<svg version="1.1" xmlns="http://www.w3.org/2000/svg" width="24" height="24">
<path d="M0,0 L2,0 L2,1 L0,1 Z M-1,1 L0,1 L0,2 L-1,2 Z M2,1 L3,1 L3,2 L2,2 Z M-2,2 L-1,2 L-1,3 L-2,3 Z M3,2 L4,2 L4,3 L3,3 Z M-3,3 L-2,3 L-2,5 L-1,5 L-1,6 L-5,6 L-5,5 L-4,5 L-4,4 L-3,4 Z M4,3 L5,3 L5,4 L6,4 L6,5 L7,5 L7,6 L3,6 L3,5 L4,5 Z M-1,7 L0,7 L0,15 L-2,15 L-2,8 L-1,8 Z M-6,15 L-2,15 L-2,17 L-6,17 Z " fill="#F5F1E8" opacity="0.84705883" transform="translate(11,4)"/>
<path d="M0,0 L2,0 L2,8 L0,8 Z M2,8 L3,8 L3,9 L2,9 Z " fill="#F5F1E8" opacity="0.84705883" transform="translate(13,11)"/>
<path d="M0,0 L1,0 L1,1 L0,1 Z M1,1 L2,1 L2,2 L1,2 Z M0,2 L1,2 L1,3 L0,3 Z M2,2 L3,2 L3,3 L2,3 Z M1,3 L2,3 L2,4 L1,4 Z M3,3 L4,3 L4,4 L3,4 Z " fill="#F5F1E8" opacity="0.67058825" transform="translate(13,4)"/>
<path d="M0,0 L2,0 L2,1 L0,1 Z M-1,1 L0,1 L0,2 L-1,2 Z M2,1 L3,1 L3,2 L2,2 Z M-2,2 L-1,2 L-1,3 L-2,3 Z M3,2 L4,2 L4,3 L3,3 Z M-3,3 L-2,3 L-2,5 L-1,5 L-1,6 L-5,6 L-5,5 L-4,5 L-4,4 L-3,4 Z M4,3 L5,3 L5,4 L6,4 L6,5 L7,5 L7,6 L3,6 L3,5 L4,5 Z " fill="#F5F1E8" transform="translate(11,4)"/>
<path d="M0,0 L1,0 L1,1 L0,1 Z M-1,1 L0,1 L0,2 L-1,2 Z " fill="#F5F1E8" opacity="0.84705883" transform="translate(10,10)"/>
<path d="M0,0 L1,0 L1,1 L2,1 L2,2 L-1,2 L-1,1 L0,1 Z M2,0 L3,0 L3,1 L2,1 Z " fill="#F5F1E8" opacity="0.9764706" transform="translate(12,19)"/>
<path d="M0,0 L1,0 L1,1 L0,1 Z M1,1 L2,1 L2,2 L1,2 Z M2,2 L3,2 L3,3 L2,3 Z M3,3 L4,3 L4,4 L5,4 L5,5 L6,5 L6,6 L2,6 L2,5 L3,5 Z " fill="#F5F1E8" transform="translate(12,4)"/>
<path d="M0,0 L3,0 L3,2 L-1,2 L-1,1 L0,1 Z " fill="#F5F1E8" opacity="0.84705883" transform="translate(16,19)"/>
<path d="M0,0 L1,0 L1,1 L0,1 Z M-1,1 L0,1 L0,2 L-1,2 Z M-2,2 L-1,2 L-1,3 L-2,3 Z M-3,3 L-2,3 L-2,4 L-3,4 Z " fill="#F5F1E8" opacity="0.6745098" transform="translate(10,4)"/>
<path d="M0,0 L1,0 L1,1 L0,1 Z " fill="#F7F1E8" opacity="0.34901962" transform="translate(16,10)"/>
<path d="M0,0 L1,0 L1,1 L0,1 Z " fill="#F7F1E8" opacity="0.34901962" transform="translate(7,10)"/>
<path d="M0,0 L1,0 L1,1 L0,1 Z M2,0 L3,0 L3,1 L2,1 Z M1,1 L2,1 L2,2 L1,2 Z " fill="#F5F1E8" opacity="0.9764706" transform="translate(9,19)"/>
<path d="M0,0 L1,0 L1,1 L2,1 L2,2 L-1,2 L-1,1 L0,1 Z " fill="#F5F1E8" transform="translate(8,8)"/>
<path d="M0,0 L2,0 L2,1 L0,1 Z M2,1 L3,1 L3,2 L2,2 Z " fill="#F5F1E8" opacity="0.015686275" transform="translate(11,6)"/>
<path d="M0,0 L1,0 L1,1 L0,1 Z M1,1 L2,1 L2,2 L1,2 Z M2,2 L3,2 L3,3 L2,3 Z M3,3 L4,3 L4,4 L3,4 Z " fill="#F5F1E8" opacity="0.015686275" transform="translate(14,4)"/>
<path d="M0,0 L1,0 L1,1 L0,1 Z M1,1 L2,1 L2,2 L1,2 Z M2,2 L3,2 L3,3 L2,3 Z M3,3 L4,3 L4,4 L3,4 Z " fill="#F5F1E8" transform="translate(12,4)"/>
<path d="M0,0 L1,0 L1,1 L0,1 Z M-1,1 L0,1 L0,2 L-1,2 Z M-2,2 L-1,2 L-1,3 L-2,3 Z M-3,3 L-2,3 L-2,4 L-3,4 Z " fill="#F5F1E8" opacity="0.015686275" transform="translate(9,4)"/>
<path d="M0,0 L1,0 L1,1 L0,1 Z " fill="#F5F2E8" opacity="0.5882353" transform="translate(11,3)"/>
<path d="M0,0 L1,0 L1,1 L0,1 Z " fill="#F7F3EB" opacity="0.23921569" transform="translate(18,9)"/>
<path d="M0,0 L1,0 L1,1 L0,1 Z " fill="#F7F3EA" opacity="0.23529412" transform="translate(5,9)"/>
<path d="M0,0 L1,0 L1,1 L0,1 Z " fill="#F8F0E9" opacity="0.13333334" transform="translate(10,8)"/>
<path d="M0,0 L1,0 L1,1 L0,1 Z " fill="#F6F2E8" opacity="0.5058824" transform="translate(19,20)"/>
<path d="M0,0 L1,0 L1,1 L0,1 Z " fill="#F6F2E8" opacity="0.5019608" transform="translate(4,20)"/>
<path d="M0,0 L1,0 L1,1 L0,1 Z " fill="#F5F1E8" opacity="0.84705883" transform="translate(13,10)"/>
<path d="M0,0 L1,0 L1,1 L0,1 Z M-1,1 L0,1 L0,2 L-1,2 Z " fill="#F5F0E7" opacity="0.6666667" transform="translate(10,6)"/>
<path d="M0,0 L2,0 L2,1 L0,1 Z " fill="#F5F1E8" opacity="0.6862745" transform="translate(11,5)"/>
<path d="M0,0 L1,0 L1,1 L0,1 Z " fill="#F5F1E8" opacity="0.9254902" transform="translate(14,20)"/>
<path d="M0,0 L1,0 L1,1 L0,1 Z " fill="#F5F0E8" opacity="0.9254902" transform="translate(9,20)"/>
<path d="M0,0 L1,0 L1,1 L0,1 Z " fill="#F6F2E8" opacity="0.5019608" transform="translate(19,19)"/>
<path d="M0,0 L1,0 L1,1 L0,1 Z " fill="#F5F1E8" opacity="0.99607843" transform="translate(13,19)"/>
<path d="M0,0 L1,0 L1,1 L0,1 Z " fill="#F5F1E8" opacity="0.99607843" transform="translate(10,19)"/>
<path d="M0,0 L1,0 L1,1 L0,1 Z " fill="#F6F2E8" opacity="0.5058824" transform="translate(4,19)"/>
<path d="M0,0 L1,0 L1,1 L0,1 Z " fill="#F7F3EB" opacity="0.011764706" transform="translate(18,10)"/>
<path d="M0,0 L1,0 L1,1 L0,1 Z " fill="#F5F2E7" opacity="0.2901961" transform="translate(17,10)"/>
<path d="M0,0 L1,0 L1,1 L0,1 Z " fill="#F7F1E8" opacity="0.34509805" transform="translate(15,10)"/>
<path d="M0,0 L1,0 L1,1 L0,1 Z " fill="#F5F1E8" opacity="0.8980392" transform="translate(14,10)"/>
<path d="M0,0 L1,0 L1,1 L0,1 Z " fill="#F5F1E8" opacity="0.8980392" transform="translate(9,10)"/>
<path d="M0,0 L1,0 L1,1 L0,1 Z " fill="#F7F1E8" opacity="0.34509805" transform="translate(8,10)"/>
<path d="M0,0 L1,0 L1,1 L0,1 Z " fill="#F5F2E7" opacity="0.2901961" transform="translate(6,10)"/>
<path d="M0,0 L1,0 L1,1 L0,1 Z " fill="#F7F3EA" opacity="0.011764706" transform="translate(5,10)"/>
<path d="M0,0 L1,0 L1,1 L0,1 Z " fill="#F5F2E8" opacity="0.79607844" transform="translate(13,9)"/>
<path d="M0,0 L1,0 L1,1 L0,1 Z " fill="#F5F2E7" opacity="0.7921569" transform="translate(10,9)"/>
<path d="M0,0 L1,0 L1,1 L0,1 Z " fill="#F4F1E8" opacity="0.011764706" transform="translate(18,8)"/>
<path d="M0,0 L1,0 L1,1 L0,1 Z " fill="#F4F1E8" opacity="0.81960785" transform="translate(17,8)"/>
<path d="M0,0 L1,0 L1,1 L0,1 Z " fill="#F7F2E9" opacity="0.36078432" transform="translate(14,8)"/>
<path d="M0,0 L1,0 L1,1 L0,1 Z " fill="#F8F0E9" opacity="0.13333334" transform="translate(13,8)"/>
<path d="M0,0 L1,0 L1,1 L0,1 Z " fill="#F7F2E9" opacity="0.36078432" transform="translate(9,8)"/>
<path d="M0,0 L1,0 L1,1 L0,1 Z " fill="#F5F1E8" opacity="0.8235294" transform="translate(6,8)"/>
<path d="M0,0 L1,0 L1,1 L0,1 Z " fill="#F5F1E8" opacity="0.011764706" transform="translate(5,8)"/>
<path d="M0,0 L1,0 L1,1 L0,1 Z " fill="#F5F0E7" opacity="0.015686275" transform="translate(10,7)"/>
<path d="M0,0 L1,0 L1,1 L0,1 Z " fill="#F5F2E7" opacity="0.015686275" transform="translate(13,3)"/>
<path d="M0,0 L1,0 L1,1 L0,1 Z " fill="#F5F2E7" opacity="0.58431375" transform="translate(12,3)"/>
<path d="M0,0 L1,0 L1,1 L0,1 Z " fill="#F5F2E8" opacity="0.015686275" transform="translate(10,3)"/>
</svg>
