<?xml version="1.0" encoding="UTF-8"?>
<!-- Generator: visioncortex VTracer 0.6.4 -->
<svg version="1.1" xmlns="http://www.w3.org/2000/svg" width="24" height="24">
<path d="M0,0 L2,0 L2,1 L1,1 L1,2 L0,2 Z M1,2 L2,2 L2,3 L1,3 Z M2,3 L3,3 L3,4 L2,4 Z M3,4 L4,4 L4,5 L3,5 Z M5,4 L6,4 L6,5 L5,5 Z M4,5 L5,5 L5,6 L4,6 Z M-7,14 L-4,14 L-4,15 L-5,15 L-5,16 L-8,16 L-8,15 L-7,15 Z " fill="#F5F1E8" opacity="0.9764706" transform="translate(13,5)"/>
<path d="M0,0 L2,0 L2,1 L1,1 L1,2 L0,2 Z M1,2 L2,2 L2,3 L1,3 Z M2,3 L3,3 L3,4 L2,4 Z M3,4 L4,4 L4,5 L3,5 Z M5,4 L6,4 L6,5 L5,5 Z M4,5 L5,5 L5,6 L4,6 Z " fill="#F5F1E8" transform="translate(13,5)"/>
<path d="M0,0 L8,0 L8,2 L-1,2 L-1,1 L0,1 Z " fill="#F5F1E8" opacity="0.84705883" transform="translate(12,19)"/>
<path d="M0,0 L1,0 L1,1 L0,1 Z M-1,1 L0,1 L0,2 L-1,2 Z M-2,2 L-1,2 L-1,3 L-2,3 Z M-3,3 L-2,3 L-2,4 L-3,4 Z M-4,4 L-3,4 L-3,5 L-4,5 Z M-5,5 L-4,5 L-4,6 L-5,6 Z M-6,6 L-5,6 L-5,7 L-6,7 Z M-7,7 L-6,7 L-6,8 L-7,8 Z " fill="#F5F1E8" opacity="0.92156863" transform="translate(16,11)"/>
<path d="M0,0 L1,0 L1,1 L0,1 Z M1,1 L2,1 L2,2 L1,2 Z M2,2 L3,2 L3,3 L2,3 Z " fill="#F5F1E8" opacity="0.98039216" transform="translate(15,6)"/>
<path d="M0,0 L1,0 L1,1 L0,1 Z M-1,1 L0,1 L0,2 L-1,2 Z M-2,2 L-1,2 L-1,3 L-2,3 Z M-3,3 L-2,3 L-2,4 L-3,4 Z M-4,4 L-3,4 L-3,5 L-4,5 Z M-5,5 L-4,5 L-4,6 L-5,6 Z M-6,6 L-5,6 L-5,7 L-6,7 Z M-7,7 L-6,7 L-6,8 L-7,8 Z " fill="#FAF4E9" opacity="0.1764706" transform="translate(15,11)"/>
<path d="M0,0 L1,0 L1,1 L0,1 Z M-1,1 L0,1 L0,2 L-1,2 Z M-2,2 L-1,2 L-1,3 L-2,3 Z M-3,3 L-2,3 L-2,4 L-3,4 Z M-4,4 L-3,4 L-3,5 L-4,5 Z M-5,5 L-4,5 L-4,6 L-5,6 Z M-6,6 L-5,6 L-5,7 L-6,7 Z M-7,7 L-6,7 L-6,8 L-7,8 Z " fill="#F9F3E7" opacity="0.16470589" transform="translate(12,8)"/>
<path d="M0,0 L1,0 L1,1 L0,1 Z M-1,1 L0,1 L0,2 L-1,2 Z M-2,2 L-1,2 L-1,3 L-2,3 Z M-3,3 L-2,3 L-2,4 L-3,4 Z M-4,4 L-3,4 L-3,5 L-4,5 Z M-5,5 L-4,5 L-4,6 L-5,6 Z M-6,6 L-5,6 L-5,7 L-6,7 Z M-7,7 L-6,7 L-6,8 L-7,8 Z " fill="#F4F1E8" opacity="0.9098039" transform="translate(12,7)"/>
<path d="M0,0 L1,0 L1,1 L0,1 Z M-1,1 L0,1 L0,2 L-1,2 Z M-2,2 L-1,2 L-1,3 L-2,3 Z M-3,3 L-2,3 L-2,4 L-3,4 Z M-4,4 L-3,4 L-3,5 L-4,5 Z M-5,5 L-4,5 L-4,6 L-5,6 Z M-6,6 L-5,6 L-5,7 L-6,7 Z M-7,7 L-6,7 L-6,8 L-7,8 Z " fill="#F5F1E8" opacity="0.98039216" transform="translate(11,7)"/>
<path d="M0,0 L2,0 L2,3 L0,3 Z " fill="#F5F1E8" opacity="0.84705883" transform="translate(3,16)"/>
<path d="M0,0 L1,0 L1,1 L0,1 Z M-1,1 L0,1 L0,2 L-1,2 Z M-2,2 L-1,2 L-1,3 L-2,3 Z M-3,3 L-2,3 L-2,4 L-3,4 Z M-4,4 L-3,4 L-3,5 L-4,5 Z M-5,5 L-4,5 L-4,6 L-5,6 Z M-6,6 L-5,6 L-5,7 L-6,7 Z M-7,7 L-6,7 L-6,8 L-7,8 Z " fill="#F6F3EA" opacity="0.32156864" transform="translate(11,6)"/>
<path d="M0,0 L1,0 L1,1 L0,1 Z M-1,1 L0,1 L0,2 L-1,2 Z M-2,2 L-1,2 L-1,3 L-2,3 Z M-3,3 L-2,3 L-2,4 L-3,4 Z M-4,4 L-3,4 L-3,5 L-4,5 Z M-5,5 L-4,5 L-4,6 L-5,6 Z M-6,6 L-5,6 L-5,7 L-6,7 Z " fill="#F6F2E8" opacity="0.3019608" transform="translate(17,12)"/>
<path d="M0,0 L1,0 L1,1 L0,1 Z M-1,1 L0,1 L0,2 L-1,2 Z M-2,2 L-1,2 L-1,3 L-2,3 Z M-3,3 L-2,3 L-2,4 L-3,4 Z M-4,4 L-3,4 L-3,5 L-4,5 Z M-5,5 L-4,5 L-4,6 L-5,6 Z M-6,6 L-5,6 L-5,7 L-6,7 Z " fill="#F5F1E8" opacity="0.9764706" transform="translate(16,12)"/>
<path d="M0,0 L1,0 L1,1 L0,1 Z M-1,1 L0,1 L0,2 L-1,2 Z " fill="#F5F1E8" opacity="0.84705883" transform="translate(11,19)"/>
<path d="M0,0 L1,0 L1,1 L0,1 Z " fill="#F5F1E8" opacity="0.99607843" transform="translate(4,19)"/>
<path d="M0,0 L1,0 L1,1 L0,1 Z M1,1 L2,1 L2,2 L1,2 Z M2,2 L3,2 L3,3 L2,3 Z " fill="#FAF4E8" opacity="0.16862746" transform="translate(15,4)"/>
<path d="M0,0 L1,0 L1,1 L0,1 Z " fill="#F6F2E8" opacity="0.5058824" transform="translate(20,20)"/>
<path d="M0,0 L2,0 L2,1 L0,1 Z " fill="#F5F1E8" opacity="0.99607843" transform="translate(8,19)"/>
<path d="M0,0 L1,0 L1,1 L0,1 Z M-1,1 L0,1 L0,2 L-1,2 Z " fill="#F5F1E8" opacity="0.9764706" transform="translate(5,19)"/>
<path d="M0,0 L1,0 L1,1 L0,1 Z " fill="#F6F1E8" opacity="0.8117647" transform="translate(3,15)"/>
<path d="M0,0 L1,0 L1,1 L0,1 Z M1,1 L2,1 L2,2 L1,2 Z " fill="#F5F1E8" opacity="0.015686275" transform="translate(14,9)"/>
<path d="M0,0 L1,0 L1,1 L0,1 Z M1,1 L2,1 L2,2 L1,2 Z " fill="#F5F1E8" opacity="0.67058825" transform="translate(14,8)"/>
<path d="M0,0 L1,0 L1,1 L0,1 Z M1,1 L2,1 L2,2 L1,2 Z " fill="#FAF4E8" opacity="0.17254902" transform="translate(18,7)"/>
<path d="M0,0 L1,0 L1,1 L0,1 Z M1,1 L2,1 L2,2 L1,2 Z " fill="#F5F1E7" opacity="0.91764706" transform="translate(17,7)"/>
<path d="M0,0 L1,0 L1,1 L0,1 Z " fill="#F5F1E9" opacity="0.9882353" transform="translate(12,6)"/>
<path d="M0,0 L1,0 L1,1 L0,1 Z M1,1 L2,1 L2,2 L1,2 Z " fill="#F5F1E8" opacity="0.9137255" transform="translate(15,5)"/>
<path d="M0,0 L1,0 L1,1 L0,1 Z " fill="#F5F0E8" opacity="0.73333335" transform="translate(14,4)"/>
<path d="M0,0 L1,0 L1,1 L0,1 Z " fill="#F5F2E8" opacity="0.8901961" transform="translate(9,20)"/>
<path d="M0,0 L1,0 L1,1 L0,1 Z " fill="#F5F1E8" opacity="0.972549" transform="translate(8,20)"/>
<path d="M0,0 L1,0 L1,1 L0,1 Z " fill="#F5F1E8" opacity="0.7529412" transform="translate(3,20)"/>
<path d="M0,0 L1,0 L1,1 L0,1 Z " fill="#F6F2E8" opacity="0.5019608" transform="translate(20,19)"/>
<path d="M0,0 L1,0 L1,1 L0,1 Z " fill="#F4F1E7" opacity="0.89411765" transform="translate(10,19)"/>
<path d="M0,0 L1,0 L1,1 L0,1 Z " fill="#F5F1E8" transform="translate(8,19)"/>
<path d="M0,0 L1,0 L1,1 L0,1 Z " fill="#F5F1E8" opacity="0.9254902" transform="translate(3,19)"/>
<path d="M0,0 L1,0 L1,1 L0,1 Z " fill="#F5F1E8" opacity="0.99215686" transform="translate(4,15)"/>
<path d="M0,0 L1,0 L1,1 L0,1 Z " fill="#F6F2E9" opacity="0.30588236" transform="translate(3,14)"/>
<path d="M0,0 L1,0 L1,1 L0,1 Z " fill="#F7F2E7" opacity="0.4509804" transform="translate(18,11)"/>
<path d="M0,0 L1,0 L1,1 L0,1 Z " fill="#F5F1E8" opacity="0.9882353" transform="translate(17,11)"/>
<path d="M0,0 L1,0 L1,1 L0,1 Z " fill="#F5F2E8" opacity="0.29411766" transform="translate(19,10)"/>
<path d="M0,0 L1,0 L1,1 L0,1 Z " fill="#F5F1E9" opacity="0.99607843" transform="translate(18,10)"/>
<path d="M0,0 L1,0 L1,1 L0,1 Z " fill="#F6F2E8" opacity="0.7254902" transform="translate(16,10)"/>
<path d="M0,0 L1,0 L1,1 L0,1 Z " fill="#F5F0E8" opacity="0.73333335" transform="translate(19,9)"/>
<path d="M0,0 L1,0 L1,1 L0,1 Z " fill="#F5F0E7" opacity="0.83137256" transform="translate(17,9)"/>
<path d="M0,0 L1,0 L1,1 L0,1 Z " fill="#F5F0E7" opacity="0.77254903" transform="translate(16,8)"/>
<path d="M0,0 L1,0 L1,1 L0,1 Z " fill="#F6F2E8" opacity="0.015686275" transform="translate(13,8)"/>
<path d="M0,0 L1,0 L1,1 L0,1 Z " fill="#F5F1E8" opacity="0.77254903" transform="translate(15,7)"/>
<path d="M0,0 L1,0 L1,1 L0,1 Z " fill="#F6F2E8" opacity="0.72156864" transform="translate(13,7)"/>
<path d="M0,0 L1,0 L1,1 L0,1 Z " fill="#F5F1E7" opacity="0.827451" transform="translate(14,6)"/>
<path d="M0,0 L1,0 L1,1 L0,1 Z " fill="#F7F3EB" opacity="0.47843137" transform="translate(12,5)"/>
<path d="M0,0 L1,0 L1,1 L0,1 Z " fill="#F6F2E9" opacity="0.30588236" transform="translate(13,4)"/>
</svg>
