<?xml version="1.0" encoding="UTF-8"?>
<!-- Generator: visioncortex VTracer 0.6.4 -->
<svg version="1.1" xmlns="http://www.w3.org/2000/svg" width="64" height="64">
<path d="M0,0 L3,0 L3,1 L4,1 L4,2 L6,2 L6,3 L7,3 L7,4 L2,4 L2,3 L1,3 L1,2 L-1,2 L-1,1 L0,1 Z " fill="#A33A24" opacity="0.9607843" transform="translate(45,8)"/>
<path d="M0,0 L1,0 L1,4 L0,4 Z " fill="#C99B47" opacity="0.9019608" transform="translate(15,28)"/>
<path d="M0,0 L4,0 L4,1 L3,1 L3,2 L2,2 L2,4 L0,4 Z M-1,4 L0,4 L0,9 L-1,9 L-1,23 L0,23 L0,24 L-3,24 L-3,23 L-4,23 L-4,9 L-3,9 L-3,6 L-2,6 L-2,5 L-1,5 Z " fill="#A33A24" opacity="0.9607843" transform="translate(8,16)"/>
<path d="M0,0 L1,0 L1,2 L2,2 L2,3 L3,3 L3,8 L2,8 L2,7 L1,7 L1,5 L0,5 L0,4 L-1,4 L-1,1 L0,1 Z " fill="#A33A24" opacity="0.9607843" transform="translate(9,44)"/>
<path d="M0,0 L1,0 L1,8 L0,8 Z " fill="#C99B48" opacity="0.90588236" transform="translate(48,28)"/>
<path d="M0,0 L1,0 L1,4 L-1,4 L-1,5 L-2,5 L-2,6 L-3,6 L-3,3 L-2,3 L-2,2 L-1,2 L-1,1 L0,1 Z " fill="#A33B26" opacity="0.95686275" transform="translate(47,52)"/>
<path d="M0,0 L2,0 L2,3 L1,3 L1,2 L0,2 Z " fill="#CA9C46" opacity="0.8980392" transform="translate(22,44)"/>
<path d="M0,0 L14,0 L14,1 L15,1 L15,4 L14,4 L14,3 L0,3 L0,4 L-5,4 L-5,3 L-4,3 L-4,2 L-3,2 L-3,1 L0,1 Z M-8,4 L-5,4 L-5,6 L-7,6 L-7,7 L-8,7 L-8,8 L-9,8 L-9,5 L-8,5 Z " fill="#A33A24" opacity="0.9607843" transform="translate(25,4)"/>
<path d="M0,0 L6,0 L6,1 L7,1 L7,7 L6,7 L6,8 L0,8 L0,7 L-1,7 L-1,1 L0,1 Z " fill="#4C241A" transform="translate(29,28)"/>
<path d="M0,0 L3,0 L3,7 L2,7 L2,8 L-1,8 L-1,7 L0,7 Z " fill="#A33A24" opacity="0.9607843" transform="translate(57,32)"/>
<path d="M0,0 L3,0 L3,1 L2,1 L2,3 L1,3 L1,4 L0,4 Z M-3,4 L0,4 L0,5 L-1,5 L-1,6 L-3,6 L-3,7 L-4,7 L-4,5 L-3,5 Z " fill="#A23824" opacity="0.9529412" transform="translate(52,48)"/>
<path d="M0,0 L2,0 L2,2 L3,2 L3,4 L0,4 L0,2 L-1,2 L-1,1 L0,1 Z " fill="#A43B23" opacity="0.9607843" transform="translate(56,20)"/>
<path d="M0,0 L3,0 L3,1 L7,1 L7,2 L-1,2 L-1,1 L0,1 Z " fill="#C99B47" opacity="0.9019608" transform="translate(29,15)"/>
<path d="M0,0 L1,0 L1,1 L0,1 Z M-1,1 L0,1 L0,2 L-1,2 Z " fill="#C99B45" opacity="0.90588236" transform="translate(43,42)"/>
<path d="M0,0 L8,0 L8,1 L0,1 Z " fill="#C99B48" opacity="0.90588236" transform="translate(28,48)"/>
<path d="M0,0 L1,0 L1,1 L4,1 L4,4 L1,4 L1,3 L0,3 Z " fill="#A33A24" opacity="0.9607843" transform="translate(24,56)"/>
<path d="M0,0 L8,0 L8,3 L0,3 Z " fill="#A23A23" opacity="0.9647059" transform="translate(28,57)"/>
<path d="M0,0 L1,0 L1,1 L0,1 Z M-1,1 L0,1 L0,2 L-1,2 Z M-2,2 L-1,2 L-1,3 L-2,3 Z " fill="#C99B48" opacity="0.8980392" transform="translate(19,21)"/>
<path d="M0,0 L1,0 L1,1 L3,1 L3,4 L1,4 L1,3 L-1,3 L-1,1 L0,1 Z " fill="#A43B23" opacity="0.9607843" transform="translate(21,55)"/>
<path d="M0,0 L4,0 L4,3 L3,3 L3,2 L1,2 L1,1 L0,1 Z " fill="#A33924" opacity="0.9607843" transform="translate(12,52)"/>
<path d="M0,0 L1,0 L1,1 L2,1 L2,2 L3,2 L3,3 L0,3 Z " fill="#C99B47" opacity="0.8980392" transform="translate(40,17)"/>
<path d="M0,0 L1,0 L1,1 L2,1 L2,3 L3,3 L3,4 L0,4 Z " fill="#A33924" opacity="0.9607843" transform="translate(52,12)"/>
<path d="M0,0 L3,0 L3,2 L2,2 L2,4 L0,4 Z " fill="#A43B23" opacity="0.9607843" transform="translate(56,40)"/>
<path d="M0,0 L1,0 L1,1 L0,1 Z M-1,1 L0,1 L0,2 L-1,2 Z " fill="#A33A24" opacity="0.9647059" transform="translate(13,10)"/>
<path d="M0,0 L3,0 L3,1 L4,1 L4,4 L1,4 L1,1 L0,1 Z " fill="#A33A24" opacity="0.9607843" transform="translate(56,24)"/>
<path d="M0,0 L1,0 L1,2 L0,2 L0,4 L-2,4 L-2,2 L-1,2 L-1,1 L0,1 Z " fill="#CB9A49" opacity="0.8901961" transform="translate(18,24)"/>
<path d="M0,0 L4,0 L4,2 L2,2 L2,3 L0,3 Z " fill="#A43B23" opacity="0.9607843" transform="translate(40,56)"/>
<path d="M0,0 L2,0 L2,3 L3,3 L3,4 L1,4 L1,3 L0,3 Z " fill="#C99B47" opacity="0.90588236" transform="translate(16,36)"/>
<path d="M0,0 L2,0 L2,1 L4,1 L4,3 L0,3 Z " fill="#A33A24" opacity="0.9647059" transform="translate(40,5)"/>
<path d="M0,0 L1,0 L1,1 L4,1 L4,3 L1,3 L1,2 L0,2 Z " fill="#CC9C48" opacity="0.90588236" transform="translate(24,45)"/>
<path d="M0,0 L3,0 L3,4 L1,4 L1,2 L0,2 Z " fill="#A33A24" opacity="0.9647059" transform="translate(5,40)"/>
<path d="M0,0 L2,0 L2,4 L-2,4 L-2,3 L-1,3 L-1,2 L0,2 Z " fill="#A23824" opacity="0.96862745" transform="translate(54,44)"/>
<path d="M0,0 L2,0 L2,3 L1,3 L1,4 L-1,4 L-1,2 L0,2 Z " fill="#C99B48" opacity="0.8980392" transform="translate(46,36)"/>
<path d="M0,0 L1,0 L1,1 L0,1 Z M-1,1 L0,1 L0,2 L-1,2 Z " fill="#A23824" opacity="0.9529412" transform="translate(7,18)"/>
<path d="M0,0 L2,0 L2,2 L1,2 L1,3 L-2,3 L-2,2 L-1,2 L-1,1 L0,1 Z " fill="#C99B47" opacity="0.8980392" transform="translate(38,45)"/>
<path d="M0,0 L2,0 L2,1 L3,1 L3,2 L0,2 Z " fill="#CA9C46" opacity="0.8980392" transform="translate(44,22)"/>
<path d="M0,0 L2,0 L2,1 L0,1 Z " fill="#A33A24" opacity="0.9411765" transform="translate(31,3)"/>
<path d="M0,0 L1,0 L1,1 L0,1 Z " fill="#A33A24" opacity="0.92941177" transform="translate(32,60)"/>
<path d="M0,0 L1,0 L1,3 L0,3 L0,4 L-3,4 L-3,2 L-2,2 L-2,1 L0,1 Z " fill="#A33A24" opacity="0.9607843" transform="translate(39,56)"/>
<path d="M0,0 L1,0 L1,2 L0,2 Z M-1,2 L0,2 L0,3 L-1,3 Z M-3,3 L-1,3 L-1,4 L-3,4 Z " fill="#A23C24" opacity="0.96862745" transform="translate(51,48)"/>
<path d="M0,0 L1,0 L1,1 L0,1 Z " fill="#A33A24" opacity="0.92941177" transform="translate(60,32)"/>
<path d="M0,0 L4,0 L4,1 L2,1 L2,2 L1,2 L1,4 L0,4 Z " fill="#A33924" opacity="0.9647059" transform="translate(12,12)"/>
<path d="M0,0 L1,0 L1,2 L2,2 L2,3 L4,3 L4,4 L0,4 Z " fill="#A23824" opacity="0.9529412" transform="translate(12,48)"/>
<path d="M0,0 L2,0 L2,1 L3,1 L3,4 L1,4 L1,1 L0,1 Z " fill="#CA9C48" opacity="0.90588236" transform="translate(45,24)"/>
<path d="M0,0 L1,0 L1,2 L-1,2 L-1,1 L0,1 Z " fill="#C99B48" opacity="0.9019608" transform="translate(23,18)"/>
<path d="M0,0 L4,0 L4,4 L3,4 L3,2 L2,2 L2,1 L0,1 Z " fill="#A43823" opacity="0.9607843" transform="translate(48,12)"/>
<path d="M0,0 L1,0 L1,1 L0,1 Z M-1,1 L0,1 L0,2 L-1,2 Z " fill="#A23824" opacity="0.9529412" transform="translate(19,6)"/>
<path d="M0,0 L1,0 L1,1 L0,1 Z " fill="#A23620" opacity="0.023529412" transform="translate(31,56)"/>
<path d="M0,0 L3,0 L3,1 L2,1 L2,2 L1,2 L1,3 L0,3 Z " fill="#CA9C48" opacity="0.8980392" transform="translate(40,44)"/>
<path d="M0,0 L3,0 L3,3 L2,3 L2,2 L1,2 L1,1 L0,1 Z " fill="#CA9948" opacity="0.8980392" transform="translate(17,40)"/>
<path d="M0,0 L1,0 L1,1 L0,1 Z " fill="#A23620" opacity="0.023529412" transform="translate(56,31)"/>
<path d="M0,0 L3,0 L3,4 L0,4 Z " fill="#A23A23" opacity="0.9647059" transform="translate(57,28)"/>
<path d="M0,0 L2,0 L2,1 L0,1 Z " fill="#A23C24" opacity="0.9529412" transform="translate(56,19)"/>
<path d="M0,0 L3,0 L3,1 L4,1 L4,3 L3,3 L3,2 L0,2 Z " fill="#C99B47" opacity="0.90588236" transform="translate(36,16)"/>
<path d="M0,0 L2,0 L2,1 L4,1 L4,3 L0,3 Z " fill="#A33A24" opacity="0.9607843" transform="translate(16,53)"/>
<path d="M0,0 L1,0 L1,1 L0,1 Z " fill="#A23923" opacity="0.015686275" transform="translate(7,31)"/>
<path d="M0,0 L3,0 L3,4 L1,4 L1,2 L0,2 Z " fill="#A33A24" opacity="0.9607843" transform="translate(53,16)"/>
<path d="M0,0 L1,0 L1,1 L0,1 Z " fill="#A23923" opacity="0.015686275" transform="translate(31,7)"/>
<path d="M0,0 L1,0 L1,1 L2,1 L2,2 L0,2 Z " fill="#C99B46" opacity="0.90588236" transform="translate(20,42)"/>
<path d="M0,0 L3,0 L3,1 L2,1 L2,2 L1,2 L1,3 L0,3 Z " fill="#CA9C48" opacity="0.8980392" transform="translate(44,40)"/>
<path d="M0,0 L1,0 L1,1 L0,1 Z " fill="#CA9C47" opacity="0.49411765" transform="translate(46,32)"/>
<path d="M0,0 L1,0 L1,1 L0,1 Z M-1,1 L0,1 L0,2 L-1,2 Z M-2,2 L-1,2 L-1,3 L-2,3 Z " fill="#C99B48" opacity="0.9019608" transform="translate(23,17)"/>
<path d="M0,0 L2,0 L2,1 L1,1 L1,2 L0,2 Z " fill="#CB9A49" opacity="0.90588236" transform="translate(20,20)"/>
<path d="M0,0 L2,0 L2,2 L-1,2 L-1,1 L0,1 Z M-2,2 L-1,2 L-1,3 L-2,3 Z " fill="#CA9C48" opacity="0.90588236" transform="translate(26,16)"/>
<path d="M0,0 L1,0 L1,2 L0,2 Z " fill="#A23C24" opacity="0.9529412" transform="translate(19,56)"/>
<path d="M0,0 L1,0 L1,1 L0,1 Z " fill="#C99B47" opacity="0.39607844" transform="translate(31,49)"/>
<path d="M0,0 L1,0 L1,1 L0,1 Z " fill="#C99B47" opacity="0.39607844" transform="translate(49,31)"/>
<path d="M0,0 L1,0 L1,1 L0,1 Z " fill="#C99B46" opacity="0.42352942" transform="translate(14,31)"/>
<path d="M0,0 L1,0 L1,1 L0,1 Z " fill="#C99B46" opacity="0.42352942" transform="translate(31,14)"/>
<path d="M0,0 L2,0 L2,1 L1,1 L1,2 L0,2 Z " fill="#A33B26" opacity="0.95686275" transform="translate(56,44)"/>
<path d="M0,0 L1,0 L1,1 L2,1 L2,2 L0,2 Z " fill="#C99847" opacity="0.007843138" transform="translate(16,42)"/>
<path d="M0,0 L2,0 L2,2 L1,2 L1,1 L0,1 Z " fill="#CA9C48" opacity="0.007843138" transform="translate(42,16)"/>
<path d="M0,0 L4,0 L4,1 L0,1 Z " fill="#C99B48" opacity="0.9019608" transform="translate(32,15)"/>
<path d="M0,0 L1,0 L1,3 L-2,3 L-2,2 L-1,2 L-1,1 L0,1 Z " fill="#A43823" opacity="0.9607843" transform="translate(11,13)"/>
<path d="M0,0 L1,0 L1,1 L0,1 Z " fill="#A23824" opacity="0.9529412" transform="translate(42,55)"/>
<path d="M0,0 L2,0 L2,1 L0,1 Z " fill="#9F3723" opacity="0.003921569" transform="translate(12,55)"/>
<path d="M0,0 L4,0 L4,1 L0,1 Z " fill="#C99B47" opacity="0.90588236" transform="translate(32,47)"/>
<path d="M0,0 L2,0 L2,1 L0,1 Z " fill="#CA9C47" opacity="0.49411765" transform="translate(31,46)"/>
<path d="M0,0 L2,0 L2,1 L0,1 Z " fill="#4C2319" opacity="0.9098039" transform="translate(31,36)"/>
<path d="M0,0 L1,0 L1,2 L0,2 Z " fill="#4C2319" opacity="0.9098039" transform="translate(36,31)"/>
<path d="M0,0 L1,0 L1,1 L0,1 Z " fill="#4B2319" opacity="0.91764706" transform="translate(27,32)"/>
<path d="M0,0 L1,0 L1,1 L0,1 Z " fill="#CA9C47" opacity="0.49019608" transform="translate(17,32)"/>
<path d="M0,0 L1,0 L1,1 L0,1 Z " fill="#4B2319" opacity="0.91764706" transform="translate(32,27)"/>
<path d="M0,0 L1,0 L1,1 L0,1 Z " fill="#A13923" opacity="0.06666667" transform="translate(4,21)"/>
<path d="M0,0 L1,0 L1,2 L0,2 Z " fill="#C99B46" opacity="0.90588236" transform="translate(43,20)"/>
<path d="M0,0 L2,0 L2,1 L0,1 Z " fill="#C99B46" opacity="0.5058824" transform="translate(31,17)"/>
<path d="M0,0 L1,0 L1,3 L-2,3 L-2,2 L-1,2 L-1,1 L0,1 Z " fill="#A33A24" opacity="0.9647059" transform="translate(15,9)"/>
<path d="M0,0 L1,0 L1,1 L0,1 Z " fill="#A23923" opacity="0.5882353" transform="translate(20,5)"/>
<path d="M0,0 L1,0 L1,1 L0,1 Z M-1,1 L0,1 L0,2 L-1,2 Z " fill="#A23C24" opacity="0.9411765" transform="translate(50,49)"/>
<path d="M0,0 L1,0 L1,1 L0,1 Z M1,1 L2,1 L2,2 L1,2 Z " fill="#A23824" opacity="0.9254902" transform="translate(13,49)"/>
<path d="M0,0 L2,0 L2,2 L1,2 L1,1 L0,1 Z " fill="#A43823" opacity="0.96862745" transform="translate(6,44)"/>
<path d="M0,0 L1,0 L1,2 L0,2 Z " fill="#C89A47" opacity="0.007843138" transform="translate(44,36)"/>
<path d="M0,0 L1,0 L1,3 L0,3 Z " fill="#CA9C48" opacity="0.90588236" transform="translate(47,32)"/>
<path d="M0,0 L1,0 L1,4 L0,4 Z " fill="#CA9C48" opacity="0.8980392" transform="translate(16,32)"/>
<path d="M0,0 L1,0 L1,4 L0,4 Z " fill="#C99B48" opacity="0.9019608" transform="translate(15,32)"/>
<path d="M0,0 L1,0 L1,1 L0,1 Z " fill="#C79A47" opacity="0.007843138" transform="translate(26,19)"/>
<path d="M0,0 L1,0 L1,1 L0,1 Z M1,1 L2,1 L2,2 L1,2 Z " fill="#A43823" opacity="0.91764706" transform="translate(49,13)"/>
<path d="M0,0 L1,0 L1,1 L0,1 Z M-1,1 L0,1 L0,2 L-1,2 Z " fill="#A33924" opacity="0.90588236" transform="translate(14,13)"/>
<path d="M0,0 L1,0 L1,1 L2,1 L2,2 L0,2 Z " fill="#A43823" opacity="0.96862745" transform="translate(44,6)"/>
<path d="M0,0 L1,0 L1,1 L0,1 Z " fill="#A23A23" opacity="0.7254902" transform="translate(28,60)"/>
<path d="M0,0 L1,0 L1,1 L0,1 Z " fill="#A33A24" opacity="0.92941177" transform="translate(24,59)"/>
<path d="M0,0 L1,0 L1,1 L0,1 Z " fill="#A23620" opacity="0.14117648" transform="translate(29,56)"/>
<path d="M0,0 L1,0 L1,1 L0,1 Z " fill="#9D3820" opacity="0.44313726" transform="translate(44,53)"/>
<path d="M0,0 L1,0 L1,1 L0,1 Z " fill="#A23A22" opacity="0.043137256" transform="translate(20,53)"/>
<path d="M0,0 L4,0 L4,1 L0,1 Z " fill="#CA9C48" opacity="0.90588236" transform="translate(28,47)"/>
<path d="M0,0 L1,0 L1,1 L0,1 Z " fill="#A33A24" opacity="0.9607843" transform="translate(8,44)"/>
<path d="M0,0 L1,0 L1,1 L0,1 Z " fill="#A23824" opacity="0.9529412" transform="translate(55,42)"/>
<path d="M0,0 L1,0 L1,1 L0,1 Z " fill="#C99B45" opacity="0.8666667" transform="translate(43,41)"/>
<path d="M0,0 L1,0 L1,1 L0,1 Z " fill="#A23620" opacity="0.14117648" transform="translate(56,29)"/>
<path d="M0,0 L1,0 L1,4 L0,4 Z " fill="#C99B48" opacity="0.8980392" transform="translate(47,28)"/>
<path d="M0,0 L1,0 L1,1 L0,1 Z " fill="#C89A47" opacity="0.011764706" transform="translate(45,29)"/>
<path d="M0,0 L1,0 L1,1 L0,1 Z " fill="#A23923" opacity="0.13333334" transform="translate(7,29)"/>
<path d="M0,0 L1,0 L1,1 L0,1 Z " fill="#A23A23" opacity="0.7254902" transform="translate(60,28)"/>
<path d="M0,0 L1,0 L1,1 L0,1 Z " fill="#A33A23" opacity="0.7372549" transform="translate(3,28)"/>
<path d="M0,0 L1,0 L1,1 L0,1 Z " fill="#A33A24" opacity="0.92941177" transform="translate(59,24)"/>
<path d="M0,0 L1,0 L1,1 L0,1 Z " fill="#CA9C46" opacity="0.77254903" transform="translate(45,21)"/>
<path d="M0,0 L1,0 L1,1 L0,1 Z " fill="#A23A22" opacity="0.043137256" transform="translate(53,20)"/>
<path d="M0,0 L1,0 L1,1 L0,1 Z " fill="#CA9C48" opacity="0.09019608" transform="translate(38,19)"/>
<path d="M0,0 L1,0 L1,1 L0,1 Z " fill="#C99B48" opacity="0.7921569" transform="translate(21,18)"/>
<path d="M0,0 L1,0 L1,1 L0,1 Z " fill="#A23B23" opacity="0.44705883" transform="translate(56,16)"/>
<path d="M0,0 L1,0 L1,1 L0,1 Z " fill="#C99B47" opacity="0.9019608" transform="translate(28,15)"/>
<path d="M0,0 L1,0 L1,1 L0,1 Z " fill="#A33722" opacity="0.7647059" transform="translate(8,15)"/>
<path d="M0,0 L1,0 L1,1 L0,1 Z M-1,1 L0,1 L0,2 L-1,2 Z " fill="#A43823" opacity="0.9607843" transform="translate(11,12)"/>
<path d="M0,0 L1,0 L1,1 L0,1 Z " fill="#A23923" opacity="0.78431374" transform="translate(15,8)"/>
<path d="M0,0 L1,0 L1,1 L0,1 Z " fill="#A23923" opacity="0.13333334" transform="translate(29,7)"/>
<path d="M0,0 L1,0 L1,1 L0,1 Z " fill="#A33A23" opacity="0.7372549" transform="translate(28,3)"/>
<path d="M0,0 L1,0 L1,1 L0,1 Z " fill="#A13923" opacity="0.42352942" transform="translate(36,56)"/>
<path d="M0,0 L1,0 L1,1 L0,1 Z " fill="#A43B23" opacity="0.9607843" transform="translate(20,55)"/>
<path d="M0,0 L1,0 L1,1 L0,1 Z " fill="#9F3723" opacity="0.003921569" transform="translate(12,54)"/>
<path d="M0,0 L1,0 L1,1 L0,1 Z " fill="#A33A24" opacity="0.9607843" transform="translate(16,52)"/>
<path d="M0,0 L1,0 L1,2 L-1,2 L-1,1 L0,1 Z " fill="#A23C24" opacity="0.96862745" transform="translate(51,50)"/>
<path d="M0,0 L1,0 L1,1 L0,1 Z " fill="#C99946" opacity="0.26666668" transform="translate(27,45)"/>
<path d="M0,0 L1,0 L1,1 L0,1 Z " fill="#CA9C46" opacity="0.77254903" transform="translate(21,45)"/>
<path d="M0,0 L1,0 L1,1 L0,1 Z " fill="#A23821" opacity="0.23137255" transform="translate(3,38)"/>
<path d="M0,0 L1,0 L1,1 L0,1 Z " fill="#A13923" opacity="0.42352942" transform="translate(56,36)"/>
<path d="M0,0 L1,0 L1,2 L0,2 Z " fill="#CA9C48" opacity="0.90588236" transform="translate(16,28)"/>
<path d="M0,0 L1,0 L1,1 L0,1 Z M-1,1 L0,1 L0,2 L-1,2 Z " fill="#4C241A" transform="translate(29,28)"/>
<path d="M0,0 L1,0 L1,2 L-1,2 L-1,1 L0,1 Z " fill="#C99B48" opacity="0.8980392" transform="translate(19,22)"/>
<path d="M0,0 L1,0 L1,1 L0,1 Z " fill="#A43B23" opacity="0.9607843" transform="translate(55,20)"/>
<path d="M0,0 L1,0 L1,1 L0,1 Z " fill="#C99B46" opacity="0.90588236" transform="translate(42,20)"/>
<path d="M0,0 L1,0 L1,1 L0,1 Z " fill="#C99B48" opacity="0.84313726" transform="translate(19,20)"/>
<path d="M0,0 L1,0 L1,1 L0,1 Z " fill="#A33A24" opacity="0.9607843" transform="translate(52,16)"/>
<path d="M0,0 L1,0 L1,1 L0,1 Z " fill="#A33A24" opacity="0.9019608" transform="translate(49,9)"/>
<path d="M0,0 L1,0 L1,1 L0,1 Z " fill="#A23821" opacity="0.23137255" transform="translate(38,3)"/>
<path d="M0,0 L1,0 L1,1 L0,1 Z " fill="#A13823" opacity="0.20784314" transform="translate(38,60)"/>
<path d="M0,0 L1,0 L1,1 L0,1 Z " fill="#A13823" opacity="0.5803922" transform="translate(36,60)"/>
<path d="M0,0 L1,0 L1,1 L0,1 Z " fill="#A23A24" opacity="0.8862745" transform="translate(30,60)"/>
<path d="M0,0 L1,0 L1,1 L0,1 Z " fill="#A13723" opacity="0.4117647" transform="translate(26,60)"/>
<path d="M0,0 L1,0 L1,1 L0,1 Z " fill="#A23A22" opacity="0.043137256" transform="translate(42,59)"/>
<path d="M0,0 L1,0 L1,1 L0,1 Z " fill="#A33A22" opacity="0.34509805" transform="translate(22,59)"/>
<path d="M0,0 L1,0 L1,1 L0,1 Z " fill="#A33A22" opacity="0.57254905" transform="translate(20,58)"/>
<path d="M0,0 L1,0 L1,1 L0,1 Z " fill="#A23B23" opacity="0.627451" transform="translate(18,57)"/>
<path d="M0,0 L1,0 L1,1 L0,1 Z " fill="#A23923" opacity="0.4117647" transform="translate(27,56)"/>
<path d="M0,0 L1,0 L1,1 L0,1 Z " fill="#A23C24" opacity="0.9529412" transform="translate(18,56)"/>
<path d="M0,0 L1,0 L1,1 L0,1 Z " fill="#A23B23" opacity="0.44705883" transform="translate(16,56)"/>
<path d="M0,0 L1,0 L1,1 L0,1 Z " fill="#A23824" opacity="0.9529412" transform="translate(43,55)"/>
<path d="M0,0 L1,0 L1,1 L0,1 Z " fill="#A23723" opacity="0.59607846" transform="translate(40,55)"/>
<path d="M0,0 L1,0 L1,1 L0,1 Z " fill="#A33B20" opacity="0.27450982" transform="translate(24,55)"/>
<path d="M0,0 L1,0 L1,1 L0,1 Z " fill="#A23723" opacity="0.4" transform="translate(42,54)"/>
<path d="M0,0 L1,0 L1,1 L0,1 Z " fill="#99361B" opacity="0.078431375" transform="translate(45,52)"/>
<path d="M0,0 L1,0 L1,1 L0,1 Z " fill="#A13923" opacity="0.007843138" transform="translate(19,52)"/>
<path d="M0,0 L1,0 L1,1 L0,1 Z " fill="#C99946" opacity="0.09803922" transform="translate(35,49)"/>
<path d="M0,0 L1,0 L1,1 L0,1 Z " fill="#C99B46" opacity="0.19607843" transform="translate(29,49)"/>
<path d="M0,0 L1,0 L1,1 L0,1 Z " fill="#CD9B49" opacity="0.19215687" transform="translate(38,48)"/>
<path d="M0,0 L1,0 L1,1 L0,1 Z " fill="#C69C49" opacity="0.46666667" transform="translate(26,48)"/>
<path d="M0,0 L1,0 L1,1 L0,1 Z " fill="#CB9B47" opacity="0.6784314" transform="translate(24,47)"/>
<path d="M0,0 L1,0 L1,1 L0,1 Z " fill="#A03723" opacity="0.68235296" transform="translate(52,46)"/>
<path d="M0,0 L1,0 L1,1 L0,1 Z " fill="#C99B47" opacity="0.8980392" transform="translate(36,46)"/>
<path d="M0,0 L1,0 L1,1 L0,1 Z " fill="#CA9C47" opacity="0.5803922" transform="translate(30,46)"/>
<path d="M0,0 L1,0 L1,1 L0,1 Z " fill="#A23923" opacity="0.64705884" transform="translate(11,46)"/>
<path d="M0,0 L1,0 L1,1 L0,1 Z " fill="#CA9C47" opacity="0.26666668" transform="translate(36,45)"/>
<path d="M0,0 L1,0 L1,1 L0,1 Z " fill="#9F3723" opacity="0.45490196" transform="translate(53,44)"/>
<path d="M0,0 L1,0 L1,1 L0,1 Z " fill="#CA9B47" opacity="0.5764706" transform="translate(39,44)"/>
<path d="M0,0 L1,0 L1,1 L0,1 Z " fill="#CA9C46" opacity="0.8980392" transform="translate(21,44)"/>
<path d="M0,0 L1,0 L1,1 L0,1 Z " fill="#A23923" opacity="0.43529412" transform="translate(10,44)"/>
<path d="M0,0 L1,0 L1,1 L0,1 Z " fill="#A23824" opacity="0.9529412" transform="translate(55,43)"/>
<path d="M0,0 L1,0 L1,1 L0,1 Z " fill="#C99B45" opacity="0.8666667" transform="translate(41,43)"/>
<path d="M0,0 L1,0 L1,1 L0,1 Z " fill="#A13B23" opacity="0.84705883" transform="translate(9,43)"/>
<path d="M0,0 L1,0 L1,1 L0,1 Z " fill="#A03922" opacity="0.043137256" transform="translate(59,42)"/>
<path d="M0,0 L1,0 L1,1 L0,1 Z " fill="#A23723" opacity="0.4" transform="translate(54,42)"/>
<path d="M0,0 L1,0 L1,1 L0,1 Z " fill="#A13B23" opacity="0.96862745" transform="translate(8,42)"/>
<path d="M0,0 L1,0 L1,1 L0,1 Z " fill="#A13923" opacity="0.05882353" transform="translate(4,42)"/>
<path d="M0,0 L1,0 L1,1 L0,1 Z M-1,1 L0,1 L0,2 L-1,2 Z " fill="#CA9C46" opacity="0.18431373" transform="translate(42,41)"/>
<path d="M0,0 L1,0 L1,1 L0,1 Z M1,1 L2,1 L2,2 L1,2 Z " fill="#C89945" opacity="0.16862746" transform="translate(21,41)"/>
<path d="M0,0 L1,0 L1,1 L0,1 Z " fill="#C99B46" opacity="0.8509804" transform="translate(20,41)"/>
<path d="M0,0 L1,0 L1,1 L0,1 Z " fill="#C99847" opacity="0.007843138" transform="translate(16,41)"/>
<path d="M0,0 L1,0 L1,1 L0,1 Z " fill="#A23723" opacity="0.59607846" transform="translate(55,40)"/>
<path d="M0,0 L1,0 L1,1 L0,1 Z " fill="#A23B23" opacity="0.56078434" transform="translate(8,40)"/>
<path d="M0,0 L1,0 L1,1 L0,1 Z " fill="#CA9B47" opacity="0.5803922" transform="translate(19,39)"/>
<path d="M0,0 L1,0 L1,1 L0,1 Z " fill="#A13823" opacity="0.20784314" transform="translate(60,38)"/>
<path d="M0,0 L1,0 L1,1 L0,1 Z " fill="#C79844" opacity="0.19215687" transform="translate(48,38)"/>
<path d="M0,0 L1,0 L1,1 L0,1 Z " fill="#CA9C48" opacity="0.2" transform="translate(15,38)"/>
<path d="M0,0 L1,0 L1,1 L0,1 Z " fill="#A33A24" opacity="0.8901961" transform="translate(7,38)"/>
<path d="M0,0 L1,0 L1,1 L0,1 Z " fill="#CA9C47" opacity="0.5372549" transform="translate(18,37)"/>
<path d="M0,0 L1,0 L1,1 L0,1 Z " fill="#A13823" opacity="0.5803922" transform="translate(60,36)"/>
<path d="M0,0 L1,0 L1,1 L0,1 Z " fill="#C99A47" opacity="0.24313726" transform="translate(45,36)"/>
<path d="M0,0 L1,0 L1,1 L0,1 Z " fill="#4C2219" opacity="0.68235296" transform="translate(30,36)"/>
<path d="M0,0 L1,0 L1,1 L0,1 Z " fill="#A13923" opacity="0.39607844" transform="translate(7,36)"/>
<path d="M0,0 L1,0 L1,1 L0,1 Z " fill="#A23922" opacity="0.5921569" transform="translate(3,36)"/>
<path d="M0,0 L1,0 L1,1 L0,1 Z " fill="#C99946" opacity="0.09803922" transform="translate(49,35)"/>
<path d="M0,0 L1,0 L1,1 L0,1 Z " fill="#CA9C48" opacity="0.90588236" transform="translate(47,35)"/>
<path d="M0,0 L1,0 L1,1 L0,1 Z " fill="#C89A47" opacity="0.10980392" transform="translate(14,35)"/>
<path d="M0,0 L1,0 L1,2 L0,2 Z " fill="#A33A24" opacity="0.9411765" transform="translate(3,31)"/>
<path d="M0,0 L1,0 L1,2 L0,2 Z " fill="#CA9C48" opacity="0.90588236" transform="translate(16,30)"/>
<path d="M0,0 L1,0 L1,1 L0,1 Z " fill="#A23A24" opacity="0.8862745" transform="translate(60,30)"/>
<path d="M0,0 L1,0 L1,1 L0,1 Z " fill="#C99B47" opacity="0.5882353" transform="translate(46,30)"/>
<path d="M0,0 L1,0 L1,1 L0,1 Z " fill="#4C2219" opacity="0.68235296" transform="translate(36,30)"/>
<path d="M0,0 L1,0 L1,1 L0,1 Z " fill="#4B2318" opacity="0.6901961" transform="translate(27,30)"/>
<path d="M0,0 L1,0 L1,1 L0,1 Z " fill="#C99C47" opacity="0.5803922" transform="translate(17,30)"/>
<path d="M0,0 L1,0 L1,1 L0,1 Z " fill="#A33A24" opacity="0.8980392" transform="translate(3,30)"/>
<path d="M0,0 L1,0 L1,1 L0,1 Z " fill="#C99B46" opacity="0.19607843" transform="translate(49,29)"/>
<path d="M0,0 L1,0 L1,1 L0,1 Z " fill="#C99A46" opacity="0.22352941" transform="translate(14,29)"/>
<path d="M0,0 L1,0 L1,1 L0,1 Z " fill="#A23923" opacity="0.4117647" transform="translate(56,27)"/>
<path d="M0,0 L1,0 L1,1 L0,1 Z " fill="#C79946" opacity="0.26666668" transform="translate(45,27)"/>
<path d="M0,0 L1,0 L1,1 L0,1 Z " fill="#4A2217" opacity="0.7176471" transform="translate(30,27)"/>
<path d="M0,0 L1,0 L1,1 L0,1 Z " fill="#A13923" opacity="0.39215687" transform="translate(7,27)"/>
<path d="M0,0 L1,0 L1,1 L0,1 Z " fill="#A13723" opacity="0.4117647" transform="translate(60,26)"/>
<path d="M0,0 L1,0 L1,1 L0,1 Z " fill="#C89B47" opacity="0.47843137" transform="translate(48,26)"/>
<path d="M0,0 L1,0 L1,1 L0,1 Z " fill="#CA9B45" opacity="0.49411765" transform="translate(15,26)"/>
<path d="M0,0 L1,0 L1,1 L0,1 Z " fill="#A23723" opacity="0.42352942" transform="translate(3,26)"/>
<path d="M0,0 L1,0 L1,1 L0,1 Z " fill="#A43820" opacity="0.25882354" transform="translate(55,24)"/>
<path d="M0,0 L1,0 L1,1 L0,1 Z " fill="#C99B47" opacity="0.6784314" transform="translate(47,24)"/>
<path d="M0,0 L1,0 L1,1 L0,1 Z M-1,1 L0,1 L0,2 L-1,2 Z " fill="#CB9A49" opacity="0.8901961" transform="translate(17,24)"/>
<path d="M0,0 L1,0 L1,1 L0,1 Z " fill="#CB9A48" opacity="0.70980394" transform="translate(16,24)"/>
<path d="M0,0 L1,0 L1,1 L0,1 Z " fill="#A33B20" opacity="0.25490198" transform="translate(8,24)"/>
<path d="M0,0 L1,0 L1,1 L0,1 Z " fill="#A33923" opacity="0.70980394" transform="translate(4,23)"/>
<path d="M0,0 L1,0 L1,1 L0,1 Z " fill="#A33A22" opacity="0.34509805" transform="translate(59,22)"/>
<path d="M0,0 L1,0 L1,1 L0,1 Z " fill="#C99A47" opacity="0.6039216" transform="translate(17,22)"/>
<path d="M0,0 L1,0 L1,1 L0,1 Z " fill="#CA9C46" opacity="0.8980392" transform="translate(44,21)"/>
<path d="M0,0 L1,0 L1,1 L0,1 Z M1,1 L2,1 L2,2 L1,2 Z " fill="#C89945" opacity="0.16862746" transform="translate(41,21)"/>
<path d="M0,0 L1,0 L1,1 L0,1 Z M-1,1 L0,1 L0,2 L-1,2 Z " fill="#CB9A48" opacity="0.1254902" transform="translate(22,21)"/>
<path d="M0,0 L1,0 L1,2 L0,2 Z " fill="#A43B23" opacity="0.96862745" transform="translate(8,20)"/>
<path d="M0,0 L1,0 L1,1 L0,1 Z " fill="#A33A22" opacity="0.57254905" transform="translate(58,20)"/>
<path d="M0,0 L1,0 L1,1 L0,1 Z " fill="#A23A22" opacity="0.043137256" transform="translate(10,20)"/>
<path d="M0,0 L1,0 L1,1 L0,1 Z M-1,1 L0,1 L0,2 L-1,2 Z " fill="#A33A24" opacity="0.9607843" transform="translate(6,20)"/>
<path d="M0,0 L1,0 L1,1 L0,1 Z " fill="#A23923" opacity="0.5882353" transform="translate(5,20)"/>
<path d="M0,0 L1,0 L1,1 L0,1 Z " fill="#A13923" opacity="0.007843138" transform="translate(52,19)"/>
<path d="M0,0 L1,0 L1,1 L0,1 Z " fill="#CA9C48" opacity="0.007843138" transform="translate(36,19)"/>
<path d="M0,0 L1,0 L1,1 L0,1 Z " fill="#A23B23" opacity="0.627451" transform="translate(57,18)"/>
<path d="M0,0 L1,0 L1,1 L0,1 Z " fill="#A23C24" opacity="0.9529412" transform="translate(56,18)"/>
<path d="M0,0 L1,0 L1,1 L0,1 Z " fill="#C99B47" opacity="0.8666667" transform="translate(38,18)"/>
<path d="M0,0 L1,0 L1,1 L0,1 Z " fill="#C89B47" opacity="0.23137255" transform="translate(27,18)"/>
<path d="M0,0 L1,0 L1,1 L0,1 Z " fill="#A23723" opacity="0.67058825" transform="translate(6,18)"/>
<path d="M0,0 L1,0 L1,1 L0,1 Z " fill="#C99B46" opacity="0.5764706" transform="translate(30,17)"/>
<path d="M0,0 L1,0 L1,1 L0,1 Z " fill="#C99B47" opacity="0.60784316" transform="translate(22,17)"/>
<path d="M0,0 L1,0 L1,1 L0,1 Z " fill="#CA9C48" opacity="0.007843138" transform="translate(41,16)"/>
<path d="M0,0 L1,0 L1,1 L0,1 Z M-1,1 L0,1 L0,2 L-1,2 Z " fill="#CA9C48" opacity="0.90588236" transform="translate(25,16)"/>
<path d="M0,0 L1,0 L1,1 L0,1 Z " fill="#CA9C48" opacity="0.7254902" transform="translate(24,16)"/>
<path d="M0,0 L1,0 L1,1 L0,1 Z " fill="#A23823" opacity="0.78039217" transform="translate(55,15)"/>
<path d="M0,0 L1,0 L1,1 L0,1 Z " fill="#C99B48" opacity="0.20392157" transform="translate(38,15)"/>
<path d="M0,0 L1,0 L1,1 L0,1 Z " fill="#CA9D47" opacity="0.50980395" transform="translate(26,15)"/>
<path d="M0,0 L1,0 L1,1 L0,1 Z " fill="#C89A47" opacity="0.10980392" transform="translate(35,14)"/>
<path d="M0,0 L1,0 L1,1 L0,1 Z " fill="#C99A46" opacity="0.22352941" transform="translate(29,14)"/>
<path d="M0,0 L1,0 L1,1 L0,1 Z " fill="#A33923" opacity="0.64705884" transform="translate(46,11)"/>
<path d="M0,0 L1,0 L1,1 L0,1 Z " fill="#A33923" opacity="0.43529412" transform="translate(44,10)"/>
<path d="M0,0 L1,0 L1,1 L0,1 Z " fill="#A23A22" opacity="0.043137256" transform="translate(20,10)"/>
<path d="M0,0 L1,0 L1,1 L0,1 Z " fill="#A13B23" opacity="0.84705883" transform="translate(43,9)"/>
<path d="M0,0 L1,0 L1,1 L0,1 Z " fill="#A33A24" opacity="0.90588236" transform="translate(14,9)"/>
<path d="M0,0 L2,0 L2,1 L0,1 Z " fill="#A13B23" opacity="0.96862745" transform="translate(42,8)"/>
<path d="M0,0 L1,0 L1,1 L0,1 Z " fill="#A23B23" opacity="0.56078434" transform="translate(40,8)"/>
<path d="M0,0 L1,0 L1,1 L0,1 Z " fill="#A33B20" opacity="0.25490198" transform="translate(24,8)"/>
<path d="M0,0 L2,0 L2,1 L0,1 Z " fill="#A43B23" opacity="0.96862745" transform="translate(20,8)"/>
<path d="M0,0 L1,0 L1,1 L0,1 Z " fill="#A13B25" opacity="0.003921569" transform="translate(48,7)"/>
<path d="M0,0 L1,0 L1,1 L0,1 Z " fill="#A33A24" opacity="0.8901961" transform="translate(38,7)"/>
<path d="M0,0 L1,0 L1,1 L0,1 Z " fill="#A13923" opacity="0.39607844" transform="translate(36,7)"/>
<path d="M0,0 L1,0 L1,1 L0,1 Z " fill="#A13923" opacity="0.39215687" transform="translate(27,7)"/>
<path d="M0,0 L1,0 L1,1 L0,1 Z " fill="#A23723" opacity="0.5058824" transform="translate(16,7)"/>
<path d="M0,0 L1,0 L1,1 L0,1 Z " fill="#A23723" opacity="0.67058825" transform="translate(18,6)"/>
<path d="M0,0 L1,0 L1,1 L0,1 Z M-1,1 L0,1 L0,2 L-1,2 Z " fill="#A33A24" opacity="0.9607843" transform="translate(21,5)"/>
<path d="M0,0 L1,0 L1,1 L0,1 Z " fill="#A13923" opacity="0.05882353" transform="translate(42,4)"/>
<path d="M0,0 L1,0 L1,1 L0,1 Z " fill="#A33923" opacity="0.70980394" transform="translate(23,4)"/>
<path d="M0,0 L1,0 L1,1 L0,1 Z " fill="#A13923" opacity="0.06666667" transform="translate(21,4)"/>
<path d="M0,0 L1,0 L1,1 L0,1 Z " fill="#A23922" opacity="0.5921569" transform="translate(36,3)"/>
<path d="M0,0 L1,0 L1,1 L0,1 Z " fill="#A33A24" opacity="0.8980392" transform="translate(30,3)"/>
<path d="M0,0 L1,0 L1,1 L0,1 Z " fill="#A23823" opacity="0.42352942" transform="translate(26,3)"/>
<path d="M0,0 L1,0 L1,1 L0,1 Z " fill="#A13823" opacity="0.42745098" transform="translate(37,60)"/>
<path d="M0,0 L1,0 L1,1 L0,1 Z " fill="#A33A23" opacity="0.7254902" transform="translate(35,60)"/>
<path d="M0,0 L1,0 L1,1 L0,1 Z " fill="#A33A24" opacity="0.827451" transform="translate(34,60)"/>
<path d="M0,0 L1,0 L1,1 L0,1 Z " fill="#A33A24" opacity="0.8862745" transform="translate(33,60)"/>
<path d="M0,0 L1,0 L1,1 L0,1 Z " fill="#A23A24" opacity="0.92941177" transform="translate(31,60)"/>
<path d="M0,0 L1,0 L1,1 L0,1 Z " fill="#A23A24" opacity="0.827451" transform="translate(29,60)"/>
<path d="M0,0 L1,0 L1,1 L0,1 Z " fill="#A23824" opacity="0.5882353" transform="translate(27,60)"/>
<path d="M0,0 L1,0 L1,1 L0,1 Z " fill="#A13723" opacity="0.22745098" transform="translate(25,60)"/>
<path d="M0,0 L1,0 L1,1 L0,1 Z " fill="#A53C21" opacity="0.003921569" transform="translate(48,59)"/>
<path d="M0,0 L1,0 L1,1 L0,1 Z " fill="#A33A22" opacity="0.34509805" transform="translate(41,59)"/>
<path d="M0,0 L1,0 L1,1 L0,1 Z " fill="#A43A22" opacity="0.6745098" transform="translate(40,59)"/>
<path d="M0,0 L1,0 L1,1 L0,1 Z " fill="#A33A24" opacity="0.92156863" transform="translate(39,59)"/>
<path d="M0,0 L1,0 L1,1 L0,1 Z " fill="#A43A22" opacity="0.6745098" transform="translate(23,59)"/>
<path d="M0,0 L1,0 L1,1 L0,1 Z " fill="#A23A22" opacity="0.043137256" transform="translate(21,59)"/>
<path d="M0,0 L1,0 L1,1 L0,1 Z " fill="#A33B20" opacity="0.11764706" transform="translate(44,58)"/>
<path d="M0,0 L1,0 L1,1 L0,1 Z " fill="#A33A22" opacity="0.57254905" transform="translate(43,58)"/>
<path d="M0,0 L1,0 L1,1 L0,1 Z " fill="#A43B23" opacity="0.91764706" transform="translate(42,58)"/>
<path d="M0,0 L1,0 L1,1 L0,1 Z " fill="#A43B23" opacity="0.91764706" transform="translate(21,58)"/>
<path d="M0,0 L1,0 L1,1 L0,1 Z " fill="#A13B23" opacity="0.11764706" transform="translate(19,58)"/>
<path d="M0,0 L1,0 L1,1 L0,1 Z " fill="#A33B20" opacity="0.11764706" transform="translate(46,57)"/>
<path d="M0,0 L1,0 L1,1 L0,1 Z " fill="#A33B23" opacity="0.58431375" transform="translate(45,57)"/>
<path d="M0,0 L1,0 L1,1 L0,1 Z " fill="#A33A24" opacity="0.9607843" transform="translate(36,57)"/>
<path d="M0,0 L1,0 L1,1 L0,1 Z " fill="#A13B23" opacity="0.11764706" transform="translate(17,57)"/>
<path d="M0,0 L1,0 L1,1 L0,1 Z " fill="#A33B22" opacity="0.43137255" transform="translate(47,56)"/>
<path d="M0,0 L1,0 L1,1 L0,1 Z " fill="#A33B25" opacity="0.8980392" transform="translate(46,56)"/>
<path d="M0,0 L1,0 L1,1 L0,1 Z " fill="#A33A24" opacity="0.92156863" transform="translate(38,56)"/>
<path d="M0,0 L1,0 L1,1 L0,1 Z " fill="#A23923" opacity="0.6156863" transform="translate(37,56)"/>
<path d="M0,0 L1,0 L1,1 L0,1 Z " fill="#A23720" opacity="0.25882354" transform="translate(35,56)"/>
<path d="M0,0 L1,0 L1,1 L0,1 Z " fill="#A23620" opacity="0.14117648" transform="translate(34,56)"/>
<path d="M0,0 L1,0 L1,1 L0,1 Z " fill="#A23620" opacity="0.06666667" transform="translate(33,56)"/>
<path d="M0,0 L1,0 L1,1 L0,1 Z " fill="#A23620" opacity="0.023529412" transform="translate(32,56)"/>
<path d="M0,0 L1,0 L1,1 L0,1 Z " fill="#A23620" opacity="0.06666667" transform="translate(30,56)"/>
<path d="M0,0 L1,0 L1,1 L0,1 Z " fill="#A23720" opacity="0.25882354" transform="translate(28,56)"/>
<path d="M0,0 L1,0 L1,1 L0,1 Z " fill="#A33923" opacity="0.627451" transform="translate(26,56)"/>
<path d="M0,0 L1,0 L1,1 L0,1 Z " fill="#A33A24" opacity="0.89411765" transform="translate(25,56)"/>
<path d="M0,0 L1,0 L1,1 L0,1 Z " fill="#A23C24" opacity="0.9254902" transform="translate(17,56)"/>
<path d="M0,0 L1,0 L1,1 L0,1 Z " fill="#A13A24" opacity="0.003921569" transform="translate(15,56)"/>
<path d="M0,0 L1,0 L1,1 L0,1 Z " fill="#A13723" opacity="0.11764706" transform="translate(49,55)"/>
<path d="M0,0 L1,0 L1,1 L0,1 Z " fill="#A23823" opacity="0.7607843" transform="translate(48,55)"/>
<path d="M0,0 L1,0 L1,1 L0,1 Z " fill="#A23824" opacity="0.8784314" transform="translate(41,55)"/>
<path d="M0,0 L1,0 L1,1 L0,1 Z " fill="#A43A27" opacity="0.2784314" transform="translate(39,55)"/>
<path d="M0,0 L1,0 L1,1 L0,1 Z " fill="#A33A22" opacity="0.57254905" transform="translate(23,55)"/>
<path d="M0,0 L1,0 L1,1 L0,1 Z " fill="#A43B23" opacity="0.87058824" transform="translate(22,55)"/>
<path d="M0,0 L1,0 L1,1 L0,1 Z " fill="#A23823" opacity="0.78431374" transform="translate(15,55)"/>
<path d="M0,0 L1,0 L1,1 L0,1 Z " fill="#A03723" opacity="0.12156863" transform="translate(14,55)"/>
<path d="M0,0 L1,0 L1,1 L0,1 Z " fill="#A13723" opacity="0.28235295" transform="translate(50,54)"/>
<path d="M0,0 L1,0 L1,1 L0,1 Z " fill="#A23824" opacity="0.8784314" transform="translate(49,54)"/>
<path d="M0,0 L1,0 L1,1 L0,1 Z " fill="#A33B26" opacity="0.95686275" transform="translate(44,54)"/>
<path d="M0,0 L1,0 L1,1 L0,1 Z " fill="#A23824" opacity="0.8784314" transform="translate(43,54)"/>
<path d="M0,0 L1,0 L1,1 L0,1 Z " fill="#A13723" opacity="0.02745098" transform="translate(41,54)"/>
<path d="M0,0 L1,0 L1,1 L0,1 Z " fill="#A33A22" opacity="0.3882353" transform="translate(21,54)"/>
<path d="M0,0 L1,0 L1,1 L0,1 Z " fill="#A43B23" opacity="0.87058824" transform="translate(20,54)"/>
<path d="M0,0 L1,0 L1,1 L0,1 Z " fill="#A33924" opacity="0.9019608" transform="translate(14,54)"/>
<path d="M0,0 L1,0 L1,1 L0,1 Z " fill="#A03723" opacity="0.31764707" transform="translate(13,54)"/>
<path d="M0,0 L1,0 L1,1 L0,1 Z " fill="#A23723" opacity="0.35686275" transform="translate(51,53)"/>
<path d="M0,0 L1,0 L1,1 L0,1 Z " fill="#A23A25" opacity="0.8980392" transform="translate(45,53)"/>
<path d="M0,0 L1,0 L1,1 L0,1 Z " fill="#A13723" opacity="0.02745098" transform="translate(43,53)"/>
<path d="M0,0 L1,0 L1,1 L0,1 Z " fill="#A23923" opacity="0.4392157" transform="translate(19,53)"/>
<path d="M0,0 L1,0 L1,1 L0,1 Z " fill="#A33A24" opacity="0.9019608" transform="translate(18,53)"/>
<path d="M0,0 L1,0 L1,1 L0,1 Z " fill="#A13823" opacity="0.3764706" transform="translate(12,53)"/>
<path d="M0,0 L1,0 L1,1 L0,1 Z " fill="#A23924" opacity="0.4392157" transform="translate(52,52)"/>
<path d="M0,0 L1,0 L1,1 L0,1 Z " fill="#A23824" opacity="0.9529412" transform="translate(48,52)"/>
<path d="M0,0 L1,0 L1,1 L0,1 Z " fill="#A03923" opacity="0.70980394" transform="translate(46,52)"/>
<path d="M0,0 L1,0 L1,1 L0,1 Z " fill="#98361B" opacity="0.019607844" transform="translate(44,52)"/>
<path d="M0,0 L1,0 L1,1 L0,1 Z " fill="#A13923" opacity="0.06666667" transform="translate(18,52)"/>
<path d="M0,0 L1,0 L1,1 L0,1 Z " fill="#A23923" opacity="0.64705884" transform="translate(17,52)"/>
<path d="M0,0 L1,0 L1,1 L0,1 Z " fill="#A23822" opacity="0.47058824" transform="translate(11,52)"/>
<path d="M0,0 L1,0 L1,1 L0,1 Z " fill="#A23723" opacity="0.35686275" transform="translate(53,51)"/>
<path d="M0,0 L1,0 L1,1 L0,1 Z " fill="#A13628" opacity="0.5254902" transform="translate(47,51)"/>
<path d="M0,0 L1,0 L1,1 L0,1 Z " fill="#A33B26" opacity="0.5137255" transform="translate(16,51)"/>
<path d="M0,0 L1,0 L1,1 L0,1 Z " fill="#A23923" opacity="0.43529412" transform="translate(10,51)"/>
<path d="M0,0 L1,0 L1,1 L0,1 Z " fill="#A13723" opacity="0.28235295" transform="translate(54,50)"/>
<path d="M0,0 L1,0 L1,1 L0,1 Z " fill="#A23B23" opacity="0.36078432" transform="translate(48,50)"/>
<path d="M0,0 L1,0 L1,1 L0,1 Z " fill="#A13723" opacity="0.3254902" transform="translate(15,50)"/>
<path d="M0,0 L1,0 L1,1 L0,1 Z " fill="#A23923" opacity="0.3137255" transform="translate(9,50)"/>
<path d="M0,0 L1,0 L1,1 L0,1 Z " fill="#A13723" opacity="0.11764706" transform="translate(55,49)"/>
<path d="M0,0 L1,0 L1,1 L0,1 Z " fill="#A23824" opacity="0.8784314" transform="translate(54,49)"/>
<path d="M0,0 L1,0 L1,1 L0,1 Z " fill="#A13B23" opacity="0.23921569" transform="translate(49,49)"/>
<path d="M0,0 L1,0 L1,1 L0,1 Z " fill="#C99A46" opacity="0.19607843" transform="translate(34,49)"/>
<path d="M0,0 L1,0 L1,1 L0,1 Z " fill="#C99A46" opacity="0.29803923" transform="translate(33,49)"/>
<path d="M0,0 L1,0 L1,1 L0,1 Z " fill="#C99A47" opacity="0.39607844" transform="translate(32,49)"/>
<path d="M0,0 L1,0 L1,1 L0,1 Z " fill="#C99B46" opacity="0.29803923" transform="translate(30,49)"/>
<path d="M0,0 L1,0 L1,1 L0,1 Z " fill="#C99B46" opacity="0.09803922" transform="translate(28,49)"/>
<path d="M0,0 L1,0 L1,1 L0,1 Z " fill="#A13723" opacity="0.23529412" transform="translate(14,49)"/>
<path d="M0,0 L1,0 L1,1 L0,1 Z " fill="#A33A24" opacity="0.9019608" transform="translate(9,49)"/>
<path d="M0,0 L1,0 L1,1 L0,1 Z " fill="#A13923" opacity="0.11764706" transform="translate(8,49)"/>
<path d="M0,0 L1,0 L1,1 L0,1 Z " fill="#A23823" opacity="0.7607843" transform="translate(55,48)"/>
<path d="M0,0 L1,0 L1,1 L0,1 Z " fill="#A23B23" opacity="0.36078432" transform="translate(50,48)"/>
<path d="M0,0 L1,0 L1,1 L0,1 Z " fill="#CE9C49" opacity="0.46666667" transform="translate(37,48)"/>
<path d="M0,0 L1,0 L1,1 L0,1 Z " fill="#CE9C4A" opacity="0.7411765" transform="translate(36,48)"/>
<path d="M0,0 L1,0 L1,1 L0,1 Z " fill="#C69C4A" opacity="0.7411765" transform="translate(27,48)"/>
<path d="M0,0 L1,0 L1,1 L0,1 Z " fill="#C59B49" opacity="0.19215687" transform="translate(25,48)"/>
<path d="M0,0 L1,0 L1,1 L0,1 Z " fill="#A13723" opacity="0.3254902" transform="translate(13,48)"/>
<path d="M0,0 L1,0 L1,1 L0,1 Z " fill="#A33A23" opacity="0.78039217" transform="translate(8,48)"/>
<path d="M0,0 L1,0 L1,1 L0,1 Z " fill="#A33B22" opacity="0.43137255" transform="translate(56,47)"/>
<path d="M0,0 L1,0 L1,1 L0,1 Z " fill="#A13628" opacity="0.5254902" transform="translate(51,47)"/>
<path d="M0,0 L1,0 L1,1 L0,1 Z " fill="#C89C46" opacity="0.15294118" transform="translate(40,47)"/>
<path d="M0,0 L1,0 L1,1 L0,1 Z " fill="#CA9B47" opacity="0.6313726" transform="translate(39,47)"/>
<path d="M0,0 L1,0 L1,1 L0,1 Z " fill="#C89B45" opacity="0.18039216" transform="translate(23,47)"/>
<path d="M0,0 L1,0 L1,1 L0,1 Z " fill="#A33B20" opacity="0.4862745" transform="translate(12,47)"/>
<path d="M0,0 L1,0 L1,1 L0,1 Z " fill="#A13722" opacity="0.4392157" transform="translate(7,47)"/>
<path d="M0,0 L1,0 L1,1 L0,1 Z " fill="#A33B20" opacity="0.11764706" transform="translate(57,46)"/>
<path d="M0,0 L1,0 L1,1 L0,1 Z " fill="#A33B25" opacity="0.8980392" transform="translate(56,46)"/>
<path d="M0,0 L1,0 L1,1 L0,1 Z " fill="#C89C46" opacity="0.06666667" transform="translate(42,46)"/>
<path d="M0,0 L1,0 L1,1 L0,1 Z " fill="#C99C47" opacity="0.5764706" transform="translate(41,46)"/>
<path d="M0,0 L1,0 L1,1 L0,1 Z " fill="#C99B47" opacity="0.8666667" transform="translate(35,46)"/>
<path d="M0,0 L1,0 L1,1 L0,1 Z " fill="#CA9B47" opacity="0.6784314" transform="translate(34,46)"/>
<path d="M0,0 L1,0 L1,1 L0,1 Z " fill="#CA9B47" opacity="0.5803922" transform="translate(33,46)"/>
<path d="M0,0 L1,0 L1,1 L0,1 Z " fill="#CA9C48" opacity="0.6784314" transform="translate(29,46)"/>
<path d="M0,0 L1,0 L1,1 L0,1 Z " fill="#CA9C48" opacity="0.8666667" transform="translate(28,46)"/>
<path d="M0,0 L1,0 L1,1 L0,1 Z " fill="#C99B45" opacity="0.5764706" transform="translate(22,46)"/>
<path d="M0,0 L1,0 L1,1 L0,1 Z " fill="#C79A45" opacity="0.039215688" transform="translate(21,46)"/>
<path d="M0,0 L1,0 L1,1 L0,1 Z " fill="#A43823" opacity="0.9254902" transform="translate(7,46)"/>
<path d="M0,0 L1,0 L1,1 L0,1 Z " fill="#9F3621" opacity="0.13333334" transform="translate(6,46)"/>
<path d="M0,0 L1,0 L1,1 L0,1 Z " fill="#A33B23" opacity="0.58431375" transform="translate(57,45)"/>
<path d="M0,0 L1,0 L1,1 L0,1 Z " fill="#A23823" opacity="0.89411765" transform="translate(53,45)"/>
<path d="M0,0 L1,0 L1,1 L0,1 Z " fill="#9D3622" opacity="0.07450981" transform="translate(52,45)"/>
<path d="M0,0 L1,0 L1,1 L0,1 Z " fill="#C89C46" opacity="0.15294118" transform="translate(43,45)"/>
<path d="M0,0 L1,0 L1,1 L0,1 Z " fill="#CA9C47" opacity="0.74509805" transform="translate(42,45)"/>
<path d="M0,0 L1,0 L1,1 L0,1 Z " fill="#CA9B47" opacity="0.5764706" transform="translate(37,45)"/>
<path d="M0,0 L1,0 L1,1 L0,1 Z " fill="#CA9C48" opacity="0.039215688" transform="translate(35,45)"/>
<path d="M0,0 L1,0 L1,1 L0,1 Z " fill="#C99B47" opacity="0.039215688" transform="translate(28,45)"/>
<path d="M0,0 L1,0 L1,1 L0,1 Z " fill="#CA9A47" opacity="0.5372549" transform="translate(26,45)"/>
<path d="M0,0 L1,0 L1,1 L0,1 Z " fill="#CC9C48" opacity="0.8666667" transform="translate(25,45)"/>
<path d="M0,0 L1,0 L1,1 L0,1 Z " fill="#C89A45" opacity="0.1254902" transform="translate(20,45)"/>
<path d="M0,0 L1,0 L1,1 L0,1 Z " fill="#A13923" opacity="0.05882353" transform="translate(11,45)"/>
<path d="M0,0 L1,0 L1,1 L0,1 Z " fill="#A33A24" opacity="0.9019608" transform="translate(10,45)"/>
<path d="M0,0 L1,0 L1,1 L0,1 Z " fill="#A23722" opacity="0.61960787" transform="translate(6,45)"/>
<path d="M0,0 L1,0 L1,1 L0,1 Z " fill="#A33B20" opacity="0.11764706" transform="translate(58,44)"/>
<path d="M0,0 L1,0 L1,1 L0,1 Z " fill="#C9A143" opacity="0.21176471" transform="translate(44,44)"/>
<path d="M0,0 L1,0 L1,1 L0,1 Z " fill="#CA9C48" opacity="0.827451" transform="translate(43,44)"/>
<path d="M0,0 L1,0 L1,1 L0,1 Z " fill="#CA9C48" opacity="0.1254902" transform="translate(38,44)"/>
<path d="M0,0 L1,0 L1,1 L0,1 Z " fill="#C89946" opacity="0.1254902" transform="translate(25,44)"/>
<path d="M0,0 L1,0 L1,1 L0,1 Z " fill="#CA9B47" opacity="0.5803922" transform="translate(24,44)"/>
<path d="M0,0 L1,0 L1,1 L0,1 Z " fill="#CA9C46" opacity="0.85882354" transform="translate(20,44)"/>
<path d="M0,0 L1,0 L1,1 L0,1 Z " fill="#C99846" opacity="0.23137255" transform="translate(19,44)"/>
<path d="M0,0 L1,0 L1,1 L0,1 Z " fill="#9F3621" opacity="0.13333334" transform="translate(5,44)"/>
<path d="M0,0 L1,0 L1,1 L0,1 Z " fill="#A33A22" opacity="0.57254905" transform="translate(58,43)"/>
<path d="M0,0 L1,0 L1,1 L0,1 Z " fill="#A23824" opacity="0.8784314" transform="translate(54,43)"/>
<path d="M0,0 L1,0 L1,1 L0,1 Z " fill="#A13723" opacity="0.02745098" transform="translate(53,43)"/>
<path d="M0,0 L1,0 L1,1 L0,1 Z " fill="#C89C44" opacity="0.15294118" transform="translate(45,43)"/>
<path d="M0,0 L1,0 L1,1 L0,1 Z " fill="#CA9C47" opacity="0.827451" transform="translate(44,43)"/>
<path d="M0,0 L1,0 L1,1 L0,1 Z " fill="#C99B45" opacity="0.90588236" transform="translate(43,43)"/>
<path d="M0,0 L1,0 L1,1 L0,1 Z " fill="#CA9C45" opacity="0.26666668" transform="translate(40,43)"/>
<path d="M0,0 L1,0 L1,1 L0,1 Z " fill="#C89A45" opacity="0.29803923" transform="translate(23,43)"/>
<path d="M0,0 L1,0 L1,1 L0,1 Z " fill="#C99B46" opacity="0.8509804" transform="translate(22,43)"/>
<path d="M0,0 L1,0 L1,1 L0,1 Z " fill="#CA9948" opacity="0.85882354" transform="translate(19,43)"/>
<path d="M0,0 L1,0 L1,1 L0,1 Z " fill="#C99847" opacity="0.13333334" transform="translate(18,43)"/>
<path d="M0,0 L1,0 L1,1 L0,1 Z " fill="#A23C24" opacity="0.02745098" transform="translate(10,43)"/>
<path d="M0,0 L1,0 L1,1 L0,1 Z " fill="#A13B23" opacity="0.96862745" transform="translate(8,43)"/>
<path d="M0,0 L1,0 L1,1 L0,1 Z " fill="#A23923" opacity="0.5882353" transform="translate(5,43)"/>
<path d="M0,0 L1,0 L1,1 L0,1 Z " fill="#A43B23" opacity="0.91764706" transform="translate(58,42)"/>
<path d="M0,0 L1,0 L1,1 L0,1 Z " fill="#C89C43" opacity="0.06666667" transform="translate(46,42)"/>
<path d="M0,0 L1,0 L1,1 L0,1 Z " fill="#CA9C47" opacity="0.74509805" transform="translate(45,42)"/>
<path d="M0,0 L1,0 L1,1 L0,1 Z " fill="#C99B45" opacity="0.8235294" transform="translate(42,42)"/>
<path d="M0,0 L1,0 L1,1 L0,1 Z " fill="#C99B46" opacity="0.7921569" transform="translate(21,42)"/>
<path d="M0,0 L1,0 L1,1 L0,1 Z " fill="#CA9948" opacity="0.77254903" transform="translate(18,42)"/>
<path d="M0,0 L1,0 L1,1 L0,1 Z " fill="#C99847" opacity="0.047058824" transform="translate(17,42)"/>
<path d="M0,0 L1,0 L1,1 L0,1 Z " fill="#A23B23" opacity="0.36078432" transform="translate(9,42)"/>
<path d="M0,0 L1,0 L1,1 L0,1 Z " fill="#A33A24" opacity="0.90588236" transform="translate(5,42)"/>
<path d="M0,0 L1,0 L1,1 L0,1 Z " fill="#A23922" opacity="0.34509805" transform="translate(59,41)"/>
<path d="M0,0 L1,0 L1,1 L0,1 Z " fill="#A23824" opacity="0.8784314" transform="translate(55,41)"/>
<path d="M0,0 L1,0 L1,1 L0,1 Z " fill="#A13723" opacity="0.02745098" transform="translate(54,41)"/>
<path d="M0,0 L1,0 L1,1 L0,1 Z " fill="#C99C46" opacity="0.5764706" transform="translate(46,41)"/>
<path d="M0,0 L1,0 L1,1 L0,1 Z " fill="#CA9947" opacity="0.5764706" transform="translate(17,41)"/>
<path d="M0,0 L1,0 L1,1 L0,1 Z " fill="#A13B23" opacity="0.84705883" transform="translate(8,41)"/>
<path d="M0,0 L1,0 L1,1 L0,1 Z " fill="#A23923" opacity="0.3764706" transform="translate(4,41)"/>
<path d="M0,0 L1,0 L1,1 L0,1 Z " fill="#A33A22" opacity="0.6745098" transform="translate(59,40)"/>
<path d="M0,0 L1,0 L1,1 L0,1 Z " fill="#C89C44" opacity="0.15294118" transform="translate(47,40)"/>
<path d="M0,0 L1,0 L1,1 L0,1 Z " fill="#CA9C45" opacity="0.26666668" transform="translate(43,40)"/>
<path d="M0,0 L1,0 L1,1 L0,1 Z " fill="#C89A45" opacity="0.23921569" transform="translate(20,40)"/>
<path d="M0,0 L1,0 L1,1 L0,1 Z " fill="#C99847" opacity="0.1882353" transform="translate(16,40)"/>
<path d="M0,0 L1,0 L1,1 L0,1 Z " fill="#A33923" opacity="0.70980394" transform="translate(4,40)"/>
<path d="M0,0 L1,0 L1,1 L0,1 Z " fill="#A33A24" opacity="0.92156863" transform="translate(59,39)"/>
<path d="M0,0 L1,0 L1,1 L0,1 Z " fill="#A33B26" opacity="0.27450982" transform="translate(55,39)"/>
<path d="M0,0 L1,0 L1,1 L0,1 Z " fill="#C99B48" opacity="0.6627451" transform="translate(47,39)"/>
<path d="M0,0 L1,0 L1,1 L0,1 Z " fill="#C99B47" opacity="0.60784316" transform="translate(44,39)"/>
<path d="M0,0 L1,0 L1,1 L0,1 Z " fill="#CA9B47" opacity="0.6784314" transform="translate(16,39)"/>
<path d="M0,0 L1,0 L1,1 L0,1 Z " fill="#A43820" opacity="0.25882354" transform="translate(8,39)"/>
<path d="M0,0 L1,0 L1,1 L0,1 Z " fill="#A33A24" opacity="0.9254902" transform="translate(4,39)"/>
<path d="M0,0 L1,0 L1,1 L0,1 Z " fill="#A13821" opacity="0.03529412" transform="translate(3,39)"/>
<path d="M0,0 L1,0 L1,1 L0,1 Z " fill="#A33A24" opacity="0.92156863" transform="translate(56,38)"/>
<path d="M0,0 L1,0 L1,1 L0,1 Z " fill="#C89A47" opacity="0.11764706" transform="translate(44,38)"/>
<path d="M0,0 L1,0 L1,1 L0,1 Z " fill="#CA9C48" opacity="0.1254902" transform="translate(19,38)"/>
<path d="M0,0 L1,0 L1,1 L0,1 Z " fill="#C99B47" opacity="0.8666667" transform="translate(18,38)"/>
<path d="M0,0 L1,0 L1,1 L0,1 Z " fill="#A13823" opacity="0.42745098" transform="translate(60,37)"/>
<path d="M0,0 L1,0 L1,1 L0,1 Z " fill="#A23923" opacity="0.6156863" transform="translate(56,37)"/>
<path d="M0,0 L1,0 L1,1 L0,1 Z " fill="#C79A46" opacity="0.4627451" transform="translate(48,37)"/>
<path d="M0,0 L1,0 L1,1 L0,1 Z " fill="#C99B47" opacity="0.54901963" transform="translate(45,37)"/>
<path d="M0,0 L1,0 L1,1 L0,1 Z " fill="#CA9C48" opacity="0.4862745" transform="translate(15,37)"/>
<path d="M0,0 L1,0 L1,1 L0,1 Z " fill="#A23923" opacity="0.6156863" transform="translate(7,37)"/>
<path d="M0,0 L1,0 L1,1 L0,1 Z " fill="#A23821" opacity="0.43529412" transform="translate(3,37)"/>
<path d="M0,0 L1,0 L1,1 L0,1 Z " fill="#C79C48" opacity="0.7254902" transform="translate(48,36)"/>
<path d="M0,0 L1,0 L1,1 L0,1 Z " fill="#4C2319" opacity="0.22745098" transform="translate(34,36)"/>
<path d="M0,0 L1,0 L1,1 L0,1 Z " fill="#4C2319" opacity="0.68235296" transform="translate(33,36)"/>
<path d="M0,0 L1,0 L1,1 L0,1 Z " fill="#4B2219" opacity="0.22745098" transform="translate(29,36)"/>
<path d="M0,0 L1,0 L1,1 L0,1 Z " fill="#CA9C48" opacity="0.22352941" transform="translate(18,36)"/>
<path d="M0,0 L1,0 L1,1 L0,1 Z " fill="#CA9C48" opacity="0.7607843" transform="translate(15,36)"/>
<path d="M0,0 L1,0 L1,1 L0,1 Z " fill="#A33A23" opacity="0.7254902" transform="translate(60,35)"/>
<path d="M0,0 L1,0 L1,1 L0,1 Z " fill="#A23923" opacity="0.26666668" transform="translate(56,35)"/>
<path d="M0,0 L1,0 L1,1 L0,1 Z " fill="#CA9C48" opacity="0.8666667" transform="translate(46,35)"/>
<path d="M0,0 L1,0 L1,1 L0,1 Z " fill="#C99B47" opacity="0.039215688" transform="translate(45,35)"/>
<path d="M0,0 L1,0 L1,1 L0,1 Z " fill="#4A2419" opacity="0.47058824" transform="translate(35,35)"/>
<path d="M0,0 L1,0 L1,1 L0,1 Z " fill="#4B2319" opacity="0.47843137" transform="translate(28,35)"/>
<path d="M0,0 L1,0 L1,1 L0,1 Z " fill="#CA9C48" opacity="0.85882354" transform="translate(17,35)"/>
<path d="M0,0 L1,0 L1,1 L0,1 Z " fill="#A23923" opacity="0.25490198" transform="translate(7,35)"/>
<path d="M0,0 L1,0 L1,1 L0,1 Z " fill="#A33A23" opacity="0.7372549" transform="translate(3,35)"/>
<path d="M0,0 L1,0 L1,1 L0,1 Z " fill="#A33A24" opacity="0.827451" transform="translate(60,34)"/>
<path d="M0,0 L1,0 L1,1 L0,1 Z " fill="#A13923" opacity="0.13333334" transform="translate(56,34)"/>
<path d="M0,0 L1,0 L1,1 L0,1 Z " fill="#C99A46" opacity="0.19607843" transform="translate(49,34)"/>
<path d="M0,0 L1,0 L1,1 L0,1 Z " fill="#CA9C48" opacity="0.6784314" transform="translate(46,34)"/>
<path d="M0,0 L1,0 L1,1 L0,1 Z " fill="#4C2319" opacity="0.22745098" transform="translate(36,34)"/>
<path d="M0,0 L1,0 L1,1 L0,1 Z " fill="#4A2218" opacity="0.22745098" transform="translate(27,34)"/>
<path d="M0,0 L1,0 L1,1 L0,1 Z " fill="#CA9C48" opacity="0.6745098" transform="translate(17,34)"/>
<path d="M0,0 L1,0 L1,1 L0,1 Z " fill="#C99A47" opacity="0.22352941" transform="translate(14,34)"/>
<path d="M0,0 L1,0 L1,1 L0,1 Z " fill="#A23923" opacity="0.13725491" transform="translate(7,34)"/>
<path d="M0,0 L1,0 L1,1 L0,1 Z " fill="#A33A24" opacity="0.8392157" transform="translate(3,34)"/>
<path d="M0,0 L1,0 L1,1 L0,1 Z " fill="#A33A24" opacity="0.8862745" transform="translate(60,33)"/>
<path d="M0,0 L1,0 L1,1 L0,1 Z " fill="#A13923" opacity="0.07450981" transform="translate(56,33)"/>
<path d="M0,0 L1,0 L1,1 L0,1 Z " fill="#C99A46" opacity="0.29803923" transform="translate(49,33)"/>
<path d="M0,0 L1,0 L1,1 L0,1 Z " fill="#CA9C47" opacity="0.5803922" transform="translate(46,33)"/>
<path d="M0,0 L1,0 L1,1 L0,1 Z " fill="#4C2319" opacity="0.68235296" transform="translate(36,33)"/>
<path d="M0,0 L1,0 L1,1 L0,1 Z " fill="#4B2218" opacity="0.6901961" transform="translate(27,33)"/>
<path d="M0,0 L1,0 L1,1 L0,1 Z " fill="#CA9C47" opacity="0.5764706" transform="translate(17,33)"/>
<path d="M0,0 L1,0 L1,1 L0,1 Z " fill="#C99A47" opacity="0.32156864" transform="translate(14,33)"/>
<path d="M0,0 L1,0 L1,1 L0,1 Z " fill="#A23923" opacity="0.0627451" transform="translate(7,33)"/>
<path d="M0,0 L1,0 L1,1 L0,1 Z " fill="#A33A24" opacity="0.8980392" transform="translate(3,33)"/>
<path d="M0,0 L1,0 L1,1 L0,1 Z " fill="#A13923" opacity="0.015686275" transform="translate(56,32)"/>
<path d="M0,0 L1,0 L1,1 L0,1 Z " fill="#C99A47" opacity="0.39607844" transform="translate(49,32)"/>
<path d="M0,0 L1,0 L1,1 L0,1 Z " fill="#C99B47" opacity="0.39607844" transform="translate(14,32)"/>
<path d="M0,0 L1,0 L1,1 L0,1 Z " fill="#A23923" opacity="0.019607844" transform="translate(7,32)"/>
<path d="M0,0 L1,0 L1,1 L0,1 Z " fill="#A23A24" opacity="0.92941177" transform="translate(60,31)"/>
<path d="M0,0 L1,0 L1,1 L0,1 Z " fill="#C99B47" opacity="0.5058824" transform="translate(46,31)"/>
<path d="M0,0 L1,0 L1,1 L0,1 Z " fill="#4B2319" opacity="0.92156863" transform="translate(27,31)"/>
<path d="M0,0 L1,0 L1,1 L0,1 Z " fill="#C99C47" opacity="0.50980395" transform="translate(17,31)"/>
<path d="M0,0 L1,0 L1,1 L0,1 Z " fill="#A23620" opacity="0.06666667" transform="translate(56,30)"/>
<path d="M0,0 L1,0 L1,1 L0,1 Z " fill="#C99B46" opacity="0.29803923" transform="translate(49,30)"/>
<path d="M0,0 L1,0 L1,1 L0,1 Z " fill="#C99A46" opacity="0.32156864" transform="translate(14,30)"/>
<path d="M0,0 L1,0 L1,1 L0,1 Z " fill="#A23923" opacity="0.05882353" transform="translate(7,30)"/>
<path d="M0,0 L1,0 L1,1 L0,1 Z " fill="#A23A24" opacity="0.827451" transform="translate(60,29)"/>
<path d="M0,0 L1,0 L1,1 L0,1 Z " fill="#C99B48" opacity="0.6901961" transform="translate(46,29)"/>
<path d="M0,0 L1,0 L1,1 L0,1 Z " fill="#4B2219" opacity="0.22745098" transform="translate(36,29)"/>
<path d="M0,0 L1,0 L1,1 L0,1 Z " fill="#4B2318" opacity="0.22745098" transform="translate(27,29)"/>
<path d="M0,0 L1,0 L1,1 L0,1 Z " fill="#C99C47" opacity="0.6666667" transform="translate(17,29)"/>
<path d="M0,0 L1,0 L1,1 L0,1 Z " fill="#A33A24" opacity="0.8392157" transform="translate(3,29)"/>
<path d="M0,0 L1,0 L1,1 L0,1 Z " fill="#A23720" opacity="0.25882354" transform="translate(56,28)"/>
<path d="M0,0 L1,0 L1,1 L0,1 Z " fill="#C99B46" opacity="0.09803922" transform="translate(49,28)"/>
<path d="M0,0 L1,0 L1,1 L0,1 Z " fill="#C99B48" opacity="0.84313726" transform="translate(46,28)"/>
<path d="M0,0 L1,0 L1,1 L0,1 Z " fill="#C89A47" opacity="0.02745098" transform="translate(45,28)"/>
<path d="M0,0 L1,0 L1,1 L0,1 Z " fill="#4B2319" opacity="0.47843137" transform="translate(35,28)"/>
<path d="M0,0 L1,0 L1,1 L0,1 Z " fill="#4B2218" opacity="0.49019608" transform="translate(28,28)"/>
<path d="M0,0 L1,0 L1,1 L0,1 Z " fill="#CA9C48" opacity="0.8352941" transform="translate(17,28)"/>
<path d="M0,0 L1,0 L1,1 L0,1 Z " fill="#C89A46" opacity="0.10980392" transform="translate(14,28)"/>
<path d="M0,0 L1,0 L1,1 L0,1 Z " fill="#A23923" opacity="0.2509804" transform="translate(7,28)"/>
<path d="M0,0 L1,0 L1,1 L0,1 Z " fill="#A23824" opacity="0.5882353" transform="translate(60,27)"/>
<path d="M0,0 L1,0 L1,1 L0,1 Z " fill="#C79C48" opacity="0.7490196" transform="translate(48,27)"/>
<path d="M0,0 L1,0 L1,1 L0,1 Z " fill="#4A2218" opacity="0.22745098" transform="translate(34,27)"/>
<path d="M0,0 L1,0 L1,1 L0,1 Z " fill="#4B2218" opacity="0.6901961" transform="translate(33,27)"/>
<path d="M0,0 L1,0 L1,1 L0,1 Z " fill="#4A2217" opacity="0.8980392" transform="translate(31,27)"/>
<path d="M0,0 L1,0 L1,1 L0,1 Z " fill="#4A2217" opacity="0.26666668" transform="translate(29,27)"/>
<path d="M0,0 L1,0 L1,1 L0,1 Z " fill="#CB9A41" opacity="0.21960784" transform="translate(18,27)"/>
<path d="M0,0 L1,0 L1,1 L0,1 Z " fill="#C99B45" opacity="0.76862746" transform="translate(15,27)"/>
<path d="M0,0 L1,0 L1,1 L0,1 Z " fill="#A23824" opacity="0.6039216" transform="translate(3,27)"/>
<path d="M0,0 L1,0 L1,1 L0,1 Z " fill="#A33923" opacity="0.627451" transform="translate(56,26)"/>
<path d="M0,0 L1,0 L1,1 L0,1 Z " fill="#C89A47" opacity="0.5372549" transform="translate(45,26)"/>
<path d="M0,0 L1,0 L1,1 L0,1 Z " fill="#CA9948" opacity="0.5254902" transform="translate(18,26)"/>
<path d="M0,0 L1,0 L1,1 L0,1 Z " fill="#A23923" opacity="0.6156863" transform="translate(7,26)"/>
<path d="M0,0 L1,0 L1,1 L0,1 Z " fill="#A13723" opacity="0.22745098" transform="translate(60,25)"/>
<path d="M0,0 L1,0 L1,1 L0,1 Z " fill="#A33A24" opacity="0.89411765" transform="translate(56,25)"/>
<path d="M0,0 L1,0 L1,1 L0,1 Z " fill="#C99A46" opacity="0.19607843" transform="translate(48,25)"/>
<path d="M0,0 L1,0 L1,1 L0,1 Z " fill="#CA9C48" opacity="0.8666667" transform="translate(45,25)"/>
<path d="M0,0 L1,0 L1,1 L0,1 Z " fill="#C69846" opacity="0.08235294" transform="translate(44,25)"/>
<path d="M0,0 L1,0 L1,1 L0,1 Z " fill="#CB9A40" opacity="0.10980392" transform="translate(19,25)"/>
<path d="M0,0 L1,0 L1,1 L0,1 Z " fill="#CA9C45" opacity="0.22745098" transform="translate(15,25)"/>
<path d="M0,0 L1,0 L1,1 L0,1 Z " fill="#A33A24" opacity="0.8901961" transform="translate(7,25)"/>
<path d="M0,0 L1,0 L1,1 L0,1 Z " fill="#A23723" opacity="0.23529412" transform="translate(3,25)"/>
<path d="M0,0 L1,0 L1,1 L0,1 Z " fill="#C89B47" opacity="0.5803922" transform="translate(44,24)"/>
<path d="M0,0 L1,0 L1,1 L0,1 Z " fill="#CA9948" opacity="0.5254902" transform="translate(19,24)"/>
<path d="M0,0 L1,0 L1,1 L0,1 Z " fill="#A33A24" opacity="0.9254902" transform="translate(4,24)"/>
<path d="M0,0 L1,0 L1,1 L0,1 Z " fill="#A43A22" opacity="0.6745098" transform="translate(59,23)"/>
<path d="M0,0 L1,0 L1,1 L0,1 Z " fill="#A33A22" opacity="0.57254905" transform="translate(55,23)"/>
<path d="M0,0 L1,0 L1,1 L0,1 Z " fill="#C89B45" opacity="0.18039216" transform="translate(47,23)"/>
<path d="M0,0 L1,0 L1,1 L0,1 Z " fill="#C89A45" opacity="0.29803923" transform="translate(43,23)"/>
<path d="M0,0 L1,0 L1,1 L0,1 Z " fill="#CA9948" opacity="0.25490198" transform="translate(20,23)"/>
<path d="M0,0 L1,0 L1,1 L0,1 Z " fill="#C89A47" opacity="0.23921569" transform="translate(16,23)"/>
<path d="M0,0 L1,0 L1,1 L0,1 Z " fill="#A33A22" opacity="0.5294118" transform="translate(8,23)"/>
<path d="M0,0 L1,0 L1,1 L0,1 Z " fill="#A43B23" opacity="0.87058824" transform="translate(55,22)"/>
<path d="M0,0 L1,0 L1,1 L0,1 Z " fill="#C99B45" opacity="0.5764706" transform="translate(46,22)"/>
<path d="M0,0 L1,0 L1,1 L0,1 Z " fill="#C99B46" opacity="0.8509804" transform="translate(43,22)"/>
<path d="M0,0 L1,0 L1,1 L0,1 Z " fill="#CB9A48" opacity="0.84313726" transform="translate(20,22)"/>
<path d="M0,0 L1,0 L1,1 L0,1 Z " fill="#A43B22" opacity="0.8352941" transform="translate(8,22)"/>
<path d="M0,0 L1,0 L1,1 L0,1 Z " fill="#A23923" opacity="0.38039216" transform="translate(4,22)"/>
<path d="M0,0 L1,0 L1,1 L0,1 Z " fill="#A23A22" opacity="0.043137256" transform="translate(59,21)"/>
<path d="M0,0 L1,0 L1,1 L0,1 Z " fill="#A43B23" opacity="0.91764706" transform="translate(58,21)"/>
<path d="M0,0 L1,0 L1,1 L0,1 Z " fill="#A33A22" opacity="0.3882353" transform="translate(54,21)"/>
<path d="M0,0 L1,0 L1,1 L0,1 Z " fill="#C79A45" opacity="0.039215688" transform="translate(46,21)"/>
<path d="M0,0 L1,0 L1,1 L0,1 Z " fill="#C99B46" opacity="0.7921569" transform="translate(42,21)"/>
<path d="M0,0 L1,0 L1,1 L0,1 Z " fill="#CA9948" opacity="0.78039217" transform="translate(21,21)"/>
<path d="M0,0 L1,0 L1,1 L0,1 Z " fill="#C99B48" opacity="0.7882353" transform="translate(18,21)"/>
<path d="M0,0 L1,0 L1,1 L0,1 Z " fill="#C79947" opacity="0.05490196" transform="translate(17,21)"/>
<path d="M0,0 L1,0 L1,1 L0,1 Z " fill="#A33A22" opacity="0.34901962" transform="translate(9,21)"/>
<path d="M0,0 L1,0 L1,1 L0,1 Z " fill="#A43B23" opacity="0.87058824" transform="translate(54,20)"/>
<path d="M0,0 L1,0 L1,1 L0,1 Z " fill="#C89A45" opacity="0.1254902" transform="translate(45,20)"/>
<path d="M0,0 L1,0 L1,1 L0,1 Z " fill="#CA9C46" opacity="0.85882354" transform="translate(44,20)"/>
<path d="M0,0 L1,0 L1,1 L0,1 Z " fill="#C99B46" opacity="0.8509804" transform="translate(41,20)"/>
<path d="M0,0 L1,0 L1,1 L0,1 Z " fill="#C89A45" opacity="0.23921569" transform="translate(40,20)"/>
<path d="M0,0 L1,0 L1,1 L0,1 Z " fill="#CA9948" opacity="0.25490198" transform="translate(23,20)"/>
<path d="M0,0 L1,0 L1,1 L0,1 Z " fill="#CB9A48" opacity="0.84313726" transform="translate(22,20)"/>
<path d="M0,0 L1,0 L1,1 L0,1 Z " fill="#C89947" opacity="0.16862746" transform="translate(18,20)"/>
<path d="M0,0 L1,0 L1,1 L0,1 Z " fill="#A43B22" opacity="0.8352941" transform="translate(9,20)"/>
<path d="M0,0 L1,0 L1,1 L0,1 Z " fill="#A13923" opacity="0.007843138" transform="translate(4,20)"/>
<path d="M0,0 L1,0 L1,1 L0,1 Z " fill="#A13B23" opacity="0.11764706" transform="translate(58,19)"/>
<path d="M0,0 L1,0 L1,1 L0,1 Z " fill="#A23923" opacity="0.4392157" transform="translate(53,19)"/>
<path d="M0,0 L1,0 L1,1 L0,1 Z " fill="#C99846" opacity="0.23137255" transform="translate(44,19)"/>
<path d="M0,0 L1,0 L1,1 L0,1 Z " fill="#C99B47" opacity="0.85882354" transform="translate(43,19)"/>
<path d="M0,0 L1,0 L1,1 L0,1 Z " fill="#CA9C47" opacity="0.5411765" transform="translate(39,19)"/>
<path d="M0,0 L1,0 L1,1 L0,1 Z " fill="#CA9C48" opacity="0.007843138" transform="translate(37,19)"/>
<path d="M0,0 L1,0 L1,1 L0,1 Z " fill="#C79A47" opacity="0.007843138" transform="translate(27,19)"/>
<path d="M0,0 L1,0 L1,1 L0,1 Z " fill="#C89A47" opacity="0.09019608" transform="translate(25,19)"/>
<path d="M0,0 L1,0 L1,1 L0,1 Z " fill="#C99B47" opacity="0.5411765" transform="translate(24,19)"/>
<path d="M0,0 L1,0 L1,1 L0,1 Z " fill="#C99B48" opacity="0.84705883" transform="translate(20,19)"/>
<path d="M0,0 L1,0 L1,1 L0,1 Z " fill="#C69C4A" opacity="0.25882354" transform="translate(19,19)"/>
<path d="M0,0 L1,0 L1,1 L0,1 Z " fill="#A23923" opacity="0.41960785" transform="translate(10,19)"/>
<path d="M0,0 L1,0 L1,1 L0,1 Z " fill="#A23824" opacity="0.9529412" transform="translate(7,19)"/>
<path d="M0,0 L1,0 L1,1 L0,1 Z " fill="#A13723" opacity="0.16078432" transform="translate(5,19)"/>
<path d="M0,0 L1,0 L1,1 L0,1 Z " fill="#A33A24" opacity="0.9019608" transform="translate(53,18)"/>
<path d="M0,0 L1,0 L1,1 L0,1 Z " fill="#A13923" opacity="0.06666667" transform="translate(52,18)"/>
<path d="M0,0 L1,0 L1,1 L0,1 Z " fill="#CA9C48" opacity="0.13333334" transform="translate(43,18)"/>
<path d="M0,0 L1,0 L1,1 L0,1 Z " fill="#C99B47" opacity="0.77254903" transform="translate(42,18)"/>
<path d="M0,0 L1,0 L1,1 L0,1 Z " fill="#CA9C47" opacity="0.5411765" transform="translate(37,18)"/>
<path d="M0,0 L1,0 L1,1 L0,1 Z " fill="#CA9C48" opacity="0.23137255" transform="translate(36,18)"/>
<path d="M0,0 L1,0 L1,1 L0,1 Z " fill="#C99B47" opacity="0.5411765" transform="translate(26,18)"/>
<path d="M0,0 L1,0 L1,1 L0,1 Z " fill="#CA9C48" opacity="0.8666667" transform="translate(25,18)"/>
<path d="M0,0 L1,0 L1,1 L0,1 Z " fill="#C89A47" opacity="0.16862746" transform="translate(20,18)"/>
<path d="M0,0 L1,0 L1,1 L0,1 Z " fill="#A13923" opacity="0.07450981" transform="translate(11,18)"/>
<path d="M0,0 L1,0 L1,1 L0,1 Z " fill="#A33A24" opacity="0.8862745" transform="translate(10,18)"/>
<path d="M0,0 L1,0 L1,1 L0,1 Z " fill="#A13B23" opacity="0.11764706" transform="translate(57,17)"/>
<path d="M0,0 L1,0 L1,1 L0,1 Z " fill="#A23C24" opacity="0.9254902" transform="translate(56,17)"/>
<path d="M0,0 L1,0 L1,1 L0,1 Z " fill="#A23923" opacity="0.64705884" transform="translate(52,17)"/>
<path d="M0,0 L1,0 L1,1 L0,1 Z " fill="#CA9C48" opacity="0.047058824" transform="translate(42,17)"/>
<path d="M0,0 L1,0 L1,1 L0,1 Z " fill="#CA9B47" opacity="0.5764706" transform="translate(41,17)"/>
<path d="M0,0 L1,0 L1,1 L0,1 Z " fill="#C99B47" opacity="0.83137256" transform="translate(35,17)"/>
<path d="M0,0 L1,0 L1,1 L0,1 Z " fill="#C99B47" opacity="0.6627451" transform="translate(34,17)"/>
<path d="M0,0 L1,0 L1,1 L0,1 Z " fill="#C99B46" opacity="0.5764706" transform="translate(33,17)"/>
<path d="M0,0 L1,0 L1,1 L0,1 Z " fill="#C99B47" opacity="0.6627451" transform="translate(29,17)"/>
<path d="M0,0 L1,0 L1,1 L0,1 Z " fill="#C99B47" opacity="0.83137256" transform="translate(28,17)"/>
<path d="M0,0 L1,0 L1,1 L0,1 Z " fill="#C89A47" opacity="0.05490196" transform="translate(21,17)"/>
<path d="M0,0 L1,0 L1,1 L0,1 Z " fill="#A23923" opacity="0.6156863" transform="translate(11,17)"/>
<path d="M0,0 L1,0 L1,1 L0,1 Z " fill="#A23824" opacity="0.9254902" transform="translate(7,17)"/>
<path d="M0,0 L1,0 L1,1 L0,1 Z " fill="#A13723" opacity="0.11764706" transform="translate(6,17)"/>
<path d="M0,0 L1,0 L1,1 L0,1 Z " fill="#A33B26" opacity="0.5137255" transform="translate(51,16)"/>
<path d="M0,0 L1,0 L1,1 L0,1 Z " fill="#CA9C48" opacity="0.1882353" transform="translate(40,16)"/>
<path d="M0,0 L1,0 L1,1 L0,1 Z " fill="#CA9B47" opacity="0.68235296" transform="translate(39,16)"/>
<path d="M0,0 L1,0 L1,1 L0,1 Z " fill="#C99A47" opacity="0.23921569" transform="translate(23,16)"/>
<path d="M0,0 L1,0 L1,1 L0,1 Z " fill="#A13628" opacity="0.4745098" transform="translate(12,16)"/>
<path d="M0,0 L1,0 L1,1 L0,1 Z " fill="#A23723" opacity="0.5058824" transform="translate(7,16)"/>
<path d="M0,0 L1,0 L1,1 L0,1 Z " fill="#A13A24" opacity="0.003921569" transform="translate(56,15)"/>
<path d="M0,0 L1,0 L1,1 L0,1 Z " fill="#A33722" opacity="0.34509805" transform="translate(50,15)"/>
<path d="M0,0 L1,0 L1,1 L0,1 Z " fill="#C99A47" opacity="0.47058824" transform="translate(37,15)"/>
<path d="M0,0 L1,0 L1,1 L0,1 Z " fill="#C89A47" opacity="0.77254903" transform="translate(36,15)"/>
<path d="M0,0 L1,0 L1,1 L0,1 Z " fill="#C99B46" opacity="0.75686276" transform="translate(27,15)"/>
<path d="M0,0 L1,0 L1,1 L0,1 Z " fill="#C79A46" opacity="0.24705882" transform="translate(25,15)"/>
<path d="M0,0 L1,0 L1,1 L0,1 Z " fill="#A23823" opacity="0.31764707" transform="translate(13,15)"/>
<path d="M0,0 L1,0 L1,1 L0,1 Z " fill="#A43B22" opacity="0.03137255" transform="translate(7,15)"/>
<path d="M0,0 L1,0 L1,1 L0,1 Z " fill="#A03723" opacity="0.11764706" transform="translate(55,14)"/>
<path d="M0,0 L1,0 L1,1 L0,1 Z " fill="#A33924" opacity="0.9019608" transform="translate(54,14)"/>
<path d="M0,0 L1,0 L1,1 L0,1 Z " fill="#A33722" opacity="0.19215687" transform="translate(49,14)"/>
<path d="M0,0 L1,0 L1,1 L0,1 Z " fill="#C99A47" opacity="0.22352941" transform="translate(34,14)"/>
<path d="M0,0 L1,0 L1,1 L0,1 Z " fill="#C99A47" opacity="0.32156864" transform="translate(33,14)"/>
<path d="M0,0 L1,0 L1,1 L0,1 Z " fill="#C99B47" opacity="0.39607844" transform="translate(32,14)"/>
<path d="M0,0 L1,0 L1,1 L0,1 Z " fill="#C99A46" opacity="0.32156864" transform="translate(30,14)"/>
<path d="M0,0 L1,0 L1,1 L0,1 Z " fill="#C89A46" opacity="0.10980392" transform="translate(28,14)"/>
<path d="M0,0 L1,0 L1,1 L0,1 Z " fill="#A23823" opacity="0.18039216" transform="translate(14,14)"/>
<path d="M0,0 L1,0 L1,1 L0,1 Z " fill="#A43823" opacity="0.91764706" transform="translate(9,14)"/>
<path d="M0,0 L1,0 L1,1 L0,1 Z " fill="#A13622" opacity="0.13333334" transform="translate(8,14)"/>
<path d="M0,0 L1,0 L1,1 L0,1 Z " fill="#A03723" opacity="0.3137255" transform="translate(54,13)"/>
<path d="M0,0 L1,0 L1,1 L0,1 Z " fill="#A33722" opacity="0.34509805" transform="translate(48,13)"/>
<path d="M0,0 L1,0 L1,1 L0,1 Z " fill="#A23823" opacity="0.31764707" transform="translate(15,13)"/>
<path d="M0,0 L1,0 L1,1 L0,1 Z " fill="#A23622" opacity="0.34509805" transform="translate(9,13)"/>
<path d="M0,0 L1,0 L1,1 L0,1 Z " fill="#A13823" opacity="0.43529412" transform="translate(53,12)"/>
<path d="M0,0 L1,0 L1,1 L0,1 Z " fill="#A33B26" opacity="0.4862745" transform="translate(47,12)"/>
<path d="M0,0 L1,0 L1,1 L0,1 Z " fill="#A13628" opacity="0.4745098" transform="translate(16,12)"/>
<path d="M0,0 L1,0 L1,1 L0,1 Z " fill="#A23722" opacity="0.43529412" transform="translate(10,12)"/>
<path d="M0,0 L1,0 L1,1 L0,1 Z " fill="#A23823" opacity="0.47058824" transform="translate(52,11)"/>
<path d="M0,0 L1,0 L1,1 L0,1 Z " fill="#A23923" opacity="0.05882353" transform="translate(45,11)"/>
<path d="M0,0 L1,0 L1,1 L0,1 Z " fill="#A13923" opacity="0.07450981" transform="translate(18,11)"/>
<path d="M0,0 L1,0 L1,1 L0,1 Z " fill="#A23923" opacity="0.6156863" transform="translate(17,11)"/>
<path d="M0,0 L1,0 L1,1 L0,1 Z " fill="#A23923" opacity="0.5058824" transform="translate(11,11)"/>
<path d="M0,0 L1,0 L1,1 L0,1 Z " fill="#A23923" opacity="0.43529412" transform="translate(51,10)"/>
<path d="M0,0 L1,0 L1,1 L0,1 Z " fill="#A33A24" opacity="0.9019608" transform="translate(45,10)"/>
<path d="M0,0 L1,0 L1,1 L0,1 Z " fill="#A23C24" opacity="0.02745098" transform="translate(43,10)"/>
<path d="M0,0 L1,0 L1,1 L0,1 Z " fill="#A23923" opacity="0.41960785" transform="translate(19,10)"/>
<path d="M0,0 L1,0 L1,1 L0,1 Z " fill="#A33A24" opacity="0.8862745" transform="translate(18,10)"/>
<path d="M0,0 L1,0 L1,1 L0,1 Z " fill="#A13923" opacity="0.43529412" transform="translate(12,10)"/>
<path d="M0,0 L1,0 L1,1 L0,1 Z " fill="#A23923" opacity="0.3137255" transform="translate(50,9)"/>
<path d="M0,0 L1,0 L1,1 L0,1 Z " fill="#A23B23" opacity="0.36078432" transform="translate(42,9)"/>
<path d="M0,0 L1,0 L1,1 L0,1 Z " fill="#A33A22" opacity="0.34901962" transform="translate(21,9)"/>
<path d="M0,0 L1,0 L1,1 L0,1 Z " fill="#A43B22" opacity="0.8352941" transform="translate(20,9)"/>
<path d="M0,0 L1,0 L1,1 L0,1 Z " fill="#A03823" opacity="0.31764707" transform="translate(13,9)"/>
<path d="M0,0 L1,0 L1,1 L0,1 Z " fill="#A13923" opacity="0.11764706" transform="translate(49,8)"/>
<path d="M0,0 L1,0 L1,1 L0,1 Z " fill="#A33A23" opacity="0.78039217" transform="translate(48,8)"/>
<path d="M0,0 L1,0 L1,1 L0,1 Z " fill="#A33A24" opacity="0.9607843" transform="translate(44,8)"/>
<path d="M0,0 L1,0 L1,1 L0,1 Z " fill="#A13B23" opacity="0.84705883" transform="translate(41,8)"/>
<path d="M0,0 L1,0 L1,1 L0,1 Z " fill="#A43820" opacity="0.25882354" transform="translate(39,8)"/>
<path d="M0,0 L1,0 L1,1 L0,1 Z " fill="#A33A22" opacity="0.5294118" transform="translate(23,8)"/>
<path d="M0,0 L1,0 L1,1 L0,1 Z " fill="#A43B22" opacity="0.8352941" transform="translate(22,8)"/>
<path d="M0,0 L1,0 L1,1 L0,1 Z " fill="#A33A24" opacity="0.9607843" transform="translate(16,8)"/>
<path d="M0,0 L1,0 L1,1 L0,1 Z " fill="#A03823" opacity="0.18039216" transform="translate(14,8)"/>
<path d="M0,0 L1,0 L1,1 L0,1 Z " fill="#A13722" opacity="0.4392157" transform="translate(47,7)"/>
<path d="M0,0 L1,0 L1,1 L0,1 Z " fill="#A43823" opacity="0.9254902" transform="translate(46,7)"/>
<path d="M0,0 L1,0 L1,1 L0,1 Z " fill="#A23923" opacity="0.6156863" transform="translate(37,7)"/>
<path d="M0,0 L1,0 L1,1 L0,1 Z " fill="#A23923" opacity="0.25490198" transform="translate(35,7)"/>
<path d="M0,0 L1,0 L1,1 L0,1 Z " fill="#A23923" opacity="0.13725491" transform="translate(34,7)"/>
<path d="M0,0 L1,0 L1,1 L0,1 Z " fill="#A23923" opacity="0.0627451" transform="translate(33,7)"/>
<path d="M0,0 L1,0 L1,1 L0,1 Z " fill="#A23923" opacity="0.019607844" transform="translate(32,7)"/>
<path d="M0,0 L1,0 L1,1 L0,1 Z " fill="#A23923" opacity="0.05882353" transform="translate(30,7)"/>
<path d="M0,0 L1,0 L1,1 L0,1 Z " fill="#A23923" opacity="0.2509804" transform="translate(28,7)"/>
<path d="M0,0 L1,0 L1,1 L0,1 Z " fill="#A23923" opacity="0.6156863" transform="translate(26,7)"/>
<path d="M0,0 L1,0 L1,1 L0,1 Z " fill="#A33A24" opacity="0.8901961" transform="translate(25,7)"/>
<path d="M0,0 L1,0 L1,1 L0,1 Z " fill="#A23824" opacity="0.9529412" transform="translate(19,7)"/>
<path d="M0,0 L1,0 L1,1 L0,1 Z " fill="#A23824" opacity="0.9254902" transform="translate(17,7)"/>
<path d="M0,0 L1,0 L1,1 L0,1 Z " fill="#A23820" opacity="0.03137255" transform="translate(15,7)"/>
<path d="M0,0 L1,0 L1,1 L0,1 Z " fill="#9F3621" opacity="0.13333334" transform="translate(46,6)"/>
<path d="M0,0 L1,0 L1,1 L0,1 Z " fill="#A23722" opacity="0.61960787" transform="translate(45,6)"/>
<path d="M0,0 L1,0 L1,1 L0,1 Z " fill="#A13723" opacity="0.11764706" transform="translate(17,6)"/>
<path d="M0,0 L1,0 L1,1 L0,1 Z " fill="#9F3621" opacity="0.13333334" transform="translate(44,5)"/>
<path d="M0,0 L1,0 L1,1 L0,1 Z " fill="#A23923" opacity="0.5882353" transform="translate(43,5)"/>
<path d="M0,0 L1,0 L1,1 L0,1 Z " fill="#A33A24" opacity="0.90588236" transform="translate(42,5)"/>
<path d="M0,0 L1,0 L1,1 L0,1 Z " fill="#A13723" opacity="0.16078432" transform="translate(19,5)"/>
<path d="M0,0 L1,0 L1,1 L0,1 Z " fill="#A23923" opacity="0.3764706" transform="translate(41,4)"/>
<path d="M0,0 L1,0 L1,1 L0,1 Z " fill="#A33923" opacity="0.70980394" transform="translate(40,4)"/>
<path d="M0,0 L1,0 L1,1 L0,1 Z " fill="#A33A24" opacity="0.9254902" transform="translate(39,4)"/>
<path d="M0,0 L1,0 L1,1 L0,1 Z " fill="#A33A24" opacity="0.9254902" transform="translate(24,4)"/>
<path d="M0,0 L1,0 L1,1 L0,1 Z " fill="#A23923" opacity="0.38039216" transform="translate(22,4)"/>
<path d="M0,0 L1,0 L1,1 L0,1 Z " fill="#A13923" opacity="0.007843138" transform="translate(20,4)"/>
<path d="M0,0 L1,0 L1,1 L0,1 Z " fill="#A13821" opacity="0.03529412" transform="translate(39,3)"/>
<path d="M0,0 L1,0 L1,1 L0,1 Z " fill="#A23821" opacity="0.43529412" transform="translate(37,3)"/>
<path d="M0,0 L1,0 L1,1 L0,1 Z " fill="#A33A23" opacity="0.7372549" transform="translate(35,3)"/>
<path d="M0,0 L1,0 L1,1 L0,1 Z " fill="#A33A24" opacity="0.8392157" transform="translate(34,3)"/>
<path d="M0,0 L1,0 L1,1 L0,1 Z " fill="#A33A24" opacity="0.8980392" transform="translate(33,3)"/>
<path d="M0,0 L1,0 L1,1 L0,1 Z " fill="#A33A24" opacity="0.8392157" transform="translate(29,3)"/>
<path d="M0,0 L1,0 L1,1 L0,1 Z " fill="#A23824" opacity="0.6039216" transform="translate(27,3)"/>
<path d="M0,0 L1,0 L1,1 L0,1 Z " fill="#A23723" opacity="0.23529412" transform="translate(25,3)"/>
</svg>
